<?xml version="1.0" encoding="utf-8"?>
<!-- Generator: Adobe Illustrator 27.5.0, SVG Export Plug-In . SVG Version: 6.00 Build 0)  -->
<svg version="1.1" xmlns="http://www.w3.org/2000/svg" xmlns:xlink="http://www.w3.org/1999/xlink" x="0px" y="0px"
	 viewBox="0 0 500 500" style="enable-background:new 0 0 500 500;" xml:space="preserve">
<g id="Background_Complete">
	<g>
		<rect y="382.398" style="fill:#EBEBEB;" width="500" height="0.25"/>
		<rect x="396.833" y="398.494" style="fill:#EBEBEB;" width="53.068" height="0.25"/>
		<rect x="272.556" y="395.361" style="fill:#EBEBEB;" width="58.665" height="0.25"/>
		<rect x="380.195" y="393.917" style="fill:#EBEBEB;" width="19.192" height="0.25"/>
		<rect x="100.473" y="390.888" style="fill:#EBEBEB;" width="43.193" height="0.25"/>
		<rect x="79.459" y="390.888" style="fill:#EBEBEB;" width="15.444" height="0.25"/>
		<rect x="131.471" y="395.111" style="fill:#EBEBEB;" width="54.195" height="0.25"/>
		<path style="fill:#EBEBEB;" d="M237.014,337.8H43.915c-3.147,0-5.708-2.561-5.708-5.708V60.66c0-3.147,2.561-5.708,5.708-5.708
			h193.099c3.146,0,5.707,2.561,5.707,5.708v271.432C242.721,335.239,240.16,337.8,237.014,337.8z M43.915,55.203
			c-3.01,0-5.458,2.448-5.458,5.458v271.432c0,3.01,2.448,5.458,5.458,5.458h193.099c3.009,0,5.457-2.448,5.457-5.458V60.66
			c0-3.009-2.448-5.458-5.457-5.458H43.915z"/>
		<path style="fill:#EBEBEB;" d="M453.31,337.8H260.212c-3.147,0-5.707-2.561-5.707-5.708V60.66c0-3.147,2.561-5.708,5.707-5.708
			H453.31c3.148,0,5.708,2.561,5.708,5.708v271.432C459.019,335.239,456.458,337.8,453.31,337.8z M260.212,55.203
			c-3.009,0-5.457,2.448-5.457,5.458v271.432c0,3.01,2.448,5.458,5.457,5.458H453.31c3.01,0,5.458-2.448,5.458-5.458V60.66
			c0-3.009-2.448-5.458-5.458-5.458H260.212z"/>
	</g>
	<g>
		<g>
			<path style="fill:#EBEBEB;" d="M117.458,322.234h-60.72c-2.819,0-5.125-2.306-5.125-5.125v-2.206
				c0-2.819,2.306-5.125,5.125-5.125h60.72c2.818,0,5.125,2.306,5.125,5.125v2.206C122.582,319.928,120.276,322.234,117.458,322.234
				z"/>
			<polygon style="fill:#E0E0E0;" points="71.301,322.234 61.311,322.234 49.948,382.398 59.938,382.398 			"/>
			<polygon style="fill:#E0E0E0;" points="91.244,322.234 81.254,322.234 75.656,382.398 85.646,382.398 			"/>
			<polygon style="fill:#E0E0E0;" points="102.894,322.234 112.884,322.234 124.248,382.398 114.258,382.398 			"/>
		</g>
		<g>
			<rect x="197.156" y="70.654" style="fill:#E6E6E6;" width="233.653" height="203.552"/>
			<rect x="200.431" y="70.654" style="fill:#F0F0F0;" width="237.387" height="203.552"/>
			<rect x="197.156" y="274.206" style="fill:#E6E6E6;" width="233.653" height="3.944"/>
			<rect x="204.168" y="274.206" style="fill:#F0F0F0;" width="237.387" height="3.944"/>
			
				<rect x="223.674" y="63.55" transform="matrix(-1.836970e-16 1 -1 -1.836970e-16 491.5544 -146.6949)" style="fill:#FAFAFA;" width="190.902" height="217.76"/>
			<polygon style="fill:#FFFFFF;" points="279.863,267.881 320.91,76.979 348.1,76.979 307.054,267.881 			"/>
			<polygon style="fill:#FFFFFF;" points="248.12,267.881 289.166,76.979 316.357,76.979 275.31,267.881 			"/>
			<path style="fill:#F0F0F0;" d="M215.37,77.495v178.386c0,0.285,0.359,0.516,0.801,0.516h1.061c0.443,0,0.801-0.231,0.801-0.516
				V77.495c0-0.285-0.359-0.517-0.801-0.517h-1.061C215.729,76.979,215.37,77.21,215.37,77.495z"/>
			<polygon style="fill:#FFFFFF;" points="349.782,267.881 390.828,76.979 401.429,76.979 360.383,267.881 			"/>
			
				<rect x="331.93" y="171.807" transform="matrix(-1.836970e-16 1 -1 -1.836970e-16 599.811 -254.9516)" style="fill:#E6E6E6;" width="190.902" height="1.246"/>
			<polygon style="opacity:0.5;fill:#E0E0E0;" points="440.139,84.899 206.486,84.899 205.583,79.438 439.236,79.438 			"/>
			<polygon style="opacity:0.5;fill:#E0E0E0;" points="440.139,103.635 206.486,103.635 205.583,98.174 439.236,98.174 			"/>
			<polygon style="opacity:0.5;fill:#E0E0E0;" points="440.139,122.371 206.486,122.371 205.583,116.91 439.236,116.91 			"/>
			<polygon style="opacity:0.5;fill:#E0E0E0;" points="440.139,141.107 206.486,141.107 205.583,135.645 439.236,135.645 			"/>
			<polygon style="opacity:0.5;fill:#E0E0E0;" points="440.139,159.843 206.486,159.843 205.583,154.382 439.236,154.382 			"/>
			<polygon style="opacity:0.5;fill:#E0E0E0;" points="440.139,178.579 206.486,178.579 205.583,173.117 439.236,173.117 			"/>
			<polygon style="opacity:0.5;fill:#E0E0E0;" points="440.139,94.267 206.486,94.267 205.583,88.805 439.236,88.805 			"/>
			<polygon style="opacity:0.5;fill:#E0E0E0;" points="440.139,113.003 206.486,113.003 205.583,107.541 439.236,107.541 			"/>
			<polygon style="opacity:0.5;fill:#E0E0E0;" points="440.139,131.739 206.486,131.739 205.583,126.277 439.236,126.277 			"/>
			<polygon style="opacity:0.5;fill:#E0E0E0;" points="440.139,150.475 206.486,150.475 205.583,145.014 439.236,145.014 			"/>
			<polygon style="opacity:0.5;fill:#E0E0E0;" points="440.139,169.211 206.486,169.211 205.583,163.749 439.236,163.749 			"/>
			<polygon style="opacity:0.5;fill:#E0E0E0;" points="440.139,187.947 206.486,187.947 205.583,182.486 439.236,182.486 			"/>
		</g>
		<g>
			<g>
				<g>
					<rect x="399.866" y="289.638" style="fill:#E6E6E6;" width="30.943" height="92.761"/>
					<polygon style="fill:#EBEBEB;" points="411.963,382.398 430.808,382.398 430.808,371.755 392.204,371.755 					"/>
					<rect x="307.135" y="289.638" style="fill:#E6E6E6;" width="30.943" height="92.761"/>
					<rect x="321.631" y="289.638" style="fill:#EBEBEB;" width="109.177" height="90.548"/>
					<polygon style="fill:#EBEBEB;" points="340.476,382.398 321.631,382.398 321.631,371.755 360.235,371.755 					"/>
					<rect x="336.25" y="300.083" style="fill:#FAFAFA;" width="79.939" height="46.652"/>
					<rect x="336.25" y="351.479" style="fill:#FAFAFA;" width="79.939" height="22.198"/>
					<path style="fill:#EBEBEB;" d="M383.668,302.456h-14.897c-2.373,0-4.296-1.923-4.296-4.296l0,0h23.488l0,0
						C387.964,300.533,386.04,302.456,383.668,302.456z"/>
					<path style="fill:#EBEBEB;" d="M383.668,353.853h-14.897c-2.373,0-4.296-1.923-4.296-4.296l0,0h23.488l0,0
						C387.964,351.929,386.04,353.853,383.668,353.853z"/>
				</g>
			</g>
			<g>
				<g>
					<rect x="282.322" y="289.638" style="fill:#E6E6E6;" width="30.943" height="92.761"/>
					<polygon style="fill:#EBEBEB;" points="294.42,382.398 313.265,382.398 313.265,371.755 274.661,371.755 					"/>
					<rect x="189.591" y="289.638" style="fill:#E6E6E6;" width="30.943" height="92.761"/>
					<rect x="204.087" y="289.638" style="fill:#EBEBEB;" width="109.178" height="90.548"/>
					<polygon style="fill:#EBEBEB;" points="222.932,382.398 204.087,382.398 204.087,371.755 242.691,371.755 					"/>
					<rect x="218.707" y="300.083" style="fill:#FAFAFA;" width="79.939" height="46.652"/>
					<rect x="218.707" y="351.479" style="fill:#FAFAFA;" width="79.939" height="22.198"/>
					<path style="fill:#EBEBEB;" d="M266.124,302.456h-14.897c-2.373,0-4.296-1.923-4.296-4.296l0,0h23.488l0,0
						C270.42,300.533,268.497,302.456,266.124,302.456z"/>
					<path style="fill:#EBEBEB;" d="M266.124,353.853h-14.897c-2.373,0-4.296-1.923-4.296-4.296l0,0h23.488l0,0
						C270.42,351.929,268.497,353.853,266.124,353.853z"/>
				</g>
			</g>
			
				<rect x="204.411" y="285.744" transform="matrix(-1 -1.224647e-16 1.224647e-16 -1 635.2197 575.3817)" style="fill:#F0F0F0;" width="226.397" height="3.894"/>
			<rect x="189.591" y="285.744" style="fill:#E0E0E0;" width="14.82" height="3.894"/>
		</g>
		<g>
			<path style="fill:#E6E6E6;" d="M84.393,294.878c-1.41-36.338-2.914-72.47,0.165-90.695l5.024-3.546c0,0-1.101,3.397-1.679,59.071
				c-0.577,55.674-1.295,26.898-0.68,35.17H84.393z"/>
			<path style="fill:#E6E6E6;" d="M92.47,166.001c7.728-20.142,25.737-39.593,45.301-47.548c7.681-3.123-3.386,65.566-31.234,69.993
				c-13.6,2.162-17.835,36.976-20.128,53.702C85.631,209.25,84.741,186.143,92.47,166.001z"/>
			<path style="fill:#E6E6E6;" d="M90.818,217.128c5.438-8.622,14.33-20.695,27.321-20.707c14.725-0.014,1.839,24.234-15.469,31.979
				c-8.452,3.782-15.497,15.785-17.326,23.296C85.495,236.472,85.379,225.75,90.818,217.128z"/>
			<path style="fill:#E6E6E6;" d="M77.578,191.066c-9.458-16.76-30.538-33.615-52.981-41.283
				c-8.811-3.011-9.68,46.638,37.826,58.519c15.343,3.837,21.494,30.999,24.675,44.655
				C86.833,226.434,87.035,207.826,77.578,191.066z"/>
			<path style="fill:#E6E6E6;" d="M82.756,230.814c-6.028-10.683-22.415-15.906-37.153-14.908
				c-5.786,0.392-6.419,22.318,25.767,30.785c9.762,2.568,13.7,19.759,15.728,28.463C86.929,258.249,88.784,241.497,82.756,230.814z
				"/>
			<path style="fill:#E6E6E6;" d="M83.381,174.382c-4.686-14.939-18.497-28.329-31.175-33.864
				c-4.977-2.173-6.507,22.599,20.7,46.852c8.252,7.356,10.854,28.786,12.199,39.651C85.722,207.625,88.067,189.321,83.381,174.382z
				"/>
			<g>
				<path style="fill:#F0F0F0;" d="M85.863,309.779L85.863,309.779c-9.899,0-18.078-0.721-18.647-14.11l-1.65-17.573h40.592
					l-1.65,17.573C103.942,309.058,95.762,309.779,85.863,309.779z"/>
				<polygon style="fill:#F0F0F0;" points="106.307,285.338 65.419,285.338 64.248,277.108 107.478,277.108 				"/>
			</g>
		</g>
	</g>
</g>
<g id="Background_Simple" style="display:none;">
	<g style="display:inline;">
		<g>
			<path style="fill:#407BFF;" d="M447.061,215.292c-32.627-75.843-152.697-61.31-195.731-26.019
				c-17.092,14.016-19.637,24.099-45.452,28.806c-18.757,3.42-40.275-7.132-59.053-1.362c-41.176,12.65-38.136,55.064-21.256,85.563
				c17.516,31.647,36.723,63.44,78.313,52.65c17.979-4.664,36.685-22.207,52.447-24.449c32.388-4.608,45.253,10.262,74.018,17.414
				C435.916,374.145,476.694,284.172,447.061,215.292z"/>
		</g>
		<g style="opacity:0.9;">
			<path style="fill:#FFFFFF;" d="M447.061,215.292c-32.627-75.843-152.697-61.31-195.731-26.019
				c-17.092,14.016-19.637,24.099-45.452,28.806c-18.757,3.42-40.275-7.132-59.053-1.362c-41.176,12.65-38.136,55.064-21.256,85.563
				c17.516,31.647,36.723,63.44,78.313,52.65c17.979-4.664,36.685-22.207,52.447-24.449c32.388-4.608,45.253,10.262,74.018,17.414
				C435.916,374.145,476.694,284.172,447.061,215.292z"/>
		</g>
	</g>
</g>
<g id="Shadow_1_">
	<ellipse id="_x3C_Path_x3E__376_" style="fill:#F5F5F5;" cx="250" cy="416.238" rx="193.889" ry="11.323"/>
</g>
<g id="Board">
	<g>
		<g>
			
				<rect x="72.035" y="97.652" transform="matrix(0.9988 -0.0486 0.0486 0.9988 -5.15 3.6529)" style="fill:#407BFF;" width="0.999" height="20.131"/>
			
				<rect x="73.095" y="124.549" transform="matrix(0.9988 -0.0487 0.0487 0.9988 -6.2151 3.7352)" style="fill:#407BFF;" width="0.999" height="9.894"/>
			<path style="fill:#407BFF;" d="M386.738,301.719H86.672c-0.946,0-1.725-0.742-1.771-1.687L74.137,78.955
				c-0.049-1.012,0.758-1.859,1.771-1.859h300.066c0.946,0,1.725,0.742,1.771,1.687l10.764,221.078
				C388.558,300.872,387.751,301.719,386.738,301.719z"/>
			<path style="opacity:0.8;fill:#FFFFFF;" d="M88.353,296.404L77.942,82.583c-0.049-1.012,0.758-1.859,1.771-1.859h292.811
				c0.946,0,1.725,0.742,1.771,1.687l10.41,213.821c0.049,1.012-0.758,1.859-1.771,1.859H90.123
				C89.178,298.091,88.398,297.349,88.353,296.404z"/>
			<path style="fill:#FFFFFF;" d="M161.898,286.143c-0.48,0-0.881-0.378-0.905-0.863l-9.331-191.656
				c-0.024-0.5,0.362-0.926,0.862-0.95c0.481-0.021,0.925,0.361,0.95,0.862l9.331,191.656c0.024,0.5-0.362,0.926-0.862,0.95
				C161.928,286.142,161.912,286.143,161.898,286.143z"/>
			<path style="fill:#FFFFFF;" d="M310.078,286.143c-0.48,0-0.881-0.378-0.905-0.863l-9.332-191.656
				c-0.024-0.5,0.362-0.926,0.862-0.95c0.474-0.021,0.925,0.361,0.95,0.862l9.332,191.656c0.024,0.5-0.362,0.926-0.862,0.95
				C310.109,286.142,310.093,286.143,310.078,286.143z"/>
			<path style="fill:#FFFFFF;" d="M235.988,286.143c-0.48,0-0.881-0.378-0.905-0.863l-9.331-191.656
				c-0.024-0.5,0.361-0.926,0.862-0.95c0.494-0.021,0.925,0.361,0.95,0.862l9.331,191.656c0.024,0.5-0.362,0.926-0.862,0.95
				C236.018,286.142,236.002,286.143,235.988,286.143z"/>
			<path style="fill:#FFFFFF;" d="M366.645,113.374H88.511c-0.501,0-0.907-0.406-0.907-0.907s0.406-0.907,0.907-0.907h278.134
				c0.501,0,0.907,0.406,0.907,0.907S367.146,113.374,366.645,113.374z"/>
			<path style="fill:#FFFFFF;" d="M96.889,102.171c1.352-0.529,2.804-0.428,4.054,0.338c1.042,0.638,1.603,2.043,2.866,2.299
				c1.434,0.29,1.871-0.882,2.879-1.55c1.28-0.848,3.234-0.469,4.663-0.361c3.793,0.286,7.583,0.613,11.368,0.982
				c3.735,0.363,7.52,1.003,11.249,0.27c1.287-0.253,0.742-2.22-0.542-1.968c-3.819,0.75-7.87-0.074-11.695-0.438
				c-3.845-0.367-7.696-0.723-11.551-0.973c-1.31-0.085-2.684-0.1-3.913,0.424c-0.616,0.263-1.096,0.64-1.559,1.117
				c-0.156,0.161-0.321,0.487-0.575,0.444c-0.162-0.027-0.554-0.626-0.657-0.741c-1.757-1.969-4.644-2.783-7.13-1.811
				C95.137,100.676,95.664,102.65,96.889,102.171L96.889,102.171z"/>
			<path style="fill:#FFFFFF;" d="M164.409,105.172c1.518-1.147,3.806-2.661,5.065-0.382c0.629,1.139,1.236,2.511,2.805,2.271
				c1.506-0.23,2.612-2.188,3.714-3.115c1.642-1.382,3.299-1.796,5.213-0.673c1.645,0.965,3.087,1.96,5.025,2.231
				c1.781,0.249,3.426-0.107,5.06-0.815c0.936-0.406,1.884-0.91,2.926-0.946c1.085-0.037,2.179,0.341,3.263,0.431
				c2.325,0.194,4.662-0.247,6.938-0.67c1.29-0.239,0.743-2.206-0.542-1.968c-2.523,0.468-4.986,0.849-7.543,0.434
				c-0.943-0.153-1.829-0.341-2.791-0.205c-0.896,0.127-1.713,0.469-2.535,0.829c-2.095,0.916-4.116,1.355-6.308,0.387
				c-1.695-0.748-3.018-2.139-4.915-2.418c-1.612-0.238-3.148,0.366-4.437,1.307c-0.739,0.54-1.406,1.166-2.04,1.823
				c-0.29,0.3-0.566,0.713-0.898,0.962c-0.493,0.37-0.541,0.332-0.834-0.214c-0.735-1.372-1.431-2.49-3.072-2.819
				c-1.948-0.39-3.632,0.662-5.121,1.787C162.344,104.192,163.36,105.964,164.409,105.172L164.409,105.172z"/>
			<path style="fill:#FFFFFF;" d="M241.035,104.608c1.188-0.561,2.395-1.071,3.632-1.513c1.179-0.421,2.546-1.023,3.812-1.046
				c1.149-0.021,2.164,0.664,3.263,0.897c0.871,0.185,1.713,0.115,2.523-0.258c0.719-0.331,1.452-1.137,2.24-1.264
				c0.894-0.144,1.639,0.896,2.401,1.25c0.784,0.364,1.627,0.378,2.47,0.283c0.773-0.087,1.909-0.489,2.624-0.029
				c0.666,0.428,0.867,1.36,1.588,1.791c0.626,0.375,1.405,0.407,2.058,0.084c0.721-0.356,1.116-1.029,1.712-1.529
				c0.88-0.737,1.906-0.328,2.911-0.089c0.93,0.221,1.831,0.389,2.787,0.262c1.054-0.14,2.27-0.808,3.338-0.596
				c1.751,0.348,2.663,2.21,4.625,1.25c1.179-0.577,0.146-2.338-1.03-1.762c-0.496,0.243-1.947-1.037-2.43-1.24
				c-0.88-0.369-1.774-0.351-2.697-0.165c-1.138,0.229-2.123,0.648-3.306,0.453c-0.953-0.157-1.865-0.519-2.837-0.577
				c-0.868-0.052-1.673,0.14-2.376,0.66c-0.395,0.293-1.236,1.577-1.743,1.472c-0.233-0.048-0.597-0.812-0.745-0.998
				c-0.237-0.299-0.497-0.576-0.826-0.779c-0.697-0.429-1.516-0.502-2.314-0.434c-0.866,0.074-1.854,0.429-2.715,0.183
				c-0.865-0.248-1.431-1.089-2.289-1.387c-1.938-0.673-2.871,0.921-4.528,1.407c-1.074,0.315-2.175-0.442-3.183-0.714
				c-1.084-0.293-2.115-0.216-3.196,0.052c-2.342,0.582-4.624,1.544-6.801,2.571C238.818,103.406,239.852,105.166,241.035,104.608
				L241.035,104.608z"/>
			<path style="fill:#FFFFFF;" d="M309.154,104.064c1.815-0.518,3.63-1.036,5.446-1.554c0.862-0.246,1.729-0.55,2.604-0.743
				c0.993-0.219,1.59,0.12,2.477,0.452c1.451,0.544,3.044,0.537,4.572,0.523c1.815-0.017,3.63-0.045,5.445-0.068
				c7.424-0.092,14.849-0.184,22.273-0.276c1.312-0.016,1.316-2.057,0-2.041c-7.589,0.094-15.179,0.188-22.768,0.282
				c-1.789,0.022-3.579,0.06-5.368,0.066c-0.879,0.003-1.78,0.012-2.645-0.171c-0.819-0.172-1.508-0.632-2.304-0.852
				c-1.486-0.41-3.182,0.389-4.591,0.791c-1.894,0.541-3.788,1.081-5.682,1.622C307.351,102.456,307.887,104.426,309.154,104.064
				L309.154,104.064z"/>
		</g>
		<g>
			<path style="opacity:0.3;fill:#407BFF;" d="M163.552,183.403l-48.294,2.604c-2.784-16.697-3.954-35.372-3.851-49.203
				l47.183-1.822C159.133,150.061,160.994,166.398,163.552,183.403z"/>
			<path style="fill:#407BFF;" d="M164.654,181.186l-48.294,2.604c-2.784-16.697-4.522-32.879-4.962-48.42l48.294-2.605
				C160.235,147.844,162.095,164.181,164.654,181.186z"/>
			<polygon style="opacity:0.3;fill:#407BFF;" points="224.368,201.153 175.824,198.225 175.825,150.097 224.37,153.025 			"/>
			<polygon style="fill:#FFFFFF;" points="223.732,200.066 175.187,197.139 175.759,148.736 224.303,151.665 			"/>
			<path style="opacity:0.3;fill:#407BFF;" d="M270.655,191.717l48.525-1.587c1.204-11.169-4.076-39.243-6.99-49.223l-47.074,2.99
				C269.137,161.612,270.866,178.271,270.655,191.717z"/>
			<path style="fill:#407BFF;" d="M271.485,190.13l46.955-2.416c1.204-11.169-1.912-29.458-5.42-48.394l-48.244,3.064
				C268.796,160.099,271.696,176.684,271.485,190.13z"/>
			<g>
				<path style="opacity:0.3;fill:#407BFF;" d="M137.556,266.111l49.547-5.035c-0.129-11.297-5.939-37.533-9.384-47.366
					l-46.717,5.551C135.97,236.779,136.178,252.656,137.556,266.111z"/>
				<path style="fill:#407BFF;" d="M138.727,265.423l47.764-5.191c0.591-11.247-3.509-29.388-8.034-48.156l-47.879,5.689
					C134.457,235.331,138.206,251.95,138.727,265.423z"/>
			</g>
			<path style="opacity:0.3;fill:#407BFF;" d="M257.967,212.214l48.22,9.043c3.628-10.519,4.552-38.772,3.857-49.041l-47.095-7.373
				C263.046,182.821,261.113,199.28,257.967,212.214z"/>
			<path style="fill:#FFFFFF;" d="M259.132,210.863l46.853,7.901c3.628-10.519,4.549-28.854,5.224-47.898l-48.266-7.556
				C263.04,181.286,262.278,197.928,259.132,210.863z"/>
		</g>
	</g>
</g>
<g id="Character_1_">
	<g>
		<path style="fill:#B65B52;" d="M372.636,167.277c0.959,1.008,1.768,1.901,2.595,2.883c0.822,0.961,1.625,1.931,2.414,2.915
			c1.572,1.972,3.078,3.999,4.501,6.103c1.411,2.117,2.798,4.253,4.028,6.533c1.251,2.264,2.425,4.595,3.386,7.105l0.369,0.932
			l0.093,0.236l0.116,0.343l0.22,0.688c0.116,0.435,0.213,0.857,0.301,1.275c0.065,0.396,0.14,0.804,0.187,1.188
			c0.181,1.539,0.193,2.943,0.149,4.3c-0.081,2.71-0.448,5.25-0.869,7.747c-0.902,4.991-2.192,9.732-3.864,14.466l-5.266-1.207
			c0.391-4.705,0.75-9.504,0.881-14.123c0.079-2.308,0.044-4.598-0.109-6.721c-0.08-1.059-0.225-2.072-0.425-2.92l-0.153-0.592
			l-0.167-0.476l-0.57-1.155c-1.915-3.873-4.45-7.682-7.152-11.374c-1.358-1.848-2.786-3.664-4.231-5.467
			c-0.72-0.903-1.456-1.796-2.202-2.673l-2.198-2.555L372.636,167.277z"/>
		<path style="fill:#B55B52;" d="M381.641,220.809l-3.647,3.914l7.115,4.197c0,0,2.461-3.274,1.497-6.619L381.641,220.809z"/>
		<polygon style="fill:#B55B52;" points="373.259,230.504 380.19,232.934 385.11,228.921 377.994,224.723 		"/>
		<path style="fill:#407BFF;" d="M393.223,246.518l-45.771-9.983c2.443-16.058,5.705-31.375,9.983-45.771l45.772,9.983
			C399.164,214.743,395.969,230.234,393.223,246.518z"/>
		
			<rect x="347.86" y="195.306" transform="matrix(0.9584 0.2854 -0.2854 0.9584 77.8709 -96.87)" style="fill:#FFFFFF;" width="46.847" height="46.847"/>
		<path style="fill:#263238;" d="M346.702,137.281c-0.031,0.58-0.363,1.037-0.742,1.022c-0.379-0.015-0.661-0.498-0.63-1.078
			c0.031-0.58,0.363-1.037,0.742-1.022C346.451,136.219,346.733,136.701,346.702,137.281z"/>
		<path style="fill:#A02724;" d="M346.392,138.321c0,0-1.497,3.292-3.034,4.847c0.974,0.999,2.741,0.632,2.741,0.632
			L346.392,138.321z"/>
		<path style="fill:#263238;" d="M348.996,134.147c0.082-0.013,0.16-0.056,0.216-0.126c0.118-0.148,0.095-0.362-0.052-0.479
			c-1.469-1.163-2.969-0.673-3.034-0.652c-0.179,0.061-0.277,0.254-0.218,0.433c0.059,0.178,0.253,0.272,0.428,0.213l0,0
			c0.049-0.016,1.225-0.386,2.397,0.542C348.809,134.14,348.905,134.162,348.996,134.147z"/>
		<path style="fill:#B55B52;" d="M364.101,145.604c-1.099,5.264-1.816,12.557,1.822,16.069c0,0-1.508,5.34-11.289,5.34
			c-10.755,0-5.114-4.686-5.114-4.686c4.488-1.388,4.515-6.48,3.544-10.57L364.101,145.604z"/>
		<path style="fill:#407BFF;" d="M341.329,409.259c-0.923,0-1.814-0.127-2.107-0.542c-0.103-0.145-0.182-0.392,0.024-0.745
			c0.115-0.198,0.299-0.332,0.545-0.399c1.202-0.326,3.698,1.107,3.804,1.169c0.061,0.035,0.093,0.105,0.081,0.175
			c-0.012,0.07-0.067,0.126-0.137,0.14C343.078,409.149,342.19,409.259,341.329,409.259z M340.206,407.864
			c-0.12,0-0.231,0.012-0.33,0.039c-0.158,0.043-0.268,0.121-0.337,0.238c-0.123,0.212-0.081,0.317-0.038,0.377
			c0.329,0.465,2.147,0.476,3.488,0.287C342.326,408.462,341.047,407.864,340.206,407.864z"/>
		<path style="fill:#407BFF;" d="M343.505,409.061c-0.024,0-0.047-0.005-0.07-0.015c-0.863-0.39-2.564-1.946-2.422-2.759
			c0.034-0.191,0.172-0.429,0.641-0.476c0.35-0.036,0.665,0.063,0.941,0.292c0.906,0.752,1.075,2.69,1.082,2.772
			c0.005,0.06-0.023,0.119-0.072,0.154C343.575,409.05,343.54,409.061,343.505,409.061z M341.787,406.144
			c-0.033,0-0.068,0.002-0.102,0.005c-0.307,0.031-0.328,0.152-0.335,0.192c-0.085,0.488,1.068,1.711,1.947,2.244
			c-0.085-0.566-0.326-1.726-0.921-2.219C342.197,406.217,342.003,406.144,341.787,406.144z"/>
		<polygon style="fill:#B55B52;" points="351.72,408.89 344.525,408.89 344.022,392.227 351.217,392.227 		"/>
		<path style="fill:#263238;" d="M344.282,408.057h7.858c0.294,0,0.546,0.204,0.606,0.491l1.339,6.396
			c0.139,0.663-0.373,1.291-1.051,1.28c-2.834-0.048-6.928-0.214-10.49-0.214c-4.166,0-6.794,0.227-11.679,0.227
			c-2.954,0-3.735-2.986-2.496-3.257c5.645-1.231,9.27-1.363,14.172-4.362C343.075,408.292,343.661,408.057,344.282,408.057z"/>
		<g>
			<path style="fill:#407BFF;" d="M368.815,162.534c6.899,0.074,16.543,17.579,16.543,17.579l-10.693,10.913
				c0,0-7.008-3.264-10.901-11.228C359.684,171.454,361.761,162.458,368.815,162.534z"/>
			<path style="opacity:0.3;" d="M368.815,162.534c6.899,0.074,16.543,17.579,16.543,17.579l-10.693,10.913
				c0,0-7.008-3.264-10.901-11.228C359.684,171.454,361.761,162.458,368.815,162.534z"/>
		</g>
		<g>
			<path style="fill:#407BFF;" d="M336.078,170.513c-1.57,7.772-2.696,23.736,1.169,55.351h38.486
				c0.296-5.123-2.179-27.473,1.106-51.471c0.887-6.476-3.967-12.337-10.494-12.697c-0.141-0.008-0.281-0.015-0.422-0.022
				c-4.914-0.237-12.032-0.394-16.36,0.001c-1.807,0.165-3.582,0.425-5.164,0.705C340.22,163.117,336.919,166.352,336.078,170.513z"
				/>
			<path style="opacity:0.2;" d="M336.078,170.513c-1.57,7.772-2.696,23.736,1.169,55.351h38.486
				c0.296-5.123-2.179-27.473,1.106-51.471c0.887-6.476-3.967-12.337-10.494-12.697c-0.141-0.008-0.281-0.015-0.422-0.022
				c-4.914-0.237-12.032-0.394-16.36,0.001c-1.807,0.165-3.582,0.425-5.164,0.705C340.22,163.117,336.919,166.352,336.078,170.513z"
				/>
		</g>
		<path style="opacity:0.2;" d="M344.935,186.521l-5.181-3.517c-5.003,1.621-5.267,6.481-4.989,13.503
			C339.047,195.427,343.97,191.352,344.935,186.521z"/>
		<g>
			<polygon style="opacity:0.2;" points="344.023,392.232 344.281,400.821 351.479,400.821 351.221,392.232 			"/>
		</g>
		<path style="fill:#B55B52;" d="M366.099,136.837c-0.818,7.104-0.935,11.299-4.726,14.808c-5.701,5.279-14.314,1.661-15.632-5.517
			c-1.187-6.461,0.349-16.993,7.468-19.544C360.223,124.07,366.916,129.733,366.099,136.837z"/>
		<path style="fill:#263238;" d="M350.941,139.875c-2.208,0.5-3.208-4.708-0.958-6.708c-2-1-4.893-2.448-5.858-4.625
			c-1.108-2.5,1.899-5.5,4.483-5.375c-0.833-1.667,1.016-6.127,6.281-4.445c5.389,1.722,7.76,4.278,7.76,4.278
			s1.74-5.778,5.406-1.111c3.258,4.146,1.969,7.688,1.969,7.688s4.833,4.59,3.583,8.006c-1.25,3.417-4,4.625-4,4.625
			s0.731,8.029-5.149,9.958c-5.88,1.93-9.584-2.042-9.092-4.333C351.566,148.042,347.691,142.958,350.941,139.875z"/>
		<path style="fill:#B55B52;" d="M353.496,139.352c-0.242,1.852-1.231,3.552-2.354,4.635c-1.69,1.63-3.252,0.465-3.384-1.647
			c-0.118-1.901,0.618-5.039,2.603-5.878C352.316,135.637,353.772,137.234,353.496,139.352z"/>
		<polygon style="fill:#B55B52;" points="412.798,399.815 406.404,402.109 400.041,385.641 406.435,383.347 		"/>
		<path style="fill:#407BFF;" d="M403.564,403.153c-0.726,0.571-1.504,1.021-1.991,0.877c-0.171-0.051-0.386-0.196-0.442-0.6
			c-0.032-0.227,0.03-0.446,0.182-0.65c0.743-0.999,3.591-1.416,3.712-1.433c0.07-0.01,0.138,0.025,0.172,0.088
			c0.034,0.063,0.025,0.14-0.021,0.194C404.871,401.984,404.24,402.621,403.564,403.153z M401.818,402.75
			c-0.094,0.074-0.174,0.153-0.235,0.235c-0.098,0.131-0.136,0.261-0.117,0.396c0.034,0.242,0.132,0.299,0.203,0.32
			c0.546,0.162,1.982-0.954,2.918-1.931C403.854,401.91,402.479,402.231,401.818,402.75z"/>
		<path style="fill:#407BFF;" d="M405.151,401.651c-0.019,0.015-0.04,0.025-0.064,0.031c-0.92,0.228-3.218,0.056-3.61-0.671
			c-0.092-0.171-0.13-0.443,0.209-0.771c0.253-0.244,0.562-0.361,0.92-0.352c1.177,0.031,2.508,1.45,2.564,1.51
			c0.041,0.044,0.056,0.108,0.039,0.166C405.199,401.599,405.179,401.629,405.151,401.651z M401.997,400.421
			c-0.026,0.021-0.052,0.043-0.077,0.068c-0.222,0.214-0.164,0.322-0.145,0.358c0.235,0.436,1.897,0.685,2.918,0.559
			c-0.417-0.392-1.324-1.155-2.096-1.174C402.365,400.225,402.167,400.287,401.997,400.421z"/>
		<path style="fill:#263238;" d="M405.18,400.351l6.176-4.858c0.231-0.182,0.565-0.185,0.803-0.007l5.308,3.962
			c0.55,0.411,0.566,1.198,0.025,1.609c-2.259,1.716-6.618,5.23-9.281,7.596c-3.114,2.767-0.689,0.917-4.341,4.162
			c-2.208,1.962-4.909,0.368-4.174-0.647c3.346-4.621,4.059-7.372,4.49-10.321C404.273,401.247,404.692,400.735,405.18,400.351z"/>
		<path style="fill:#B55B52;" d="M300.072,188.367l-2.811-6.046l-7.654,4.733c0,0,2.521,5.15,7.743,4.583L300.072,188.367z"/>
		<path style="fill:#B55B52;" d="M290.066,180.678l-1.707,1.472c-1.108,0.955-1.144,2.659-0.077,3.66l1.326,1.244l7.654-4.733
			l-4.594-2.029C291.799,179.907,290.786,180.058,290.066,180.678z"/>
		<g>
			<polygon style="opacity:0.2;" points="400.044,385.645 403.323,394.134 409.72,391.839 406.441,383.35 			"/>
		</g>
		<path style="fill:#263238;" d="M350.899,225.864c0,0,12.007,55.269,16.6,75.785c5.029,22.466,31.492,90.769,31.492,90.769
			l11.617-6.297c0,0-12.428-53.585-21.511-82.818c-3.294-24.164-13.365-77.438-13.365-77.438H350.899z"/>
		<path style="fill:#407BFF;" d="M395.718,389.014c-0.055,0.02,2.385,4.505,2.385,4.505l14.382-5.402l-1.144-4.39L395.718,389.014z"
			/>
		<path style="opacity:0.3;" d="M357.961,251.479c9.058,1.207,10.081,33.124,9.913,51.855c-0.125-0.593-0.261-1.156-0.377-1.688
			c-2.506-11.201-7.221-32.786-10.99-50.064C356.949,251.438,357.44,251.407,357.961,251.479z"/>
		<path style="fill:#263238;" d="M337.247,225.864c0,0-3.059,53.798-2.557,75.74c0.521,22.823,6.931,97.553,6.931,97.553h12.189
			c0,0,1.992-73.397,2.822-95.811c0.904-24.436,5.913-77.482,5.913-77.482H337.247z"/>
		<path style="fill:#407BFF;" d="M339.338,394.302c-0.056,0,0.623,5.06,0.623,5.06h14.827l0.459-4.516L339.338,394.302z"/>
		<path style="fill:#B65B52;" d="M347.622,174.235c-1.655,2.981-3.552,5.803-5.547,8.525c-2.022,2.704-4.204,5.26-6.496,7.687
			c-2.283,2.435-4.686,4.731-7.154,6.911c-2.432,2.184-5.056,4.266-7.375,6.175l-0.823,0.677l-0.673,0.242
			c-1.792,0.645-3.614,0.757-5.173,0.573c-1.571-0.179-2.942-0.589-4.178-1.078c-2.469-0.993-4.456-2.323-6.297-3.71
			c-1.823-1.409-3.464-2.921-4.992-4.512c-0.763-0.795-1.484-1.625-2.193-2.458c-0.719-0.841-1.374-1.664-2.06-2.616l3.944-3.692
			c1.539,1.143,3.185,2.379,4.83,3.444c1.638,1.095,3.293,2.122,4.945,2.987c1.636,0.872,3.307,1.579,4.769,1.94
			c0.726,0.185,1.392,0.258,1.894,0.229c0.508-0.034,0.802-0.141,0.949-0.255l-1.495,0.919c2.441-2.286,4.649-4.319,6.85-6.472
			c2.178-2.142,4.268-4.333,6.262-6.585c1.978-2.265,3.886-4.569,5.642-6.965c1.775-2.382,3.368-4.867,4.899-7.374L347.622,174.235z
			"/>
		<g>
			<path style="fill:#407BFF;" d="M352.736,172.721c-0.686,10.347-12.555,19.036-12.555,19.036l-15.405-8.447
				c0,0,5.675-12.194,13.319-17.95C347.536,158.25,353.258,164.845,352.736,172.721z"/>
			<path style="opacity:0.2;" d="M352.736,172.721c-0.686,10.347-12.555,19.036-12.555,19.036l-15.405-8.447
				c0,0,5.675-12.194,13.319-17.95C347.536,158.25,353.258,164.845,352.736,172.721z"/>
		</g>
	</g>
</g>
</svg>
