<?xml version="1.0" encoding="utf-8"?>
<!-- Generator: Adobe Illustrator 27.5.0, SVG Export Plug-In . SVG Version: 6.00 Build 0)  -->
<svg version="1.1" xmlns="http://www.w3.org/2000/svg" xmlns:xlink="http://www.w3.org/1999/xlink" x="0px" y="0px"
	 viewBox="0 0 3710 3710" style="enable-background:new 0 0 3710 3710;" xml:space="preserve">
<g id="Background">
	<g>
		<g>
			<rect style="fill:#FFFFFF;" width="3710" height="3710"/>
		</g>
	</g>
</g>
<g id="Illustration">
	<g>
		<linearGradient id="SVGID_1_" gradientUnits="userSpaceOnUse" x1="3429.939" y1="3217.9883" x2="1425.1227" y2="1463.7754">
			<stop  offset="0" style="stop-color:#DAE3FE"/>
			<stop  offset="1" style="stop-color:#E9EFFD"/>
		</linearGradient>
		<path style="fill:url(#SVGID_1_);" d="M3089.225,2306.947c-259.103,610.083-949.293,951.856-1547.828,859.664
			c-97.394-15.002-364.401-59.689-600.799-270.507c-455.082-405.841-552.405-1209.458-185.304-1775.787
			c267.185-412.188,746.142-645.843,1201.244-634.155c98.029,2.517,473.718,18.033,803.883,290.28
			c48.495,39.988,155.455,135.01,251.852,285.756C3238.629,1416.177,3258.085,1909.348,3089.225,2306.947z"/>
		<g>
			<path style="fill:#7D97F4;" d="M1058.302,459.935c-77.415,111.351-501.464,777.746,52.394,1287.993
				c0,0,392.103-366.848-32.56-1286.29C1074.422,453.595,1063.36,452.661,1058.302,459.935z"/>
			<path style="opacity:0.48;fill:#FFFFFF;" d="M1066.765,597.006c-8.632,42.378-16.397,84.987-23.789,127.628
				c-7.373,42.652-14.254,85.388-20.633,128.196c-12.762,85.614-23.612,171.515-31.803,257.656
				c-8.125,86.133-13.749,172.535-14.636,258.968c-0.581,43.211,0.405,86.424,3.037,129.491
				c2.694,43.05,7.091,86.016,14.863,128.323l0.005,0.024c0.555,3.023-1.445,5.924-4.468,6.479
				c-3.023,0.555-5.923-1.445-6.479-4.468l-0.006-0.034c-7.618-42.958-11.777-86.336-14.225-129.715
				c-2.383-43.391-3.102-86.837-2.252-130.223c1.426-86.789,7.603-173.367,16.276-259.618
				c8.74-86.255,20.137-172.203,33.442-257.834c6.652-42.817,13.804-85.553,21.447-128.201c7.665-42.649,15.693-85.21,24.61-127.648
				c0.268-1.274,1.517-2.09,2.791-1.823c1.269,0.267,2.083,1.508,1.825,2.777L1066.765,597.006z"/>
		</g>
		<g>
			<path style="fill:#BDD0FB;" d="M550.45,564.17c-48.403,164.761-290.92,1135.077,578.73,1526.205
				c0,0,324.1-597.694-554.223-1532.102C567.274,550.098,553.612,553.406,550.45,564.17z"/>
			<path style="opacity:0.48;fill:#FFFFFF;" d="M614.895,725.641c3.953,57.502,10.315,114.934,17.802,172.139
				c7.537,57.215,16.456,114.248,26.787,171.019c20.704,113.519,46.783,226.112,80.145,336.528
				c33.467,110.317,74.091,218.684,126.045,321.502c12.9,25.738,26.776,50.967,41.278,75.808
				c14.47,24.864,29.889,49.162,46.207,72.821c32.445,47.446,68.984,92.062,109.551,132.606l0.035,0.034
				c2.174,2.173,2.175,5.696,0.002,7.87c-2.173,2.174-5.696,2.175-7.87,0.002l-0.018-0.018
				c-40.956-41.309-77.693-86.62-110.222-134.661c-16.361-23.958-31.796-48.536-46.26-73.655
				c-14.497-25.098-28.351-50.569-41.212-76.526c-51.797-103.703-92.063-212.693-125.123-323.508
				c-32.952-110.911-58.561-223.868-78.776-337.688c-10.087-56.921-18.756-114.087-26.039-171.427
				c-7.235-57.354-13.335-114.82-17.038-172.581c-0.083-1.299,0.903-2.42,2.202-2.503c1.299-0.083,2.42,0.903,2.503,2.202
				L614.895,725.641z"/>
		</g>
		<g>
			<path style="fill:#91B3FA;" d="M3224.137,2959.705H688.081c-14.04,0-25.421-11.381-25.421-25.421V1164.663
				c0-14.04,11.381-25.421,25.421-25.421h2536.056c14.04,0,25.421,11.381,25.421,25.421v1769.621
				C3249.558,2948.324,3238.177,2959.705,3224.137,2959.705z"/>
			<path style="fill:#FFFFFF;" d="M3114.977,2868.544H789.882c-31.881,0-57.818-25.938-57.818-57.818V1288.277
				c0-31.881,25.937-57.818,57.818-57.818h2325.095c31.881,0,57.818,25.937,57.818,57.818v1522.449
				C3172.795,2842.607,3146.857,2868.544,3114.977,2868.544z M789.882,1237.203c-28.163,0-51.075,22.911-51.075,51.075v1522.449
				c0,28.163,22.911,51.075,51.075,51.075h2325.095c28.163,0,51.075-22.911,51.075-51.075V1288.277
				c0-28.163-22.911-51.075-51.075-51.075H789.882z"/>
			
				<rect x="1867.982" y="376.327" transform="matrix(0.0028 -1 1 0.0028 348.1269 3384.999)" style="fill:#FFFFFF;" width="6.744" height="2283.233"/>
			
				<rect x="1229.744" y="1236.192" transform="matrix(1 -0.0029 0.0029 1 -5.936 3.5833)" style="fill:#FFFFFF;" width="6.744" height="1626.597"/>
			
				<rect x="2675.174" y="1231.042" transform="matrix(1 -0.0029 0.0029 1 -5.915 7.7734)" style="fill:#FFFFFF;" width="6.744" height="1626.597"/>
			
				<rect x="2204.29" y="1231.042" transform="matrix(1 -0.0029 0.0029 1 -5.917 6.4083)" style="fill:#FFFFFF;" width="6.744" height="1626.597"/>
			
				<rect x="1715.543" y="1231.042" transform="matrix(1 -0.0029 0.0029 1 -5.9191 4.9915)" style="fill:#FFFFFF;" width="6.744" height="1626.597"/>
			<g style="opacity:0.56;">
				<path style="fill:#FFFFFF;" d="M1199.984,1651.881H792.963c-1.764,0-3.207-1.443-3.207-3.207v-46.815
					c0-1.764,1.443-3.207,3.207-3.207h407.021c1.764,0,3.207,1.443,3.207,3.207v46.815
					C1203.19,1650.438,1201.747,1651.881,1199.984,1651.881z"/>
				<path style="fill:#FFFFFF;" d="M1199.984,1808.332H792.963c-1.764,0-3.207-1.443-3.207-3.207v-46.815
					c0-1.764,1.443-3.206,3.207-3.206h407.021c1.764,0,3.207,1.443,3.207,3.206v46.815
					C1203.19,1806.889,1201.747,1808.332,1199.984,1808.332z"/>
				<path style="fill:#FFFFFF;" d="M1199.984,1974.075H792.963c-1.764,0-3.207-1.443-3.207-3.207v-46.815
					c0-1.764,1.443-3.207,3.207-3.207h407.021c1.764,0,3.207,1.443,3.207,3.207v46.815
					C1203.19,1972.632,1201.747,1974.075,1199.984,1974.075z"/>
				<path style="fill:#FFFFFF;" d="M1199.984,2486.749H792.963c-1.764,0-3.207-1.443-3.207-3.207v-46.815
					c0-1.763,1.443-3.207,3.207-3.207h407.021c1.764,0,3.207,1.443,3.207,3.207v46.815
					C1203.19,2485.306,1201.747,2486.749,1199.984,2486.749z"/>
				
					<linearGradient id="SVGID_00000016793869377048172990000013982347354783126452_" gradientUnits="userSpaceOnUse" x1="806.6802" y1="2174.9949" x2="1220.1146" y2="2174.9949">
					<stop  offset="0" style="stop-color:#4F52FF"/>
					<stop  offset="1" style="stop-color:#4042E2"/>
				</linearGradient>
				<path style="fill:url(#SVGID_00000016793869377048172990000013982347354783126452_);" d="M1216.908,2201.609H809.887
					c-1.764,0-3.207-1.443-3.207-3.207v-46.815c0-1.764,1.443-3.207,3.207-3.207h407.021c1.764,0,3.207,1.443,3.207,3.207v46.815
					C1220.115,2200.166,1218.672,2201.609,1216.908,2201.609z"/>
			</g>
			<g style="opacity:0.56;">
				<path style="fill:#FFFFFF;" d="M1679.525,1657.15h-407.021c-1.764,0-3.207-1.443-3.207-3.206v-46.815
					c0-1.764,1.443-3.207,3.207-3.207h407.021c1.764,0,3.207,1.443,3.207,3.207v46.815
					C1682.731,1655.707,1681.288,1657.15,1679.525,1657.15z"/>
				<path style="fill:#FFFFFF;" d="M1679.525,1813.601h-407.021c-1.764,0-3.207-1.443-3.207-3.207v-46.815
					c0-1.764,1.443-3.207,3.207-3.207h407.021c1.764,0,3.207,1.443,3.207,3.207v46.815
					C1682.731,1812.158,1681.288,1813.601,1679.525,1813.601z"/>
				<path style="fill:#FFFFFF;" d="M1679.525,2169.824h-407.021c-1.764,0-3.207-1.443-3.207-3.206v-46.815
					c0-1.764,1.443-3.207,3.207-3.207h407.021c1.764,0,3.207,1.443,3.207,3.207v46.815
					C1682.731,2168.381,1681.288,2169.824,1679.525,2169.824z"/>
				
					<linearGradient id="SVGID_00000092441215233743426860000004786598390728924288_" gradientUnits="userSpaceOnUse" x1="1269.2971" y1="2299.6611" x2="1682.7314" y2="2299.6611">
					<stop  offset="0" style="stop-color:#4F52FF"/>
					<stop  offset="1" style="stop-color:#4042E2"/>
				</linearGradient>
				<path style="fill:url(#SVGID_00000092441215233743426860000004786598390728924288_);" d="M1679.525,2326.275h-407.021
					c-1.764,0-3.207-1.443-3.207-3.207v-46.815c0-1.764,1.443-3.207,3.207-3.207h407.021c1.764,0,3.207,1.443,3.207,3.207v46.815
					C1682.731,2324.832,1681.288,2326.275,1679.525,2326.275z"/>
				<path style="fill:#FFFFFF;" d="M1679.525,2492.018h-407.021c-1.764,0-3.207-1.443-3.207-3.207v-46.815
					c0-1.764,1.443-3.207,3.207-3.207h407.021c1.764,0,3.207,1.443,3.207,3.207v46.815
					C1682.731,2490.575,1681.288,2492.018,1679.525,2492.018z"/>
			</g>
			<g style="opacity:0.56;">
				<path style="fill:#FFFFFF;" d="M2170.931,1657.15H1763.91c-1.764,0-3.207-1.443-3.207-3.206v-46.815
					c0-1.764,1.443-3.207,3.207-3.207h407.021c1.764,0,3.207,1.443,3.207,3.207v46.815
					C2174.138,1655.707,2172.695,1657.15,2170.931,1657.15z"/>
				
					<linearGradient id="SVGID_00000172429528583832260480000007549309152065470139_" gradientUnits="userSpaceOnUse" x1="1760.7036" y1="1786.9866" x2="2174.1379" y2="1786.9866">
					<stop  offset="0" style="stop-color:#4F52FF"/>
					<stop  offset="1" style="stop-color:#4042E2"/>
				</linearGradient>
				<path style="fill:url(#SVGID_00000172429528583832260480000007549309152065470139_);" d="M2170.931,1813.601H1763.91
					c-1.764,0-3.207-1.443-3.207-3.207v-46.815c0-1.764,1.443-3.207,3.207-3.207h407.021c1.764,0,3.207,1.443,3.207,3.207v46.815
					C2174.138,1812.158,2172.695,1813.601,2170.931,1813.601z"/>
				<path style="fill:#FFFFFF;" d="M2170.931,1979.344H1763.91c-1.764,0-3.207-1.443-3.207-3.207v-46.815
					c0-1.764,1.443-3.207,3.207-3.207h407.021c1.764,0,3.207,1.443,3.207,3.207v46.815
					C2174.138,1977.901,2172.695,1979.344,2170.931,1979.344z"/>
				<path style="fill:#FFFFFF;" d="M2170.931,2326.275H1763.91c-1.764,0-3.207-1.443-3.207-3.207v-46.815
					c0-1.764,1.443-3.207,3.207-3.207h407.021c1.764,0,3.207,1.443,3.207,3.207v46.815
					C2174.138,2324.832,2172.695,2326.275,2170.931,2326.275z"/>
				<path style="fill:#FFFFFF;" d="M2170.931,2492.018H1763.91c-1.764,0-3.207-1.443-3.207-3.207v-46.815
					c0-1.764,1.443-3.207,3.207-3.207h407.021c1.764,0,3.207,1.443,3.207,3.207v46.815
					C2174.138,2490.575,2172.695,2492.018,2170.931,2492.018z"/>
			</g>
			<g style="opacity:0.56;">
				<path style="fill:#FFFFFF;" d="M2643.702,1667.189h-407.021c-1.764,0-3.207-1.443-3.207-3.206v-46.815
					c0-1.764,1.443-3.206,3.207-3.206h407.021c1.764,0,3.207,1.443,3.207,3.206v46.815
					C2646.909,1665.747,2645.466,1667.189,2643.702,1667.189z"/>
				
					<linearGradient id="SVGID_00000085246022822013658350000008283165245227820951_" gradientUnits="userSpaceOnUse" x1="2233.4744" y1="1962.7692" x2="2646.9087" y2="1962.7692">
					<stop  offset="0" style="stop-color:#4F52FF"/>
					<stop  offset="1" style="stop-color:#4042E2"/>
				</linearGradient>
				<path style="fill:url(#SVGID_00000085246022822013658350000008283165245227820951_);" d="M2643.702,1989.383h-407.021
					c-1.764,0-3.207-1.443-3.207-3.206v-46.815c0-1.764,1.443-3.207,3.207-3.207h407.021c1.764,0,3.207,1.443,3.207,3.207v46.815
					C2646.909,1987.94,2645.466,1989.383,2643.702,1989.383z"/>
				<path style="fill:#FFFFFF;" d="M2643.702,2179.864h-407.021c-1.764,0-3.207-1.443-3.207-3.207v-46.815
					c0-1.764,1.443-3.207,3.207-3.207h407.021c1.764,0,3.207,1.443,3.207,3.207v46.815
					C2646.909,2178.421,2645.466,2179.864,2643.702,2179.864z"/>
				<path style="fill:#FFFFFF;" d="M2643.702,2336.315h-407.021c-1.764,0-3.207-1.443-3.207-3.207v-46.815
					c0-1.763,1.443-3.207,3.207-3.207h407.021c1.764,0,3.207,1.443,3.207,3.207v46.815
					C2646.909,2334.872,2645.466,2336.315,2643.702,2336.315z"/>
				<path style="fill:#FFFFFF;" d="M2643.702,2502.058h-407.021c-1.764,0-3.207-1.443-3.207-3.206v-46.815
					c0-1.763,1.443-3.207,3.207-3.207h407.021c1.764,0,3.207,1.443,3.207,3.207v46.815
					C2646.909,2500.615,2645.466,2502.058,2643.702,2502.058z"/>
			</g>
			<g style="opacity:0.56;">
				
					<linearGradient id="SVGID_00000094585507008211511500000015466385575758411141_" gradientUnits="userSpaceOnUse" x1="2712.5532" y1="1640.5754" x2="3125.9875" y2="1640.5754">
					<stop  offset="0" style="stop-color:#4F52FF"/>
					<stop  offset="1" style="stop-color:#4042E2"/>
				</linearGradient>
				<path style="fill:url(#SVGID_00000094585507008211511500000015466385575758411141_);" d="M3122.781,1667.189H2715.76
					c-1.764,0-3.207-1.443-3.207-3.206v-46.815c0-1.764,1.443-3.206,3.207-3.206h407.021c1.764,0,3.207,1.443,3.207,3.206v46.815
					C3125.988,1665.747,3124.545,1667.189,3122.781,1667.189z"/>
				<path style="fill:#FFFFFF;" d="M3122.781,1823.64H2715.76c-1.764,0-3.207-1.443-3.207-3.207v-46.815
					c0-1.764,1.443-3.207,3.207-3.207h407.021c1.764,0,3.207,1.443,3.207,3.207v46.815
					C3125.988,1822.197,3124.545,1823.64,3122.781,1823.64z"/>
				<path style="fill:#FFFFFF;" d="M3122.781,2179.864H2715.76c-1.764,0-3.207-1.443-3.207-3.207v-46.815
					c0-1.764,1.443-3.207,3.207-3.207h407.021c1.764,0,3.207,1.443,3.207,3.207v46.815
					C3125.988,2178.421,3124.545,2179.864,3122.781,2179.864z"/>
				<path style="fill:#FFFFFF;" d="M3122.781,2502.058H2715.76c-1.764,0-3.207-1.443-3.207-3.206v-46.815
					c0-1.764,1.443-3.207,3.207-3.207h407.021c1.764,0,3.207,1.443,3.207,3.207v46.815
					C3125.988,2500.615,3124.545,2502.058,3122.781,2502.058z"/>
			</g>
			
				<linearGradient id="SVGID_00000127746752063398116890000017130937958115212167_" gradientUnits="userSpaceOnUse" x1="1335.7485" y1="618.8012" x2="653.9297" y2="2063.1831">
				<stop  offset="0" style="stop-color:#4F52FF"/>
				<stop  offset="1" style="stop-color:#4042E2"/>
			</linearGradient>
			<path style="fill:url(#SVGID_00000127746752063398116890000017130937958115212167_);" d="M1095.386,1432.472H867.304
				c-4.886,0-8.847-3.961-8.847-8.847v-108.722c0-3.34,2.707-6.047,6.047-6.047h237.799c1.066,0,1.93,0.864,1.93,1.93v112.839
				C1104.233,1428.511,1100.272,1432.472,1095.386,1432.472z"/>
			
				<linearGradient id="SVGID_00000115478401838711309840000008027618218809404811_" gradientUnits="userSpaceOnUse" x1="1826.2836" y1="618.8013" x2="1144.4647" y2="2063.1831">
				<stop  offset="0" style="stop-color:#4F52FF"/>
				<stop  offset="1" style="stop-color:#4042E2"/>
			</linearGradient>
			<path style="fill:url(#SVGID_00000115478401838711309840000008027618218809404811_);" d="M1585.921,1432.472h-228.082
				c-4.886,0-8.847-3.961-8.847-8.847v-108.722c0-3.34,2.707-6.047,6.047-6.047h237.799c1.066,0,1.93,0.864,1.93,1.93v112.839
				C1594.768,1428.511,1590.807,1432.472,1585.921,1432.472z"/>
			
				<linearGradient id="SVGID_00000124151660806433170170000012502411154189626497_" gradientUnits="userSpaceOnUse" x1="2311.8044" y1="618.8012" x2="1629.9855" y2="2063.1831">
				<stop  offset="0" style="stop-color:#4F52FF"/>
				<stop  offset="1" style="stop-color:#4042E2"/>
			</linearGradient>
			<path style="fill:url(#SVGID_00000124151660806433170170000012502411154189626497_);" d="M2071.442,1432.472H1843.36
				c-4.886,0-8.847-3.961-8.847-8.847v-108.722c0-3.34,2.707-6.047,6.047-6.047h237.799c1.066,0,1.93,0.864,1.93,1.93v112.839
				C2080.288,1428.511,2076.328,1432.472,2071.442,1432.472z"/>
			
				<linearGradient id="SVGID_00000091732316249204979720000016728639227663331518_" gradientUnits="userSpaceOnUse" x1="2803.0195" y1="618.8013" x2="2121.2007" y2="2063.1831">
				<stop  offset="0" style="stop-color:#4F52FF"/>
				<stop  offset="1" style="stop-color:#4042E2"/>
			</linearGradient>
			<path style="fill:url(#SVGID_00000091732316249204979720000016728639227663331518_);" d="M2562.657,1432.472h-228.082
				c-4.886,0-8.847-3.961-8.847-8.847v-108.722c0-3.34,2.707-6.047,6.047-6.047h237.799c1.066,0,1.93,0.864,1.93,1.93v112.839
				C2571.503,1428.511,2567.542,1432.472,2562.657,1432.472z"/>
			
				<linearGradient id="SVGID_00000044864977809343332290000000643309385941745536_" gradientUnits="userSpaceOnUse" x1="3259.3062" y1="618.8013" x2="2577.4873" y2="2063.1831">
				<stop  offset="0" style="stop-color:#4F52FF"/>
				<stop  offset="1" style="stop-color:#4042E2"/>
			</linearGradient>
			<path style="fill:url(#SVGID_00000044864977809343332290000000643309385941745536_);" d="M3018.944,1432.472h-228.082
				c-4.886,0-8.847-3.961-8.847-8.847v-108.722c0-3.34,2.707-6.047,6.047-6.047h237.799c1.066,0,1.93,0.864,1.93,1.93v112.839
				C3027.79,1428.511,3023.829,1432.472,3018.944,1432.472z"/>
		</g>
		<g>
			<g>
				
					<linearGradient id="SVGID_00000008142810495777310960000013497177261212808632_" gradientUnits="userSpaceOnUse" x1="1911.619" y1="1790.4056" x2="2233.7607" y2="2324.4072">
					<stop  offset="0" style="stop-color:#A22B25"/>
					<stop  offset="1" style="stop-color:#C0423C"/>
				</linearGradient>
				<path style="fill:url(#SVGID_00000008142810495777310960000013497177261212808632_);" d="M1989.05,1945.218
					c-1.038,3.3,10.984,8.326,18.062-5.172c0.248-6.469,4.182-34.183,0.316-39.453c-20.587-28.068-60.503-63.253-60.503-63.253
					c-6.746,6.656-1.188,13.195-1.188,13.195l19.363,20.171c-4.05,7.319-8.99,13.497-11.306,22.35
					c-1.754,6.704-0.681,13.869,2.705,19.97c3.399,6.123,8.036,14.083,12.421,20.313
					C1977.217,1945.129,1989.05,1945.218,1989.05,1945.218z"/>
				
					<linearGradient id="SVGID_00000011751475470601658600000012214673801677575584_" gradientUnits="userSpaceOnUse" x1="2145.2854" y1="2122.144" x2="1966.5787" y2="1889.4879">
					<stop  offset="0" style="stop-color:#A22B25"/>
					<stop  offset="1" style="stop-color:#C0423C"/>
				</linearGradient>
				<path style="fill:url(#SVGID_00000011751475470601658600000012214673801677575584_);" d="M1973.569,1883.794l17.646,14.959
					l5.54,14.893l-15.733,17.454c0,0-5.289-29.551-9.221-35.947C1967.869,1888.757,1969.908,1885.664,1973.569,1883.794z"/>
			</g>
			<g>
				
					<linearGradient id="SVGID_00000071539191779876893110000011749521093157407106_" gradientUnits="userSpaceOnUse" x1="9359.2939" y1="3011.9597" x2="8928.8418" y2="3480.1716" gradientTransform="matrix(-1 0 0 1 11558.8887 0)">
					<stop  offset="0" style="stop-color:#09005D"/>
					<stop  offset="1" style="stop-color:#1A0F91"/>
				</linearGradient>
				<path style="fill:url(#SVGID_00000071539191779876893110000011749521093157407106_);" d="M2335.661,3046.839
					c0,0,4.458,25.237,6.643,50.219c0.854,9.763-6.672,18.24-16.465,18.648c-33.268,1.385-104.43,4.079-129.966,2.94
					c-3.839-0.171-6.349-4.101-4.928-7.671l0,0c1.191-2.991,3.487-5.411,6.413-6.755l117.546-54.024L2335.661,3046.839z"/>
				
					<linearGradient id="SVGID_00000067238327239019775110000010179329124146580910_" gradientUnits="userSpaceOnUse" x1="9219.5752" y1="3046.7341" x2="9257.8105" y2="3046.7341" gradientTransform="matrix(-1 0 0 1 11558.8887 0)">
					<stop  offset="0" style="stop-color:#A22B25"/>
					<stop  offset="1" style="stop-color:#C0423C"/>
				</linearGradient>
				<path style="fill:url(#SVGID_00000067238327239019775110000010179329124146580910_);" d="M2339.313,3032.01l-3.582,30.186
					c0,0-20.591,9.586-34.653-1.208l8.527-33.64L2339.313,3032.01z"/>
				
					<linearGradient id="SVGID_00000038396923564603133710000012777008782331763866_" gradientUnits="userSpaceOnUse" x1="9393.1875" y1="2482.4622" x2="9026.9141" y2="2978.8989" gradientTransform="matrix(-1 0 0 1 11558.8887 0)">
					<stop  offset="0" style="stop-color:#09005D"/>
					<stop  offset="1" style="stop-color:#1A0F91"/>
				</linearGradient>
				<path style="fill:url(#SVGID_00000038396923564603133710000012777008782331763866_);" d="M2336.621,2464.495
					c1.547,7.883,8.304,393.382-32.903,566.136c-0.672,2.819,0.757,5.724,3.439,6.821c6.32,2.582,18.71,6.322,33.559,6.821
					c4.599,0.154,8.721-2.834,10.019-7.249c11.779-40.082,68.221-240.903,75.584-432.742c8.227-214.361,0-7.299,0-7.299
					l-4.825-132.505L2336.621,2464.495z"/>
				
					<linearGradient id="SVGID_00000023996243748780670530000004648287846699295639_" gradientUnits="userSpaceOnUse" x1="9262.7285" y1="2923.1831" x2="8832.2783" y2="3391.3926" gradientTransform="matrix(-1 0 0 1 11558.8887 0)">
					<stop  offset="0" style="stop-color:#09005D"/>
					<stop  offset="1" style="stop-color:#1A0F91"/>
				</linearGradient>
				<path style="fill:url(#SVGID_00000023996243748780670530000004648287846699295639_);" d="M2470.878,3060.004
					c0,0,7.096,12.74,13.967,46.595c1.24,6.114-3.032,11.966-9.241,12.576c-10.985,1.08-27.896,2.469-41.442,2.376
					c-6.245-0.043-11.118-5.48-10.366-11.679c1.5-12.357,6.175-32.631,20.616-48.433L2470.878,3060.004z"/>
				
					<linearGradient id="SVGID_00000013193313220965724880000007430257228784581270_" gradientUnits="userSpaceOnUse" x1="9081.7773" y1="3044.7739" x2="9114.79" y2="3044.7739" gradientTransform="matrix(-1 0 0 1 11558.8887 0)">
					<stop  offset="0" style="stop-color:#A22B25"/>
					<stop  offset="1" style="stop-color:#C0423C"/>
				</linearGradient>
				<path style="fill:url(#SVGID_00000013193313220965724880000007430257228784581270_);" d="M2477.111,3021.178l-8.369,45.649
					c0,0-8.275,6.156-24.644,1.693l3.994-49.116L2477.111,3021.178z"/>
				
					<linearGradient id="SVGID_00000005976750337819029370000012944607167190056331_" gradientUnits="userSpaceOnUse" x1="9327.9092" y1="2434.2991" x2="8961.6348" y2="2930.7358" gradientTransform="matrix(-1 0 0 1 11558.8887 0)">
					<stop  offset="0" style="stop-color:#09005D"/>
					<stop  offset="1" style="stop-color:#1A0F91"/>
				</linearGradient>
				<path style="fill:url(#SVGID_00000005976750337819029370000012944607167190056331_);" d="M2499.719,2476.324
					c33.702,203.393-7.31,502.701-21.142,561.283c-0.846,3.586-3.741,6.334-7.377,6.937c-6.174,1.023-16.339,1.858-26.36-1.052
					c-3.452-1.002-5.878-4.117-6.019-7.71c-1.856-47.361,1.484-338.116-29.918-453.024c-1.591-5.823-5.147-10.902-10.068-14.4
					l-60.95-43.33l-4.673-70.039L2499.719,2476.324z"/>
				<g>
					
						<linearGradient id="SVGID_00000026126434600520892620000008848683379919211926_" gradientUnits="userSpaceOnUse" x1="2354.7583" y1="865.0735" x2="2344.6433" y2="1347.2435">
						<stop  offset="0" style="stop-color:#FF928E"/>
						<stop  offset="1" style="stop-color:#FE7062"/>
					</linearGradient>
					<path style="fill:url(#SVGID_00000026126434600520892620000008848683379919211926_);" d="M2284.971,2090.935
						c100.998-1.668,212.437,26.519,212.437,26.519c30.106,175.664,5.265,378.28,5.265,378.28
						c-78.19,20.505-166.393-12.536-166.393-12.536c-12.996-73.424-73.63-280.061-73.63-280.061
						c-49.347-6.124-89.999-20.362-123.475-39.185c25.535-29.599,37.573-67.262,42.802-89.526
						C2217.686,2085.522,2253.819,2091.45,2284.971,2090.935z"/>
					
						<linearGradient id="SVGID_00000093141095086906282370000013313447359339167366_" gradientUnits="userSpaceOnUse" x1="1932.3959" y1="1777.8718" x2="2254.5381" y2="2311.874">
						<stop  offset="0" style="stop-color:#A22B25"/>
						<stop  offset="1" style="stop-color:#C0423C"/>
					</linearGradient>
					<path style="fill:url(#SVGID_00000093141095086906282370000013313447359339167366_);" d="M1986.641,1942.17
						c9.922-11.983,22.479-6.314,22.479-6.314c14.863,62.782,92.794,113.687,172.856,138.569
						c-5.228,22.264-17.266,59.927-42.802,89.526C2006.303,2089.243,1986.641,1942.17,1986.641,1942.17z"/>
				</g>
				
					<linearGradient id="SVGID_00000163049757300315599590000005457344051170057614_" gradientUnits="userSpaceOnUse" x1="2561.6973" y1="869.4162" x2="2551.582" y2="1351.5872">
					<stop  offset="0" style="stop-color:#FF928E"/>
					<stop  offset="1" style="stop-color:#FE7062"/>
				</linearGradient>
				<path style="fill:url(#SVGID_00000163049757300315599590000005457344051170057614_);" d="M2458.669,2215.249l38.739-97.796
					c0,0,94.338,64.098,109.853,145.368c-17.825,1.313-50.261,5.949-82.01,21.98
					C2518.273,2246.427,2458.669,2215.249,2458.669,2215.249z"/>
				
					<linearGradient id="SVGID_00000071550613661544111300000012539577658678788019_" gradientUnits="userSpaceOnUse" x1="2370.7295" y1="1981.8756" x2="2370.7295" y2="2162.2686">
					<stop  offset="0" style="stop-color:#A22B25"/>
					<stop  offset="1" style="stop-color:#C0423C"/>
				</linearGradient>
				<path style="fill:url(#SVGID_00000071550613661544111300000012539577658678788019_);" d="M2387.273,2008.94l32.136,92.935
					c0.532,1.539-0.101,3.244-1.526,4.033c-8.76,4.843-40.32,18.843-78.354-5.271c-3.962-2.512-6.659-6.609-7.261-11.262
					l-10.406-80.435H2387.273z"/>
				<g>
					
						<linearGradient id="SVGID_00000127017885069240780100000000755452917165383325_" gradientUnits="userSpaceOnUse" x1="3659.7561" y1="-3681.0891" x2="3595.6917" y2="-3460.2351" gradientTransform="matrix(-0.746 -0.6659 -0.6659 0.746 6432.5532 -803.1727)">
						<stop  offset="0" style="stop-color:#A22B25"/>
						<stop  offset="1" style="stop-color:#C0423C"/>
					</linearGradient>
					<path style="fill:url(#SVGID_00000127017885069240780100000000755452917165383325_);" d="M2317.35,1922.88
						c0,0-35.289,66.427-30.766,93.26c4.523,26.832,48.258,24.906,86.449,3.113l26.687-71.726L2317.35,1922.88z"/>
					
						<linearGradient id="SVGID_00000103242801421419437670000002189365865168430753_" gradientUnits="userSpaceOnUse" x1="1184.7578" y1="4633.9766" x2="1215.3085" y2="4808.228" gradientTransform="matrix(-0.746 -0.6659 -0.6659 0.746 6432.5532 -803.1727)">
						<stop  offset="0" style="stop-color:#09005D"/>
						<stop  offset="1" style="stop-color:#1A0F91"/>
					</linearGradient>
					<path style="fill:url(#SVGID_00000103242801421419437670000002189365865168430753_);" d="M2371.345,1984.029
						c-1.552-0.688-2.124-2.587-1.195-4.007c2.827-4.319,8.127-13.13,9.818-20.844c0,0,6.344-4.064-16.147-9.446
						c-22.49-5.384-56.029-13.739-63.078-32.882c-6.873-18.664,11.185-65.602,39.997-28.203c1.096,1.423,3.243,1.454,4.338,0.03
						c4.723-6.148,17.141-18.907,34.38-11.171c16.133,7.239,17.95,19.06,17.728,25.019c-0.065,1.752,1.502,3.115,3.225,2.786
						c8.157-1.555,27.73-2.892,36.866,17.188c7.525,16.539,2.634,25.902-1.82,30.481c-1.444,1.483-0.812,3.926,1.168,4.532
						c5.36,1.641,12.282,6.187,11.59,18.746c-0.958,17.363-20.37,15.833-25.897,15.042c-0.906-0.13-1.818,0.181-2.432,0.859
						c-4.739,5.245-26.091,27.512-49.2,30.197c-2.001,0.232-3.552-1.744-2.896-3.648l10.001-29.072
						c0.464-1.35-0.182-2.831-1.487-3.41L2371.345,1984.029z"/>
					
						<linearGradient id="SVGID_00000111160625101203038750000007139594617126266520_" gradientUnits="userSpaceOnUse" x1="3622.0615" y1="-3692.0137" x2="3557.9971" y2="-3471.1594" gradientTransform="matrix(-0.746 -0.6659 -0.6659 0.746 6432.5532 -803.1727)">
						<stop  offset="0" style="stop-color:#A22B25"/>
						<stop  offset="1" style="stop-color:#C0423C"/>
					</linearGradient>
					<path style="fill:url(#SVGID_00000111160625101203038750000007139594617126266520_);" d="M2367.326,1988.156
						c0,0,25.125-17.239,26.961-2.722c1.835,14.517-22.626,21.028-34.742,15.616L2367.326,1988.156z"/>
				</g>
				
					<linearGradient id="SVGID_00000163071912434586062780000012854563762444316308_" gradientUnits="userSpaceOnUse" x1="2934.2229" y1="2282.1572" x2="2693.3416" y2="2903.2249" gradientTransform="matrix(-1 0 0 1 5460.2085 0)">
					<stop  offset="0" style="stop-color:#A22B25"/>
					<stop  offset="1" style="stop-color:#C0423C"/>
				</linearGradient>
				<path style="fill:url(#SVGID_00000163071912434586062780000012854563762444316308_);" d="M2525.25,2284.802
					c0,0,32.973,148.752,3.105,232.38c36.616,16.978,29.852,13.777,29.852,13.777s72.439-211.65,49.052-268.138
					C2561.152,2257.93,2538.281,2270.319,2525.25,2284.802z"/>
				
					<linearGradient id="SVGID_00000037664253523855895950000016017209621477537215_" gradientUnits="userSpaceOnUse" x1="3018.5215" y1="2314.853" x2="2777.6404" y2="2935.9197" gradientTransform="matrix(-1 0 0 1 5460.2085 0)">
					<stop  offset="0" style="stop-color:#A22B25"/>
					<stop  offset="1" style="stop-color:#C0423C"/>
				</linearGradient>
				<path style="fill:url(#SVGID_00000037664253523855895950000016017209621477537215_);" d="M2528.355,2517.182
					c0,0-18.869,24.421-17.359,34.148c1.509,9.727,1.869,13.69,1.869,13.69s9.481-6.484,8.884-14.771
					c-1.318,26.299-10.12,56.2-2.116,54.76c8.003-1.441,49.433-39.629,40.066-80.339
					C2538.444,2509.9,2532.486,2511.506,2528.355,2517.182z"/>
			</g>
		</g>
		<g>
			
				<linearGradient id="SVGID_00000078040563808269731420000017996554352035317427_" gradientUnits="userSpaceOnUse" x1="9991.9443" y1="1077.691" x2="9651.8008" y2="1271.84" gradientTransform="matrix(-1 0 0 1 12479.6689 0)">
				<stop  offset="0" style="stop-color:#FEBBBA"/>
				<stop  offset="1" style="stop-color:#FF928E"/>
			</linearGradient>
			<path style="fill:url(#SVGID_00000078040563808269731420000017996554352035317427_);" d="M2539.438,1394.199
				c0.401-0.154,216.15-377.983,245.305-413.539c4.904-5.98,12.495-9.025,20.176-8.111l60.22,7.177l70.744,153.047l-117.859-68.64
				c11.662,80.656-139.743,200.521-191.669,244.26c-5.27,4.439-5.702,12.389-0.943,17.371l20.73,21.7
				c-34.035,34.498-73.306,56.649-117.631,66.895L2539.438,1394.199z"/>
			
				<linearGradient id="SVGID_00000029744985304189592800000004121016915942285736_" gradientUnits="userSpaceOnUse" x1="190.5205" y1="6547.8042" x2="163.5462" y2="6031.915" gradientTransform="matrix(0.8974 -0.4412 0.4412 0.8974 3184.3899 2161.1482)">
				<stop  offset="0" style="stop-color:#09005D"/>
				<stop  offset="1" style="stop-color:#1A0F91"/>
			</linearGradient>
			<path style="fill:url(#SVGID_00000029744985304189592800000004121016915942285736_);" d="M2634.151,1335.753
				c0,0,13.23,4.274,17.71,16.057c2.144,5.638-0.167,12.023-5.07,15.536c-21.785,15.609-93.647,66-126.809,75.869
				c-2.718,0.808-5.305-1.651-4.693-4.42c1.702-7.703,7.206-23.087,24.941-45.608l-1.592,3.218c-2.013,4.073,2.422,8.314,6.378,6.08
				C2567.196,1389.964,2612.375,1362.558,2634.151,1335.753z"/>
			
				<linearGradient id="SVGID_00000108274460251210056170000007012178923523613371_" gradientUnits="userSpaceOnUse" x1="9959.0391" y1="1126.1101" x2="11122.8408" y2="397.5525" gradientTransform="matrix(-1 0 0 1 12479.6689 0)">
				<stop  offset="0" style="stop-color:#FEBBBA"/>
				<stop  offset="1" style="stop-color:#FF928E"/>
			</linearGradient>
			<path style="fill:url(#SVGID_00000108274460251210056170000007012178923523613371_);" d="M2623.474,1486.931
				c0.362-0.232,32.732-78.22,33.093-78.452c29.679-180.698,102.09-335.452,123.445-376.173c3.593-6.849,10.41-11.367,18.117-12.026
				l60.426-5.159l100.254,135.562l-129.311-43.367c27.743,76.628-96.271,224.654-138.271,277.994
				c-4.262,5.413-3.077,13.287,2.593,17.203l24.693,17.056c-26.348,40.672-60.324,70.312-101.658,89.315L2623.474,1486.931z"/>
			
				<linearGradient id="SVGID_00000144321354999709931010000007246326787846952584_" gradientUnits="userSpaceOnUse" x1="1181.5371" y1="8907.9092" x2="1154.5629" y2="8392.0195" gradientTransform="matrix(0.7895 -0.6137 0.6137 0.7895 3201.9788 3191.1018)">
				<stop  offset="0" style="stop-color:#09005D"/>
				<stop  offset="1" style="stop-color:#1A0F91"/>
			</linearGradient>
			<path style="fill:url(#SVGID_00000144321354999709931010000007246326787846952584_);" d="M2704.399,1410.526
				c0,0,13.822,1.507,20.593,12.141c3.24,5.087,2.27,11.808-1.821,16.241c-18.177,19.694-78.353,83.585-108.832,99.962
				c-2.498,1.343-5.529-0.543-5.49-3.379c0.108-7.889,2.385-24.069,15.195-49.713l-0.907,3.473
				c-1.148,4.397,4.054,7.652,7.476,4.664C2649.801,1477.165,2688.498,1441.184,2704.399,1410.526z"/>
			<g>
				
					<linearGradient id="SVGID_00000102542721008461231700000015324574971404094638_" gradientUnits="userSpaceOnUse" x1="1841.637" y1="833.918" x2="1561.8818" y2="1140.4984" gradientTransform="matrix(-1 0 0 1 4647.9688 0)">
					<stop  offset="0" style="stop-color:#09005D"/>
					<stop  offset="1" style="stop-color:#1A0F91"/>
				</linearGradient>
				<path style="fill:url(#SVGID_00000102542721008461231700000015324574971404094638_);" d="M3141.398,986.57
					c0,0,54.662,81.303,59.147,118.391c4.485,37.087-15.115,49.912-72.328,54.642c-170.258,14.075-254.187-36.952-254.187-36.952
					c-11.647-74.26-19.934-93.151-117.205-133.529c0,0,123.031,9.768,147.791,0.16
					C2929.378,979.672,3141.398,986.57,3141.398,986.57z"/>
			</g>
			<g>
				
					<linearGradient id="SVGID_00000057851320424470768180000004610915473167947182_" gradientUnits="userSpaceOnUse" x1="-3036.5815" y1="1185.9722" x2="-2952.9397" y2="1395.7863" gradientTransform="matrix(0.9446 -0.3283 0.3283 0.9446 5344.1323 -1699.1722)">
					<stop  offset="0" style="stop-color:#09005D"/>
					<stop  offset="1" style="stop-color:#1A0F91"/>
				</linearGradient>
				<path style="fill:url(#SVGID_00000057851320424470768180000004610915473167947182_);" d="M2923.421,531.056
					c0,0,38.073-45.046,78.548,10.221c7.331,10.01,35.487,1.752,45.809,22.703c5.329,10.818,16.841,16.963,28.7,14.776
					c29.535-5.448,77.812-5.906,101.647,40.378c18.195,35.328,4.148,56.004-14.04,67.791c-13.358,8.658-18.125,26.235-10.048,39.95
					c7.748,13.156,9.205,30.972-10.801,52.413c-44.83,48.047-133.573-30.492-133.573-30.492l-70.461-166.5L2923.421,531.056z"/>
				
					<linearGradient id="SVGID_00000140718770551693020190000007825160731092207233_" gradientUnits="userSpaceOnUse" x1="3600.6082" y1="1291.6169" x2="3236.4497" y2="1011.755">
					<stop  offset="0" style="stop-color:#FF928E"/>
					<stop  offset="1" style="stop-color:#FE7062"/>
				</linearGradient>
				<path style="fill:url(#SVGID_00000140718770551693020190000007825160731092207233_);" d="M2993.569,975.806
					c0,0-63.654-60.612-94.989-100.758c-16.937-21.702-22.256-50.271-14.424-76.66c14.306-48.196,39.729-98.114,42.047-105.883
					c3.554-11.909,74.928-11.413,74.928-11.413s140.45,91.154,195.632,245.56l-61.973,19.294c0,0-36.672-61.523-72.905-100.638
					c0,0,62.697,82.825,64.905,116.731L2993.569,975.806z"/>
				
					<linearGradient id="SVGID_00000080922348594167447700000009657784829683582896_" gradientUnits="userSpaceOnUse" x1="-999.7335" y1="965.7816" x2="-660.9007" y2="965.7816" gradientTransform="matrix(1 0 0 1 4083.2058 0)">
					<stop  offset="0" style="stop-color:#FEBBBA"/>
					<stop  offset="1" style="stop-color:#FF928E"/>
				</linearGradient>
				<path style="fill:url(#SVGID_00000080922348594167447700000009657784829683582896_);" d="M2872.286,999.726l47.829-52.04
					l55.239,14.875c0,0,64.4,9.977,101.258,0c36.858-9.977,36.858-9.977,36.858-9.977l83.292-25.931l13.082,36.97
					c3.322,9.387-0.016,19.807-8.132,25.575c-7.206,5.121-15.653,10.748-21.037,13.103c-10.969,4.798-252.678,1.517-252.678,1.517
					L2872.286,999.726z"/>
				
					<linearGradient id="SVGID_00000059993433864040941380000001732873654290143886_" gradientUnits="userSpaceOnUse" x1="-2846.4778" y1="496.0247" x2="-2829.9141" y2="374.8499" gradientTransform="matrix(0.9974 -0.0717 0.0717 0.9974 5749.0762 105.0094)">
					<stop  offset="0" style="stop-color:#FEBBBA"/>
					<stop  offset="1" style="stop-color:#FF928E"/>
				</linearGradient>
				<path style="fill:url(#SVGID_00000059993433864040941380000001732873654290143886_);" d="M2952.078,595.276l47.97,89.203
					c-3.167,19.472-52.21,20.021-59.787,8.394c-0.771-1.183-1.212-2.552-1.505-3.934l-28.696-59.603
					c-1.232-5.812,14.702-25.396,19.946-28.186l19.067-10.15C2956.415,587.092,2925.779,586.784,2952.078,595.276z"/>
				<g>
					
						<linearGradient id="SVGID_00000046302898390463625090000017086453455636880035_" gradientUnits="userSpaceOnUse" x1="-4411.0767" y1="2428.1794" x2="-4255.1206" y2="2150.6304" gradientTransform="matrix(0.5458 -0.8379 0.8379 0.5458 3330.092 -4320.769)">
						<stop  offset="0" style="stop-color:#FEBBBA"/>
						<stop  offset="1" style="stop-color:#FF928E"/>
					</linearGradient>
					<path style="fill:url(#SVGID_00000046302898390463625090000017086453455636880035_);" d="M2854.994,574.341
						c0,0-5.415,30.137,18.273,68.456c23.687,38.318,47.275,36.588,59.259,22.922c11.983-13.666,26.338-36.425,19.806-74.643
						C2945.802,552.858,2863.176,535.909,2854.994,574.341z"/>
					
						<linearGradient id="SVGID_00000176018194294173236540000000990157475522291090_" gradientUnits="userSpaceOnUse" x1="-4377.54" y1="2186.4778" x2="-4299.5625" y2="2382.082" gradientTransform="matrix(0.5458 -0.8379 0.8379 0.5458 3330.092 -4320.769)">
						<stop  offset="0" style="stop-color:#09005D"/>
						<stop  offset="1" style="stop-color:#1A0F91"/>
					</linearGradient>
					<path style="fill:url(#SVGID_00000176018194294173236540000000990157475522291090_);" d="M2923.657,595.23
						c0,0-38.355-50.38-67.803-6.462l0.496,15.172c0,0-38.293-1.79-34.141-37.084c4.153-35.296,35.416-59.406,78.757-47.347
						c43.341,12.058,68.665,25.791,73.56,55.882c4.895,30.091-19.677,25.175-19.677,25.175s-9.385-20.763-20.719-22.181
						c-11.333-1.418-7.238,15.005-7.238,15.005L2923.657,595.23z"/>
					
						<linearGradient id="SVGID_00000151508763517481469270000011814587252762850235_" gradientUnits="userSpaceOnUse" x1="-4377.8779" y1="2446.8301" x2="-4221.9243" y2="2169.2842" gradientTransform="matrix(0.5458 -0.8379 0.8379 0.5458 3330.092 -4320.769)">
						<stop  offset="0" style="stop-color:#FEBBBA"/>
						<stop  offset="1" style="stop-color:#FF928E"/>
					</linearGradient>
					<path style="fill:url(#SVGID_00000151508763517481469270000011814587252762850235_);" d="M2932.459,593.886
						c0,0-19.868-25.782-1.783-31.133c18.085-5.351,17.409,25.263,16.231,36.652L2932.459,593.886z"/>
				</g>
			</g>
			<g>
				
					<linearGradient id="SVGID_00000139984835124015808140000017747296747814539674_" gradientUnits="userSpaceOnUse" x1="-1022.8253" y1="967.5349" x2="-1200.0792" y2="1016.1155" gradientTransform="matrix(0.9988 -0.0494 0.0494 0.9988 4041.7368 -55.0328)">
					<stop  offset="0" style="stop-color:#4F52FF"/>
					<stop  offset="1" style="stop-color:#4042E2"/>
				</linearGradient>
				<path style="fill:url(#SVGID_00000139984835124015808140000017747296747814539674_);" d="M3030.61,1020.321
					c-0.168,0.008-0.336,0.013-0.506,0.012l-219.998-0.24c-5.439-0.005-9.843-4.418-9.837-9.856
					c0.005-5.441,4.434-9.935,9.858-9.837l219.999,0.24c5.438,0.005,9.842,4.418,9.837,9.857
					C3039.956,1015.766,3035.813,1020.065,3030.61,1020.321z"/>
				
					<linearGradient id="SVGID_00000006690491201546601700000002961981625063021963_" gradientUnits="userSpaceOnUse" x1="10075.793" y1="933.337" x2="11670.0059" y2="799.2086" gradientTransform="matrix(1 0 0 1 -7467.9038 0)">
					<stop  offset="0" style="stop-color:#09005D"/>
					<stop  offset="1" style="stop-color:#1A0F91"/>
				</linearGradient>
				<path style="fill:url(#SVGID_00000006690491201546601700000002961981625063021963_);" d="M2612.336,820.577h183.217
					c13.516,0,25.817,7.8,31.583,20.025l84.701,179.603h-227.689c-8.71,0-16.536-5.322-19.737-13.422l-65.682-166.196
					C2594.934,830.983,2602.011,820.577,2612.336,820.577z"/>
				<path style="fill:#7D97F4;" d="M2741.414,912.664c3.971,12.335,1.038,24.316-6.551,26.758
					c-7.589,2.442-16.959-5.577-20.929-17.913c-3.971-12.335-1.038-24.315,6.551-26.757
					C2728.073,892.31,2737.444,900.33,2741.414,912.664z"/>
			</g>
		</g>
		<g>
			<g>
				<g>
					<path style="fill:#91B3FA;" d="M503.572,3170.071l1414.366,0.002v-283.085l-1414.366,0.002
						C533.846,2886.99,533.846,3170.071,503.572,3170.071z"/>
					
						<linearGradient id="SVGID_00000043418848475441266630000013177639560128366983_" gradientUnits="userSpaceOnUse" x1="1785.2424" y1="2491.9055" x2="2449.4917" y2="1861.3735">
						<stop  offset="0" style="stop-color:#4F52FF"/>
						<stop  offset="1" style="stop-color:#4042E2"/>
					</linearGradient>
					<path style="fill:url(#SVGID_00000043418848475441266630000013177639560128366983_);" d="M1917.939,3099.232v-129.552
						c0-45.669-27.951-82.691-62.429-82.691H509.536c-27.114,0-49.094-21.98-49.094-49.094v0c0-8.239,6.678-14.917,14.916-14.917
						h1471.045c33.736,0,87.297,53.041,87.297,118.469v180.934c0,61.689-51.998,111.698-83.806,111.698H483.097
						c-12.512,0-22.655-10.143-22.655-22.655c0-22.839,18.515-41.354,41.353-41.354h1362.663
						C1893.995,3170.071,1917.939,3138.355,1917.939,3099.232z"/>
				</g>
				
					<linearGradient id="SVGID_00000152230919823727579010000001152812724081383357_" gradientUnits="userSpaceOnUse" x1="549.178" y1="2945.072" x2="1882.0834" y2="2945.072">
					<stop  offset="0" style="stop-color:#DAE3FE"/>
					<stop  offset="1" style="stop-color:#E9EFFD"/>
				</linearGradient>
				<path style="fill:url(#SVGID_00000152230919823727579010000001152812724081383357_);" d="M1878.712,2948.444H552.55
					c-1.864,0-3.372-1.508-3.372-3.372c0-1.864,1.508-3.372,3.372-3.372h1326.162c1.864,0,3.372,1.508,3.372,3.372
					C1882.083,2946.936,1880.575,2948.444,1878.712,2948.444z"/>
				
					<linearGradient id="SVGID_00000038404982648445544050000008189302039938789521_" gradientUnits="userSpaceOnUse" x1="549.178" y1="2987.0916" x2="1882.0834" y2="2987.0916">
					<stop  offset="0" style="stop-color:#DAE3FE"/>
					<stop  offset="1" style="stop-color:#E9EFFD"/>
				</linearGradient>
				<path style="fill:url(#SVGID_00000038404982648445544050000008189302039938789521_);" d="M1878.712,2990.463H552.55
					c-1.864,0-3.372-1.508-3.372-3.372s1.508-3.372,3.372-3.372h1326.162c1.864,0,3.372,1.508,3.372,3.372
					S1880.575,2990.463,1878.712,2990.463z"/>
				
					<linearGradient id="SVGID_00000048494948551362066850000007689939894137716906_" gradientUnits="userSpaceOnUse" x1="549.178" y1="3029.1077" x2="1882.0834" y2="3029.1077">
					<stop  offset="0" style="stop-color:#DAE3FE"/>
					<stop  offset="1" style="stop-color:#E9EFFD"/>
				</linearGradient>
				<path style="fill:url(#SVGID_00000048494948551362066850000007689939894137716906_);" d="M1878.712,3032.479H552.55
					c-1.864,0-3.372-1.508-3.372-3.372s1.508-3.372,3.372-3.372h1326.162c1.864,0,3.372,1.508,3.372,3.372
					S1880.575,3032.479,1878.712,3032.479z"/>
				
					<linearGradient id="SVGID_00000169521939012562568450000009310115077997527190_" gradientUnits="userSpaceOnUse" x1="549.178" y1="3071.127" x2="1882.0834" y2="3071.127">
					<stop  offset="0" style="stop-color:#DAE3FE"/>
					<stop  offset="1" style="stop-color:#E9EFFD"/>
				</linearGradient>
				<path style="fill:url(#SVGID_00000169521939012562568450000009310115077997527190_);" d="M1878.712,3074.499H552.55
					c-1.864,0-3.372-1.508-3.372-3.372c0-1.864,1.508-3.372,3.372-3.372h1326.162c1.864,0,3.372,1.508,3.372,3.372
					C1882.083,3072.991,1880.575,3074.499,1878.712,3074.499z"/>
				
					<linearGradient id="SVGID_00000065058452177686436720000002967173771711288458_" gradientUnits="userSpaceOnUse" x1="549.178" y1="3113.1465" x2="1882.0834" y2="3113.1465">
					<stop  offset="0" style="stop-color:#DAE3FE"/>
					<stop  offset="1" style="stop-color:#E9EFFD"/>
				</linearGradient>
				<path style="fill:url(#SVGID_00000065058452177686436720000002967173771711288458_);" d="M1878.712,3116.518H552.55
					c-1.864,0-3.372-1.508-3.372-3.372s1.508-3.372,3.372-3.372h1326.162c1.864,0,3.372,1.508,3.372,3.372
					S1880.575,3116.518,1878.712,3116.518z"/>
			</g>
			<g>
				<g>
					
						<linearGradient id="SVGID_00000119108739954500219740000005645871056246948776_" gradientUnits="userSpaceOnUse" x1="1268.5576" y1="6230.4917" x2="1319.3907" y2="3973.4568">
						<stop  offset="0" style="stop-color:#09005D"/>
						<stop  offset="1" style="stop-color:#1A0F91"/>
					</linearGradient>
					<path style="fill:url(#SVGID_00000119108739954500219740000005645871056246948776_);" d="M786.604,2847.033h1122.569
						c7.85,0,14.214-6.364,14.214-14.214v-249.406c0-7.85-6.364-14.213-14.214-14.213H786.604c-7.85,0-14.214,6.364-14.214,14.213
						v249.406C772.391,2840.669,778.754,2847.033,786.604,2847.033z"/>
					
						<linearGradient id="SVGID_00000121975800752348411140000013606765857791171230_" gradientUnits="userSpaceOnUse" x1="1995.495" y1="2237.4116" x2="1327.8052" y2="3402.3159">
						<stop  offset="0" style="stop-color:#4F52FF"/>
						<stop  offset="1" style="stop-color:#4042E2"/>
					</linearGradient>
					<path style="fill:url(#SVGID_00000121975800752348411140000013606765857791171230_);" d="M1665.334,2815.102h120.733
						c4,0,7.242-3.242,7.242-7.242v-199.487c0-4-3.242-7.242-7.242-7.242h-120.733c-4,0-7.242,3.242-7.242,7.242v199.487
						C1658.092,2811.86,1661.334,2815.102,1665.334,2815.102z"/>
					
						<linearGradient id="SVGID_00000023977479920851221760000003337366815153808281_" gradientUnits="userSpaceOnUse" x1="1905.8235" y1="2196.9482" x2="1251.9816" y2="3337.6926">
						<stop  offset="0" style="stop-color:#4F52FF"/>
						<stop  offset="1" style="stop-color:#4042E2"/>
					</linearGradient>
					<path style="fill:url(#SVGID_00000023977479920851221760000003337366815153808281_);" d="M1591.139,2815.102h43.396
						c2.027,0,3.67-1.643,3.67-3.669v-206.632c0-2.027-1.643-3.67-3.67-3.67h-43.396c-2.027,0-3.67,1.643-3.67,3.669v206.632
						C1587.469,2813.459,1589.112,2815.102,1591.139,2815.102z"/>
				</g>
			</g>
		</g>
		<g>
			<g>
				
					<linearGradient id="SVGID_00000183931990562162003570000018152915857535896744_" gradientUnits="userSpaceOnUse" x1="1506.5713" y1="1034.7877" x2="1379.3833" y2="1296.9504" gradientTransform="matrix(0.987 0.1608 -0.1608 0.987 126.9837 357.2448)">
					<stop  offset="0" style="stop-color:#09005D"/>
					<stop  offset="1" style="stop-color:#1A0F91"/>
				</linearGradient>
				<path style="fill:url(#SVGID_00000183931990562162003570000018152915857535896744_);" d="M1203.258,1841.449
					c-0.649,1.231-41.552,31.328-41.552,31.328s9.033,64.62,45.712,90.137c40.327,28.054,97.279-23.108,97.279-23.108
					s45.324,10.774,69.427-83.573c5.53-21.646-26.391-23.475-64.915-19.489C1259.53,1841.886,1203.258,1841.449,1203.258,1841.449z"
					/>
				
					<linearGradient id="SVGID_00000096744724269843961570000016016323218843016119_" gradientUnits="userSpaceOnUse" x1="1293.6097" y1="842.8157" x2="1283.4946" y2="1324.9871">
					<stop  offset="0" style="stop-color:#FF928E"/>
					<stop  offset="1" style="stop-color:#FE7062"/>
				</linearGradient>
				<path style="fill:url(#SVGID_00000096744724269843961570000016016323218843016119_);" d="M1126.806,2061.913
					c16.001-11.002,33.692-19.297,52.448-24.401c7.045-1.917,45.083,9.138,68.597,8.598c32.277-0.742,65.133-15.431,91.739-8.8
					c26.428,6.586,48.059,15.188,60.549,24.071c37.384,26.589,59.333,76.167,72.709,125.276c-25.327,25.999-57.2,37.554-57.2,37.554
					l-5.89,238.708l-141.153,72.219l-161.109-80.886l5.771-233.275c0,0-51.16-23.825-54.914-32.492
					C1054.598,2179.82,1081.669,2092.947,1126.806,2061.913z"/>
				
					<linearGradient id="SVGID_00000018951434967362634120000002703011223538642864_" gradientUnits="userSpaceOnUse" x1="1157.5803" y1="2454.8931" x2="1425.8097" y2="3102.824">
					<stop  offset="0" style="stop-color:#FEBBBA"/>
					<stop  offset="1" style="stop-color:#FF928E"/>
				</linearGradient>
				<path style="fill:url(#SVGID_00000018951434967362634120000002703011223538642864_);" d="M1060.735,2187.444
					c0,0-68.557,190.068,87.778,268.185c32.461-4.313,19.976-58.221,19.976-58.221s-67.929-15.033-47.528-173.586
					C1102.179,2208.369,1060.735,2187.444,1060.735,2187.444z"/>
				
					<linearGradient id="SVGID_00000001632711902347280810000010396627601671963543_" gradientUnits="userSpaceOnUse" x1="-5668.2886" y1="2134.9482" x2="-5400.0591" y2="2782.8792" gradientTransform="matrix(-1 0 0 1 -4167.0742 0)">
					<stop  offset="0" style="stop-color:#FEBBBA"/>
					<stop  offset="1" style="stop-color:#FF928E"/>
				</linearGradient>
				<path style="fill:url(#SVGID_00000001632711902347280810000010396627601671963543_);" d="M1469.55,2187.444
					c0,0,47.174,198.405-87.778,268.185c-32.462-4.313-19.976-58.221-19.976-58.221s54.747-26.963,47.528-173.586
					C1428.105,2208.369,1469.55,2187.444,1469.55,2187.444z"/>
				
					<linearGradient id="SVGID_00000117639776306194115440000007227072876451728295_" gradientUnits="userSpaceOnUse" x1="1263.9669" y1="2220.0598" x2="1250.0222" y2="2784.8323">
					<stop  offset="0" style="stop-color:#09005D"/>
					<stop  offset="1" style="stop-color:#1A0F91"/>
				</linearGradient>
				<path style="fill:url(#SVGID_00000117639776306194115440000007227072876451728295_);" d="M1406.832,2468.979h-292.861
					c-4.584,0-8.334-3.75-8.334-8.334v-192.369c0-4.584,3.75-8.334,8.334-8.334h292.861c4.584,0,8.334,3.75,8.334,8.334v192.369
					C1415.167,2465.229,1411.416,2468.979,1406.832,2468.979z"/>
				<g>
					
						<linearGradient id="SVGID_00000045582319732654457990000012566208679245138839_" gradientUnits="userSpaceOnUse" x1="1434.9268" y1="2531.9971" x2="1581.5045" y2="2531.9971" gradientTransform="matrix(1 0.0077 -0.0077 1 9.5247 16.8137)">
						<stop  offset="0" style="stop-color:#4F52FF"/>
						<stop  offset="1" style="stop-color:#4042E2"/>
					</linearGradient>
					<path style="fill:url(#SVGID_00000045582319732654457990000012566208679245138839_);" d="M1550.931,2530.951
						c-35.423-8.131-117.295-3.76-117.295-3.76l-3.33,9.018l-5.514,44.824c0,0,77.968,14.053,116.401,14.02
						c3.922-0.004,7.508-0.592,10.784-1.612c1.171-1.051,2.317-2.142,3.4-3.324
						C1571.681,2572.309,1566.972,2546.15,1550.931,2530.951z"/>
					
						<linearGradient id="SVGID_00000088829709623944308780000009841982813086845603_" gradientUnits="userSpaceOnUse" x1="1592.8519" y1="1742.3672" x2="1579.3645" y2="2106.5249">
						<stop  offset="0" style="stop-color:#4F52FF"/>
						<stop  offset="1" style="stop-color:#4042E2"/>
					</linearGradient>
					<path style="fill:url(#SVGID_00000088829709623944308780000009841982813086845603_);" d="M1554.441,2531.839
						c-1.11-0.312-2.284-0.607-3.51-0.889c16.041,15.199,20.75,41.358,4.445,59.166c-1.083,1.183-2.229,2.273-3.4,3.324
						C1580.807,2584.468,1584.22,2540.217,1554.441,2531.839z"/>
					
						<linearGradient id="SVGID_00000085239674193259234150000001713401142900314032_" gradientUnits="userSpaceOnUse" x1="1521.7017" y1="2295.5735" x2="1366.9784" y2="2714.6582">
						<stop  offset="0" style="stop-color:#FEBBBA"/>
						<stop  offset="1" style="stop-color:#FF928E"/>
					</linearGradient>
					<path style="fill:url(#SVGID_00000085239674193259234150000001713401142900314032_);" d="M1410.112,2524.667l13.863,0.591
						c7.449,0.318,14.468,3.947,19.476,10.07c5.009,6.123,7.584,14.223,7.146,22.476c-0.35,6.58-3.05,12.734-7.502,17.1
						c-4.453,4.365-10.291,6.583-16.222,6.161l-21.212-1.509L1410.112,2524.667z"/>
				</g>
				<g>
					
						<linearGradient id="SVGID_00000025418057911234687520000001784615029778993544_" gradientUnits="userSpaceOnUse" x1="-5934.2383" y1="2491.7896" x2="-5787.5981" y2="2491.7896" gradientTransform="matrix(-0.9998 -0.02 -0.02 0.9998 -4813.9961 -50.8396)">
						<stop  offset="0" style="stop-color:#4F52FF"/>
						<stop  offset="1" style="stop-color:#4042E2"/>
					</linearGradient>
					<path style="fill:url(#SVGID_00000025418057911234687520000001784615029778993544_);" d="M943.949,2526.639
						c35.613-7.042,117.344-0.159,117.344-0.159l3.103,9.117l4.395,44.977c0,0-78.289,11.656-116.706,10.442
						c-3.92-0.124-7.49-0.822-10.74-1.942c-1.145-1.087-2.263-2.212-3.316-3.428C922.174,2567.344,927.535,2541.34,943.949,2526.639
						z"/>
					
						<linearGradient id="SVGID_00000150792727580525557090000012477575861088665776_" gradientUnits="userSpaceOnUse" x1="961.8734" y1="1718.9945" x2="948.3861" y2="2083.1519">
						<stop  offset="0" style="stop-color:#4F52FF"/>
						<stop  offset="1" style="stop-color:#4042E2"/>
					</linearGradient>
					<path style="fill:url(#SVGID_00000150792727580525557090000012477575861088665776_);" d="M940.418,2527.42
						c1.117-0.278,2.298-0.537,3.531-0.781c-16.414,14.701-21.775,40.705-5.92,59.006c1.053,1.215,2.17,2.341,3.316,3.428
						C912.749,2579.219,910.441,2534.88,940.418,2527.42z"/>
					
						<linearGradient id="SVGID_00000045612264998142638350000015671133389489902248_" gradientUnits="userSpaceOnUse" x1="1211.7108" y1="2169.2822" x2="1056.9064" y2="2588.5872">
						<stop  offset="0" style="stop-color:#FEBBBA"/>
						<stop  offset="1" style="stop-color:#FF928E"/>
					</linearGradient>
					<path style="fill:url(#SVGID_00000045612264998142638350000015671133389489902248_);" d="M1084.871,2524.679l-13.873,0.166
						c-7.453,0.09-14.561,3.502-19.72,9.469c-5.159,5.967-7.935,13.985-7.704,22.248c0.185,6.588,2.731,12.823,7.073,17.324
						c4.342,4.501,10.122,6.896,16.062,6.656l21.242-0.858L1084.871,2524.679z"/>
				</g>
				
					<linearGradient id="SVGID_00000022521066192962316600000009201206490773989293_" gradientUnits="userSpaceOnUse" x1="1471.7776" y1="1720.8478" x2="1394.2255" y2="2105.2356">
					<stop  offset="0" style="stop-color:#4F52FF"/>
					<stop  offset="1" style="stop-color:#4042E2"/>
				</linearGradient>
				<path style="fill:url(#SVGID_00000022521066192962316600000009201206490773989293_);" d="M1560.838,2390.43
					c-16.064-36.973-55.355-42.974-88.796-25.687c-0.582,0.764-212.37,109.308-399.14,156.879
					c5.347,17.142,8.096,35.381,8.695,53.309c0.108,3.994,0.042,7.933-0.193,11.821c143.226-7.356,298.669-55.122,432.242-97.099
					C1555.067,2476.295,1578.643,2431.409,1560.838,2390.43z"/>
				
					<linearGradient id="SVGID_00000034771625496673685180000009807527198821685931_" gradientUnits="userSpaceOnUse" x1="1223.5487" y1="2558.4817" x2="1118.1316" y2="2289.6682">
					<stop  offset="0" style="stop-color:#4F52FF"/>
					<stop  offset="1" style="stop-color:#4042E2"/>
				</linearGradient>
				<path style="fill:url(#SVGID_00000034771625496673685180000009807527198821685931_);" d="M1411.13,2577.74
					c-0.56-20.664,3.458-39.901,12.053-57.71c0.246-0.816,0.54-1.599,0.8-2.405c-10.665-3.303-24.444-7.779-42.544-13.919
					c-132.626-45.388-233.803-91.217-330.367-143.974c-37.513-20.496-80.166-6.759-92.175,37.628
					c-10.72,39.626,12.821,73.456,48.55,85.344c106.891,35.57,51.236,25.69,86.146,36.925
					c93.755,28.991,210.421,55.398,317.76,62.609C1411.272,2580.738,1411.18,2579.236,1411.13,2577.74z"/>
				
					<linearGradient id="SVGID_00000044868525424416282090000012923139793470371216_" gradientUnits="userSpaceOnUse" x1="1261.1737" y1="2189.8391" x2="1257.6047" y2="1879.3174">
					<stop  offset="0" style="stop-color:#FEBBBA"/>
					<stop  offset="1" style="stop-color:#FF928E"/>
				</linearGradient>
				<path style="fill:url(#SVGID_00000044868525424416282090000012923139793470371216_);" d="M1179.254,2037.512
					c0,0,14.264,61.811,83.514,60.528c70.534-1.283,76.822-60.73,76.822-60.73l-46.074-9.859l-3.85-51.338l-69.306,5.134
					l-1.283,48.771L1179.254,2037.512z"/>
				
					<linearGradient id="SVGID_00000005960614168034942250000014606182828182101910_" gradientUnits="userSpaceOnUse" x1="1376.161" y1="1457.891" x2="1387.2787" y2="1187.6833" gradientTransform="matrix(0.987 0.1608 -0.1608 0.987 126.9837 357.2448)">
					<stop  offset="0" style="stop-color:#FEBBBA"/>
					<stop  offset="1" style="stop-color:#FF928E"/>
				</linearGradient>
				<path style="fill:url(#SVGID_00000005960614168034942250000014606182828182101910_);" d="M1230.089,1830.656
					c0,0-79.424,153.849,14.791,191.176c66.455,26.328,108.122-102.168,95.694-136.971c-19.215-53.812-31.871-47.426-31.871-47.426
					L1230.089,1830.656z"/>
				
					<linearGradient id="SVGID_00000051353587955782216470000007058451159084836529_" gradientUnits="userSpaceOnUse" x1="1507.5032" y1="997.8911" x2="1364.3892" y2="1292.8806" gradientTransform="matrix(0.987 0.1608 -0.1608 0.987 126.9837 357.2448)">
					<stop  offset="0" style="stop-color:#09005D"/>
					<stop  offset="1" style="stop-color:#1A0F91"/>
				</linearGradient>
				<path style="fill:url(#SVGID_00000051353587955782216470000007058451159084836529_);" d="M1359.686,1816.657
					c39.237,10.785,5.704,95.881-53.37,75.757c-59.074-20.123-82.288-19.829-91.493-3.608
					c-9.206,16.222-11.183,73.827-31.157,45.354c-21.898-31.216-34.108-93.871-7.259-114.069
					c23.995-18.051,29.594-46.039,58.374-45.069c38.201,1.287,67.744-15.646,84.987-3.434
					C1339.572,1785.613,1330.815,1808.721,1359.686,1816.657z"/>
				
					<linearGradient id="SVGID_00000013153817486497826570000003422479465239828403_" gradientUnits="userSpaceOnUse" x1="928.2558" y1="2413.7632" x2="945.6781" y2="1990.3243" gradientTransform="matrix(0.9911 -0.1329 0.1329 0.9911 -26.0254 -216.2621)">
					<stop  offset="0" style="stop-color:#FEBBBA"/>
					<stop  offset="1" style="stop-color:#FF928E"/>
				</linearGradient>
				<path style="fill:url(#SVGID_00000013153817486497826570000003422479465239828403_);" d="M1211.191,1902.036
					c0,0-16.94-18.226-19.651,3.741c-2.712,21.967,5.994,50.258,16.192,34.75C1217.93,1925.02,1211.191,1902.036,1211.191,1902.036z
					"/>
			</g>
			<path style="fill:#7D97F4;" d="M1278.659,2316.551c1.641,11.09-4.301,21.157-15.391,22.798
				c-11.09,1.641-21.411-6.019-23.052-17.109c-1.641-11.09,3.435-22.105,14.525-23.746
				C1265.832,2296.853,1277.018,2305.461,1278.659,2316.551z"/>
		</g>
	</g>
</g>
</svg>
