<?xml version="1.0" encoding="utf-8"?>
<!-- Generator: Adobe Illustrator 27.5.0, SVG Export Plug-In . SVG Version: 6.00 Build 0)  -->
<svg version="1.1" xmlns="http://www.w3.org/2000/svg" xmlns:xlink="http://www.w3.org/1999/xlink" x="0px" y="0px"
	 viewBox="0 0 500 500" style="enable-background:new 0 0 500 500;" xml:space="preserve">
<g id="Background_Complete">
	<g>
		<rect y="382.398" style="fill:#EBEBEB;" width="500" height="0.25"/>
		<rect x="416.779" y="398.494" style="fill:#EBEBEB;" width="33.122" height="0.25"/>
		<rect x="322.527" y="401.208" style="fill:#EBEBEB;" width="8.693" height="0.25"/>
		<rect x="396.586" y="389.208" style="fill:#EBEBEB;" width="19.192" height="0.25"/>
		<rect x="52.459" y="390.888" style="fill:#EBEBEB;" width="43.193" height="0.25"/>
		<rect x="104.556" y="390.888" style="fill:#EBEBEB;" width="6.333" height="0.25"/>
		<rect x="131.471" y="395.111" style="fill:#EBEBEB;" width="93.676" height="0.25"/>
		<path style="fill:#EBEBEB;" d="M237.014,337.8H43.915c-3.147,0-5.708-2.561-5.708-5.708V60.66c0-3.147,2.561-5.708,5.708-5.708
			h193.099c3.146,0,5.707,2.561,5.707,5.708v271.432C242.721,335.239,240.16,337.8,237.014,337.8z M43.915,55.203
			c-3.01,0-5.458,2.448-5.458,5.458v271.432c0,3.01,2.448,5.458,5.458,5.458h193.099c3.009,0,5.457-2.448,5.457-5.458V60.66
			c0-3.009-2.448-5.458-5.457-5.458H43.915z"/>
		<path style="fill:#EBEBEB;" d="M453.31,337.8H260.212c-3.147,0-5.707-2.561-5.707-5.708V60.66c0-3.147,2.561-5.708,5.707-5.708
			H453.31c3.148,0,5.708,2.561,5.708,5.708v271.432C459.019,335.239,456.458,337.8,453.31,337.8z M260.212,55.203
			c-3.009,0-5.457,2.448-5.457,5.458v271.432c0,3.01,2.448,5.458,5.457,5.458H453.31c3.01,0,5.458-2.448,5.458-5.458V60.66
			c0-3.009-2.448-5.458-5.458-5.458H260.212z"/>
	</g>
	<g>
		<g>
			<rect x="200.952" y="84.616" style="fill:#F5F5F5;" width="90.902" height="113.339"/>
			<path style="fill:#E0E0E0;" d="M217.601,99.412c11.447-8.203,11.476-12.704,19.679-3.514c8.203,9.19,13.906,20.309,28.79,14.509
				c14.884-5.799,23.17,9.215,13.643,23.026c-9.527,13.811-6.035,32.684,0,41.715c6.035,9.031,3.219,21.197-6.398,14.395
				c-9.617-6.802-22.647-6.802-31.951-2.008c-9.304,4.793-20.207,16.672-19.37-4.079c0.837-20.751-9.846-14.248-12.592-24.738
				c-2.747-10.49,10.517-3.837,8.199-26.816C215.283,108.923,207.452,106.685,217.601,99.412z"/>
			<path style="fill:#EBEBEB;" d="M273.598,95.898c-13.92-6.166-19.823-9.21-26.338,4.544
				c-6.515,13.754-19.656,32.049-29.144,26.976c-9.488-5.073-6.612,18.021,11.604,12.226c18.215-5.795,22.595-2.867,29.033,11.008
				c6.438,13.875,4.884,21.594,12.612,16.536c7.728-5.058-2.932-20.64,1.439-33.221C277.176,121.386,286.098,101.435,273.598,95.898
				z"/>
			<path style="fill:#EBEBEB;" d="M224.818,166.085c5.616-10.764-1.962-27.975,12.681-20.758s8.534,34.994,21.146,28.428
				c12.612-6.566,4.076-25.576,14.844-26.509c10.768-0.933,9.601,41.432-6.114,42.299c-15.714,0.868-29.265-13.094-33.994-8.27
				c-4.729,4.824-17.93,15.839-20.677,2.183C209.958,169.8,220.504,174.354,224.818,166.085z"/>
		</g>
		<g>
			
				<rect x="316.276" y="82.042" transform="matrix(-1 -1.224647e-16 1.224647e-16 -1 720.8945 282.5707)" style="fill:#F5F5F5;" width="88.343" height="118.487"/>
			<path style="fill:#E6E6E6;" d="M328.749,93.943c2.555-4.739,65.766,19.085,64.062,24.232c-1.704,5.147-49.391,9.423-53.59,16.393
				c-4.198,6.969,50.513,16.259,49.521,20.961c-0.991,4.702-52.761,0.558-53.72,5.267c-0.959,4.708,54.537,12.89,50.833,19.964
				c-3.704,7.074-49.804,2.006-54.872-9.98c-5.068-11.986,22.841-11.179,23.633-19.134c0.792-7.955-29.744-9.495-25.867-22.265
				c3.877-12.77,43.999-3.562,40.259-14.699C365.268,103.545,323.913,102.913,328.749,93.943z"/>
			<path style="fill:#EBEBEB;" d="M377.103,94.576c8.251-1.932,17.781,12.81,7.983,9.513
				C375.288,100.792,368.851,96.508,377.103,94.576z"/>
			<path style="fill:#EBEBEB;" d="M339.866,113.23c0.411-4.112-11.755-3.381-11.895,0
				C327.832,116.611,339.437,117.519,339.866,113.23z"/>
			<path style="fill:#EBEBEB;" d="M385.855,137.973c-4.457-7.349-17.562-4.17-17.42-0.782
				C368.577,140.578,390.671,145.912,385.855,137.973z"/>
		</g>
		<g>
			<rect x="89.468" y="82.042" style="fill:#F5F5F5;" width="88.343" height="118.487"/>
			<path style="fill:#EBEBEB;" d="M105.909,168.548c0,0-8.344-64.534-3.191-72.28c5.153-7.746,15.733,20.191,17.633,13.652
				c1.9-6.538,3.098-20.465,9.929-19.254s4.434,13.228,9.707,13.691c5.273,0.463,11.732-15.382,14.015-13.691
				c2.283,1.691,0.366,12.748,4.68,13.691c4.314,0.942,3.124-10.747,8.752-7.059c5.628,3.688-3.264,71.25-3.264,71.25
				s3.371-53.179-2.497-53.18c-5.868-0.001-8.264,16.515-12.099,8.736c-3.835-7.779,0.396-13.397-2.199-14.183
				c-2.595-0.786-7.994,13.137-12.005,11.209c-4.011-1.928-2.333-9.943-5.089-11.209c-2.756-1.265,7.73,18.947-7.579,14.354
				c-15.309-4.594-12.845-17.26-15.036-12.605C105.474,116.325,105.909,168.548,105.909,168.548z"/>
			<path style="fill:#EBEBEB;" d="M151.217,150.925c-6.015-7.922-9.774,7.418-16.581,12.464
				c-6.808,5.046-4.379-18.637-13.143-13.087c-8.764,5.55-2.518,19.884-8.337,24.221c-5.82,4.337-4.837,19.86,1.682,11.919
				c6.519-7.941,6.399-28.897,11.313-15.543c4.913,13.354,7.058,26.393,11.379,14.841c4.32-11.553,0.523-29.177,6.915-19.106
				c6.393,10.07,6.532,23.653,12.933,18.12c6.402-5.533-3.821-9.092-3.563-15.222C154.072,163.401,153.755,154.267,151.217,150.925z
				"/>
		</g>
		<g>
			<g>
				<path style="fill:#EBEBEB;" d="M411.56,348.588c0.152-1.024,3.652-25.172-3.359-33.509c-1.552-1.845-3.51-2.81-5.821-2.867
					c-14.153-0.331-16.089,11.036-16.106,11.152l1.669,0.257c0.065-0.407,1.743-10.027,14.396-9.721
					c1.831,0.044,3.326,0.786,4.57,2.265c6.527,7.761,3.018,31.93,2.981,32.173L411.56,348.588z"/>
			</g>
			<g>
				<path style="fill:#EBEBEB;" d="M412.416,347.488l1.688-0.053c-0.007-0.222-0.561-22.25,10.293-26.801
					c10.637-4.456,15.422,4.706,15.62,5.099l1.509-0.759c-0.055-0.11-5.67-10.976-17.782-5.897
					C411.821,324.075,412.387,346.534,412.416,347.488z"/>
			</g>
			<g>
				<path style="fill:#EBEBEB;" d="M412.367,349.218c0-0.351,0.101-35.19,6.894-45.38c6.522-9.783,17.043-5.177,17.487-4.975
					l0.698-1.538c-0.122-0.055-12.263-5.415-19.591,5.577c-7.075,10.613-7.177,44.862-7.178,46.315L412.367,349.218z"/>
			</g>
			<path style="fill:#E0E0E0;" d="M400.355,313.049c0,0,6.179,2.278,4.342,7.656c-1.837,5.378-21.378,14.23-21.378,14.23
				s-8.184-7.501-0.668-19.7C390.167,303.036,400.188,309.201,400.355,313.049z"/>
			<path style="fill:#E0E0E0;" d="M419.568,302.004c0,0-4.387-0.471-4.034-3.143c0.353-2.672,17.054-9.55,26.908,1.572
				c0,0-6.31,10.838-15.43,10.98C417.891,311.554,419.568,302.004,419.568,302.004z"/>
			<path style="fill:#E0E0E0;" d="M424.07,319.856c0,0-3.028-2.445,0.24-3.638c3.268-1.193,19.301-0.854,19.468,15.028
				c0,0-18.673,3.103-20.985-2.946C420.482,322.249,424.07,319.856,424.07,319.856z"/>
			<polygon style="fill:#EBEBEB;" points="397.034,380.943 426.012,380.943 429.138,349.217 393.908,349.217 			"/>
			
				<rect x="392.361" y="345.717" transform="matrix(-1 -1.224647e-16 1.224647e-16 -1 823.0455 698.4343)" style="fill:#E0E0E0;" width="38.324" height="7.001"/>
		</g>
		<g>
			<path style="fill:#E0E0E0;" d="M93.134,352.215c0,0,5.649-12.326-0.805-24.477c-6.455-12.151-8.325-15.013-4.211-17.502
				c4.115-2.489,6.002,9.72,6.002,9.72s3.468-8.4,0.605-17.19c-2.864-8.791-4.66-23.108-0.749-24.644
				c3.911-1.536,0.747,17.861,4.14,24.473c0,0,2.85-7.361,3.319-14.421c0.469-7.061-0.264-18.335,2.825-21.227
				c3.088-2.892,5.067-0.891,2.032,14.69c-3.035,15.582-3.013,28.247-3.013,28.247s6.703-20.439,11.203-21.035
				c4.499-0.596,4.493,6.023,0.642,11.764c-3.851,5.741-11.278,16.026-12.496,21.318c0,0,7.358-15.381,13.977-10.667
				c6.619,4.714-5.761,14.005-11.279,17.362c-5.518,3.357-9.35,24.401-9.35,24.401L93.134,352.215z"/>
			<path style="fill:#EBEBEB;" d="M97.594,357.27c0,0-5.501-12.409,1.099-24.462c6.6-12.053,8.505-14.887,4.42-17.438
				c-4.084-2.551-6.118,9.63-6.118,9.63s-3.367-8.451-0.398-17.198c2.969-8.747,4.936-23.037,1.044-24.631
				c-3.892-1.594-0.961,17.849-4.433,24.409c0,0-2.762-7.402-3.146-14.469c-0.384-7.067,0.483-18.33-2.57-21.267
				c-3.053-2.938-5.056-0.967-2.208,14.659c2.848,15.625,2.674,28.29,2.674,28.29s-6.458-20.538-10.949-21.201
				c-4.492-0.663-4.565,5.956-0.783,11.754c3.782,5.798,11.085,16.193,12.239,21.503c0,0-7.173-15.49-13.848-10.875
				c-6.675,4.615,5.593,14.09,11.07,17.529c5.477,3.439,9.056,24.538,9.056,24.538L97.594,357.27z"/>
			<g>
				<polygon style="fill:#EBEBEB;" points="72.222,348.424 117.665,348.424 113.987,380.943 75.9,380.943 				"/>
			</g>
		</g>
	</g>
</g>
<g id="Background_Simple" style="display:none;">
	<g style="display:inline;">
		<path style="fill:#407BFF;" d="M70.82,308.439c5.151,16.687,15.102,37.75,32.982,43.745c26.473,8.875,41.434-21.878,47.762-42.013
			c9.245-29.414,15.482-59.973,29.018-87.869c10.68-22.011,29.949-47.412,56.506-49.799c14.29-1.285,22.556,7.934,27.066,20.554
			c5.578,15.61,8.118,32.113,12.182,48.184c8.035,31.776,32.217,61.148,63.848,71.391c17.957,5.815,37.146,5.118,54.1-3.622
			c73.248-37.759,44.449-150.487-3.133-195.524c-76.926-72.812-202.133-51.12-272.325,19.691
			c-28.079,28.327-47.18,66.047-52.563,105.63C63.246,261.001,63.93,286.119,70.82,308.439z"/>
		<path style="opacity:0.9;fill:#FFFFFF;" d="M70.82,308.439c5.151,16.687,15.102,37.75,32.982,43.745
			c26.473,8.875,41.434-21.878,47.762-42.013c9.245-29.414,15.482-59.973,29.018-87.869c10.68-22.011,29.949-47.412,56.506-49.799
			c14.29-1.285,22.556,7.934,27.066,20.554c5.578,15.61,8.118,32.113,12.182,48.184c8.035,31.776,32.217,61.148,63.848,71.391
			c17.957,5.815,37.146,5.118,54.1-3.622c73.248-37.759,44.449-150.487-3.133-195.524c-76.926-72.812-202.133-51.12-272.325,19.691
			c-28.079,28.327-47.18,66.047-52.563,105.63C63.246,261.001,63.93,286.119,70.82,308.439z"/>
	</g>
</g>
<g id="Shadow_1_">
	<ellipse id="_x3C_Path_x3E__359_" style="fill:#F5F5F5;" cx="250" cy="416.238" rx="193.889" ry="11.323"/>
</g>
<g id="Device">
	<g>
		<g>
			<path style="fill:#263238;" d="M240.91,399.578c0,1.54-0.36,2.97-0.98,4.15c-0.62,1.19-1.5,2.12-2.53,2.67
				c0,0-3.75,2.25-4.26,2.47l-0.04,0.02v-0.01c-0.69,0.29-1.43,0.45-2.19,0.45c-4.08,0-7.38-4.31-7.38-9.63
				c0-2.51,0.74-4.78,1.95-6.5l-2.37-13.2l-6.14-34.19l-13.17-73.28h9.84l13.17,73.28l6.14,34.19l2.07,11.51l2.06,1.1
				C239.31,393.598,240.91,396.338,240.91,399.578z"/>
			<path style="opacity:0.4;fill:#FFFFFF;" d="M240.91,399.578c0,1.54-0.36,2.97-0.98,4.15c-0.62,1.19-1.5,2.12-2.53,2.67
				c0,0-3.75,2.25-4.26,2.47l-0.04,0.02v-0.01c-0.69,0.29-1.43,0.45-2.19,0.45c-4.08,0-7.38-4.31-7.38-9.63
				c0-2.51,0.74-4.78,1.95-6.5l-2.37-13.2l-6.14-34.19l-13.17-73.28h9.84l13.17,73.28l6.14,34.19l2.07,11.51l2.06,1.1
				C239.31,393.598,240.91,396.338,240.91,399.578z"/>
			<path style="opacity:0.2;fill:#FFFFFF;" d="M240.912,399.577c0,4.075-2.532,7.378-5.656,7.378c-3.124,0-5.656-3.303-5.656-7.378
				c0-4.075,2.532-7.378,5.656-7.378C238.38,392.199,240.912,395.502,240.912,399.577z"/>
			<polygon style="opacity:0.2;enable-background:new    ;" points="232.95,379.998 223.11,379.998 216.97,345.808 203.8,272.528 
				213.64,272.528 226.81,345.808 			"/>
		</g>
		<g>
			<rect x="367.305" y="294.8" style="fill:#263238;" width="44.069" height="12.595"/>
			<path style="fill:#263238;" d="M407.516,333.56l13.908-69.68c0.297-1.489-0.842-2.878-2.36-2.878h-4.234
				c-1.702,0-3.167,1.202-3.5,2.871l-13.909,69.68c-0.297,1.489,0.842,2.878,2.36,2.878h4.236
				C405.718,336.431,407.183,335.229,407.516,333.56z"/>
			<path style="fill:#263238;" d="M418.647,291.662c-1.915,0-6.622,0-8.537,0c-2.565,0-4.644,4.036-4.644,9.016
				c0,4.979,2.079,9.016,4.644,9.016c1.915,0,6.622,0,8.537,0c2.565,0,4.644-4.036,4.644-9.016
				C423.291,295.699,421.211,291.662,418.647,291.662z"/>
			<path style="opacity:0.2;fill:#FFFFFF;" d="M422.725,300.678c0,3.71-1.476,6.717-3.297,6.717c-1.821,0-3.297-3.007-3.297-6.717
				c0-3.71,1.476-6.717,3.297-6.717C421.249,293.961,422.725,296.968,422.725,300.678z"/>
			<path style="opacity:0.2;fill:#FFFFFF;" d="M407.516,333.56l13.908-69.68c0.297-1.489-0.842-2.878-2.36-2.878h-4.234
				c-1.702,0-3.167,1.202-3.5,2.871l-13.909,69.68c-0.297,1.489,0.842,2.878,2.36,2.878h4.236
				C405.718,336.431,407.183,335.229,407.516,333.56z"/>
		</g>
		<polygon style="fill:#263238;" points="406.91,391.118 406.91,413.358 180.69,413.358 180.69,407.168 227.79,407.168 235,391.118 
					"/>
		<polygon style="opacity:0.2;fill:#FFFFFF;" points="406.91,391.118 406.91,413.358 320.69,413.358 320.69,407.168 367.79,407.168 
			375,391.118 		"/>
		<g>
			<path style="fill:#263238;" d="M400.91,399.578c0,1.54-0.36,2.97-0.98,4.15c-0.62,1.19-1.5,2.12-2.53,2.67
				c0,0-3.75,2.25-4.26,2.47l-0.04,0.02v-0.01c-0.69,0.29-1.43,0.45-2.19,0.45c-4.08,0-7.38-4.31-7.38-9.63
				c0-2.51,0.74-4.78,1.95-6.5l-2.37-13.2l-6.14-34.19l-13.17-73.28h9.84l13.17,73.28l6.14,34.19l2.07,11.51l2.06,1.1
				C399.31,393.598,400.91,396.338,400.91,399.578z"/>
			<path style="opacity:0.4;fill:#FFFFFF;" d="M400.91,399.578c0,1.54-0.36,2.97-0.98,4.15c-0.62,1.19-1.5,2.12-2.53,2.67
				c0,0-3.75,2.25-4.26,2.47l-0.04,0.02v-0.01c-0.69,0.29-1.43,0.45-2.19,0.45c-4.08,0-7.38-4.31-7.38-9.63
				c0-2.51,0.74-4.78,1.95-6.5l-2.37-13.2l-6.14-34.19l-13.17-73.28h9.84l13.17,73.28l6.14,34.19l2.07,11.51l2.06,1.1
				C399.31,393.598,400.91,396.338,400.91,399.578z"/>
			<path style="opacity:0.2;fill:#FFFFFF;" d="M400.912,399.577c0,4.075-2.532,7.378-5.656,7.378c-3.124,0-5.656-3.303-5.656-7.378
				c0-4.075,2.532-7.378,5.656-7.378C398.38,392.199,400.912,395.502,400.912,399.577z"/>
			<polygon style="opacity:0.2;enable-background:new    ;" points="392.95,379.998 383.11,379.998 376.97,345.808 363.8,272.528 
				373.64,272.528 386.81,345.808 			"/>
		</g>
		<g>
			<path style="fill:#263238;" d="M376.731,374.078H167.563c-4.436,0-7.304-3.644-6.407-8.14l28.399-142.278
				c0.897-4.495,5.221-8.14,9.656-8.14h209.168c4.436,0,7.304,3.644,6.407,8.14l-28.399,142.278
				C385.49,370.434,381.167,374.078,376.731,374.078z"/>
			<path style="opacity:0.1;fill:#FFFFFF;" d="M376.731,374.078H167.563c-4.436,0-7.304-3.644-6.407-8.14l28.399-142.278
				c0.897-4.495,5.221-8.14,9.656-8.14h209.168c4.436,0,7.304,3.644,6.407,8.14l-28.399,142.278
				C385.49,370.434,381.167,374.078,376.731,374.078z"/>
			<polygon style="fill:#407BFF;" points="366.046,350.669 187.593,350.669 211.919,228.795 390.372,228.795 			"/>
			<path style="opacity:0.2;fill:#FFFFFF;" d="M389.372,313.845h-7.912c-1.857,0-3.058-1.526-2.682-3.408l6.242-31.274
				c0.376-1.882,2.186-3.408,4.043-3.408h7.912c1.857,0,3.058,1.526,2.682,3.408l-6.242,31.274
				C393.039,312.319,391.229,313.845,389.372,313.845z"/>
			<path style="opacity:0.2;enable-background:new    ;" d="M396.756,285.073c-0.625,3.133-3.638,5.673-6.73,5.673
				c-3.091,0-5.09-2.54-4.465-5.673c0.625-3.133,3.638-5.673,6.73-5.673C395.383,279.4,397.382,281.94,396.756,285.073z"/>
			<path style="opacity:0.2;enable-background:new    ;" d="M388.546,309.727h-4.615c-0.692,0-1.139-0.568-0.999-1.27l3.148-15.771
				c0.14-0.701,0.814-1.27,1.506-1.27h4.615c0.692,0,1.139,0.568,0.999,1.27l-3.148,15.771
				C389.912,309.159,389.237,309.727,388.546,309.727z"/>
		</g>
		<path style="fill:#FFFFFF;" d="M215.748,284.257c0,0,15.494-20.241,25.164-24.793c9.67-4.552,8.088,21.163,14.418,27.888
			c6.33,6.725,20.176-21.363,29.67-23.736c9.495-2.374,3.705,34.943,12.138,43.779c8.433,8.836,67.943-52.483,67.943-52.483
			l-3.259,7.516l8.331-8.703l-8.331,12.264l5.483-4.987c0,0-27.639,32.331-52.401,48.725c-24.762,16.394-28.718-0.948-28.718-7.112
			c0-6.164,0.144-26.193-3.884-26.86c-4.028-0.667-19.853,22.729-27.369,24.679c-7.516,1.95-9.89-9.017-9.89-9.017
			s2.985,3.71,7.427,3.383c0,0-5.053,0.209-7.031-10.543c-1.978-10.752-3.165-19.059-7.517-15.895
			c-4.352,3.165-17.407,18.989-17.407,18.989l1.839-5.585L211.022,294.8l9.494-13.034L215.748,284.257z"/>
		<polygon style="fill:#FFFFFF;" points="203.695,345.407 194.202,345.407 195.99,336.449 205.484,336.449 		"/>
		<polygon style="opacity:0.8;fill:#FFFFFF;" points="214.875,345.407 205.381,345.407 207.169,336.449 216.663,336.449 		"/>
		<polygon style="opacity:0.6;fill:#FFFFFF;" points="226.054,345.407 216.56,345.407 218.348,336.449 227.842,336.449 		"/>
		<polygon style="opacity:0.4;fill:#FFFFFF;" points="237.234,345.407 227.74,345.407 229.528,336.449 239.022,336.449 		"/>
		<polygon style="opacity:0.2;fill:#FFFFFF;" points="248.413,345.407 238.919,345.407 240.707,336.449 250.201,336.449 		"/>
	</g>
</g>
<g id="Character_2">
	<g>
		<g>
			<g>
				
					<rect x="245.357" y="178.384" transform="matrix(0.9669 -0.2553 0.2553 0.9669 -38.6458 76.6734)" style="fill:#407BFF;" width="61.355" height="17.643"/>
				
					<rect x="245.357" y="178.384" transform="matrix(0.9669 -0.2553 0.2553 0.9669 -38.6458 76.6734)" style="opacity:0.6;fill:#FFFFFF;enable-background:new    ;" width="61.355" height="17.643"/>
				
					<rect x="247.681" y="186.38" transform="matrix(0.9669 -0.2553 0.2553 0.9669 -40.9506 70.9077)" style="fill:#263238;" width="9.975" height="13.639"/>
				
					<rect x="258.072" y="183.637" transform="matrix(0.9669 -0.2553 0.2553 0.9669 -39.9047 73.4666)" style="opacity:0.8;fill:#263238;" width="9.975" height="13.639"/>
				
					<rect x="268.463" y="180.893" transform="matrix(0.9669 -0.2553 0.2553 0.9669 -38.8611 76.0313)" style="opacity:0.6;fill:#263238;" width="9.975" height="13.639"/>
				
					<rect x="278.853" y="178.149" transform="matrix(0.9669 -0.2553 0.2553 0.9669 -37.8163 78.5932)" style="opacity:0.4;fill:#263238;" width="9.975" height="13.639"/>
				
					<rect x="289.244" y="175.406" transform="matrix(0.9669 -0.2553 0.2553 0.9669 -36.7715 81.155)" style="opacity:0.2;fill:#263238;" width="9.975" height="13.639"/>
			</g>
			<g>
				<rect x="246.671" y="170.07" style="fill:#407BFF;" width="61.355" height="17.643"/>
				<rect x="246.671" y="170.07" style="opacity:0.7;fill:#FFFFFF;enable-background:new    ;" width="61.355" height="17.643"/>
				<rect x="248.24" y="171.902" style="fill:#407BFF;" width="9.975" height="13.639"/>
				<rect x="258.987" y="171.902" style="opacity:0.8;fill:#407BFF;" width="9.975" height="13.639"/>
				<rect x="269.734" y="171.902" style="opacity:0.6;fill:#407BFF;" width="9.975" height="13.639"/>
				<rect x="280.48" y="171.902" style="opacity:0.4;fill:#407BFF;" width="9.975" height="13.639"/>
				<rect x="291.227" y="171.902" style="opacity:0.2;fill:#407BFF;" width="9.975" height="13.639"/>
			</g>
			<circle style="fill:#263238;" cx="305.544" cy="185.541" r="1.086"/>
			<g>
				<g>
					<path style="fill:#263238;" d="M309.64,190.389c-0.072,0.967-0.679,1.544-1.616,1.554c0,0,0,0-0.01,0
						c-1.708,0-2.81-1.729-3.427-3.149l1.009-0.268c0.535,1.184,1.359,2.388,2.419,2.388c0.01,0,0.01,0,0.01,0
						c0.329,0,0.556-0.103,0.586-0.607c0.052-0.628-0.257-1.544-0.772-2.367c-0.586-0.926-1.451-1.739-2.377-1.894
						c-0.288-0.041-0.473-0.309-0.422-0.587c0.041-0.278,0.298-0.473,0.586-0.422c0.648,0.113,1.255,0.422,1.791,0.865
						C308.838,187.064,309.743,189.092,309.64,190.389z"/>
				</g>
				<g style="opacity:0.2;enable-background:new    ;">
					<path style="fill:#FFFFFF;" d="M309.64,190.389c-0.072,0.967-0.679,1.544-1.616,1.554c0,0,0,0-0.01,0
						c-1.708,0-2.81-1.729-3.427-3.149l1.009-0.268c0.535,1.184,1.359,2.388,2.419,2.388c0.01,0,0.01,0,0.01,0
						c0.329,0,0.556-0.103,0.586-0.607c0.052-0.628-0.257-1.544-0.772-2.367c-0.586-0.926-1.451-1.739-2.377-1.894
						c-0.288-0.041-0.473-0.309-0.422-0.587c0.041-0.278,0.298-0.473,0.586-0.422c0.648,0.113,1.255,0.422,1.791,0.865
						C308.838,187.064,309.743,189.092,309.64,190.389z"/>
				</g>
			</g>
		</g>
		<path style="fill:#EBB376;" d="M366.534,189.147c4.576,10.117,7.674,22.324,3.619,26.374c-4.054,4.05-18.072-10.705-18.072-10.705
			l3.148-2.13c0,0,9.841,5.186,10.355,4.838c0.514-0.348-3.763-14.943-3.763-14.943L366.534,189.147z"/>
		<path style="fill:#EBB376;" d="M298.883,191.596c0,0-1.212-0.967-2.066-1.865c-0.854-0.898-10.049-0.809-10.463,0.177
			c-0.414,0.986,1.334,5.512,2.864,5.986c1.53,0.474,8.048-0.217,9.087-0.866C299.344,194.379,298.883,191.596,298.883,191.596z"/>
		<path style="fill:#EBB376;" d="M338.298,393.896l-5.34,0.085c-5.425-25.485-9.262-57.024-11.65-80.814
			c-0.373-3.73-0.714-7.259-1.013-10.552c-0.138-1.567-0.277-3.07-0.405-4.519c-0.64-7.152-1.077-12.822-1.343-16.329
			c-0.192-2.558-0.288-3.965-0.288-3.965h19.292l-0.181,4.914l-0.597,16.223l-0.064,1.855l-0.405,10.712l-0.671,18.237
			C342.253,355.418,338.298,393.896,338.298,393.896z"/>
		<path style="fill:#EBB376;" d="M381.573,392.531l-5.255,0.991c-10.52-26.295-20.401-59.966-26.828-83.49
			c-0.991-3.645-1.908-7.056-2.729-10.147c-0.043-0.16-0.075-0.309-0.117-0.458c-1.62-6.139-2.867-11.032-3.645-14.133
			c-0.597-2.43-0.927-3.762-0.927-3.762l19.015-3.283l1.077,7.994l1.588,11.746l0.309,2.302l1.077,8.005l2.889,21.467
			C378.919,353.936,381.573,392.531,381.573,392.531z"/>
		<path style="opacity:0.2;enable-background:new    ;" d="M363.751,297.989l-16.99,1.897c-0.043-0.16-0.075-0.309-0.117-0.458
			c-1.62-6.139-2.867-11.032-3.645-14.133l19.164,0.949L363.751,297.989z"/>
		<path style="opacity:0.2;enable-background:new    ;" d="M337.371,282.715l-0.597,16.223l-0.064,1.855l-16.414,1.823
			c-0.138-1.567-0.277-3.07-0.405-4.519c-0.64-7.152-1.077-12.822-1.343-16.329L337.371,282.715z"/>
		<path style="fill:#407BFF;" d="M322.533,411.61c0.994-0.804,2.126-1.42,3.341-1.817l0,0c0,0,3.635-3.605,5.384-14.46l4.758-1.241
			c1.655-0.401,3.383,0.274,4.328,1.69c0.132,0.192,0.234,0.403,0.303,0.625c0.245,1.164,0.415,2.342,0.508,3.527
			c0.479,3.674,0.068,11.92,0.068,11.92h-0.86l-0.342-7.484c-0.127-2.54-2.071,0.44-2.628,3.175
			c-0.557,2.736-1.739,5.647-7.308,5.784C323.589,413.457,320.892,413.203,322.533,411.61z"/>
		<path style="fill:#407BFF;" d="M340.511,395.87c0.313-2.54,0.41-6.956,0.41-6.956l-10.572,1.172c0,0,1.28,5.022,0.225,8.793
			C335.899,397.482,340.511,395.87,340.511,395.87z"/>
		<path style="fill:#407BFF;" d="M365.55,411.61c0.994-0.804,2.126-1.42,3.341-1.817l0,0c0,0,3.635-3.605,5.383-14.46l4.758-1.241
			c1.655-0.401,3.384,0.274,4.328,1.69c0.132,0.192,0.234,0.403,0.303,0.625c0.245,1.164,0.415,2.342,0.508,3.527
			c0.479,3.674,0.068,11.92,0.068,11.92h-0.86l-0.342-7.484c-0.127-2.54-2.071,0.44-2.628,3.175
			c-0.557,2.736-1.739,5.647-7.308,5.784C366.606,413.457,363.909,413.203,365.55,411.61z"/>
		<path style="fill:#407BFF;" d="M383.528,395.87c0.313-2.54,0.41-6.956,0.41-6.956l-10.572,1.172c0,0,1.28,5.022,0.225,8.793
			C378.916,397.482,383.528,395.87,383.528,395.87z"/>
		<g>
			<path style="fill:#EBB376;" d="M352.335,168.926c-0.078,0.068-0.166,0.137-0.254,0.186c-1.182,0.84-2.54,1.646-4.084,1.998
				c-4.319,0.997-7.269,0.405-9.194-1.549c-0.01,0-0.01,0-0.01,0c-2.697-2.931-3.371-8.124-2.99-14.387
				c0.166-2.872,0.577-5.371,1.368-7.316c0.01-0.02,0.01-0.092,0.02-0.111c0.039-0.078,0.068-0.188,0.107-0.266
				c1.182-2.716,3.146-4.476,6.283-5.218c1.084-0.254,2.315-0.396,3.703-0.416C359.496,141.721,361.695,161.95,352.335,168.926z"/>
			<path style="opacity:0.2;enable-background:new    ;" d="M352.081,169.112c-1.182,0.84-2.54,1.475-4.084,1.827
				c-4.319,0.997-7.269,0.264-9.194-1.72c2.12,0.469,4.973,0.645,7.748-0.635C348.3,167.783,350.244,168.194,352.081,169.112z"/>
			<path style="fill:#EBB376;" d="M353.322,180.143c0.752,3.478-3.752,4.895-3.752,4.895c-7.367-3.146-8.735-7.064-8.735-7.064
				c6.146-3.205,4.367-12.272,4.367-12.272l1.251,0.616l8.776,1.717c0,0-2.435,4.673-2.758,5.738c0,0.01-0.01,0.02-0.01,0.029
				C350.811,179.371,353.322,180.143,353.322,180.143z"/>
			<path style="fill:#263238;" d="M337.166,147.778c0,0-0.673,8.565,7.443,12.243c0,0,3.485,8.897,8.616,9.023
				c6.995,0.171,13.16-9.782,10.736-19.919C360.819,135.979,340.903,134.91,337.166,147.778z"/>
			<path style="fill:#EBB376;" d="M340.499,157.562c0.003-1.336,1.077-3.58,3.154-3.276c2.149,0.315,3.341,5.614-1.942,6.798
				C340.953,161.255,340.493,160.35,340.499,157.562z"/>
			<path style="fill:#263238;" d="M352.081,138.675c0,0-8.171-2.066-12.687,1.219c-5.274,3.837-7.275,7.806-1.029,13.966
				c0,0,13.719-4.447,18.279-3.505c4.56,0.942,7.822,2.271,7.822,2.271C365.425,143.566,356.644,136.824,352.081,138.675z"/>
			<path style="fill:#263238;" d="M340.835,139.07c0.512-1.22,1.555-3.87,4.641-2.406c3.086,1.464,5.366-1.714,7.344-1.187
				s4.02,2.742,5.307,2.558s5.139,0.203,5.374,4.481c0.236,4.278,3.956,4.433,4.352,6.939c0.396,2.505-1.319,3.561,0,5.934
				c1.319,2.374,3.297,2.333,1.714,5.716c-1.582,3.383-3.428,4.261-1.451,7.053c1.978,2.792,0.527,5.429-2.374,6.616
				c0,0-3.824-3.824-5.67-2.242c-1.846,1.582-5.839,3.67-7.601,1.241c-1.762-2.428-4.866-1.505-5.556-0.186
				c-0.69,1.319-3.955-1.055-6.081-1.055c-2.125,0-3.18,2.351-3.18,2.351s-2.822-0.767-1.95-5.112
				c0.873-4.345,2.792-16.491,1.448-19.92C335.809,146.421,340.835,139.07,340.835,139.07z"/>
		</g>
		<path style="fill:#263238;" d="M328.866,179.302c0,0,9.753-3.282,24.456,0.721c14.703,4.004,13.212,9.123,13.212,9.123
			s-11.102,19.899-12.567,42.449l-31.555-3.068C322.412,228.528,318.93,192.839,328.866,179.302z"/>
		<g>
			<path style="fill:#407BFF;" d="M321.188,230.571L321.188,230.571l0.632-6.216l33.409,3.356l-0.697,4.87l-0.011-0.001
				c12.583,22.277,9.536,47.683,9.536,47.683l1.527,12.491c0,0-3.157,1.959-24.323,3.338c-18.613,1.213-23.343-0.716-23.343-0.716
				C311.331,256.719,316.987,238.317,321.188,230.571z"/>
			<path style="opacity:0.6;fill:#FFFFFF;enable-background:new    ;" d="M365.58,292.76c0,0-3.15,1.95-24.32,3.33
				c-18.61,1.22-23.34-0.71-23.34-0.71c-0.22-1.28-0.42-2.53-0.61-3.76c-4-25.74-2.39-42,0.35-51.93c1.09-4,2.37-6.97,3.53-9.12
				l0.23-2.24l0.4-3.97l33.41,3.35l-0.7,4.87h-0.01c12.58,22.28,9.54,47.68,9.54,47.68l1.2,9.9L365.58,292.76z"/>
			<g>
				<polygon style="fill:#263238;" points="335.64,231 320.608,229.81 320.809,225.258 335.975,226.847 				"/>
				<polygon style="fill:#263238;" points="350.689,232.192 336.724,231.086 337.057,226.961 350.993,228.421 				"/>
				<polygon style="fill:#263238;" points="352.075,228.534 355.622,228.906 355.169,232.546 351.773,232.277 				"/>
			</g>
			<g>
				<path style="opacity:0.3;fill:#FFFFFF;enable-background:new    ;" d="M344.02,251.29c-0.07,2.51-0.16,4.41-0.16,4.41l-6.49,5.3
					l-11.07-4.9c0.18-1.29,0.26-3.17,0.28-5.23c0.05-3.75-0.1-8.08-0.2-10.43c-0.05-1.07-0.08-1.73-0.08-1.73l17.56,2.09
					c0.05,0.37,0.09,0.81,0.12,1.29C344.16,244.59,344.11,248.35,344.02,251.29z"/>
				<path style="opacity:0.3;fill:#FFFFFF;enable-background:new    ;" d="M360.98,255.57l-4.22,4.85l-6.33-4.06
					c0-1.46-0.1-3.03-0.27-4.59c-0.38-3.81-1.11-7.57-1.53-9.55c-0.19-0.89-0.31-1.42-0.31-1.42h9.36c0.09,0.27,0.19,0.54,0.27,0.82
					c1.04,3.16,1.78,6.51,2.27,9.14C360.74,253.58,360.98,255.57,360.98,255.57z"/>
				<path style="opacity:0.15;enable-background:new    ;" d="M344.02,251.29c-0.07,2.51-0.16,4.41-0.16,4.41l-6.49,5.3l-11.07-4.9
					c0.18-1.29,0.26-3.17,0.28-5.23c2.56,0.47,6.99,1.83,10.14,5.82C336.72,256.69,338.9,252.27,344.02,251.29z"/>
				<path style="opacity:0.15;enable-background:new    ;" d="M326.38,240.44c-0.05-1.07-0.08-1.73-0.08-1.73l17.56,2.09
					c0.05,0.37,0.09,0.81,0.12,1.29L326.38,240.44z"/>
				<path style="opacity:0.15;enable-background:new    ;" d="M357.95,241.62l-9.32,0.6c-0.19-0.89-0.31-1.42-0.31-1.42h9.36
					C357.77,241.07,357.87,241.34,357.95,241.62z"/>
				<path style="opacity:0.15;enable-background:new    ;" d="M360.98,255.57l-4.22,4.85l-6.33-4.06c0-1.46-0.1-3.03-0.27-4.59
					c5.05,1.68,6.6,5.91,6.6,5.91s0.1-4.63,3.46-6.92C360.74,253.58,360.98,255.57,360.98,255.57z"/>
			</g>
			<path style="opacity:0.15;enable-background:new    ;" d="M365.58,292.76c0,0-3.15,1.95-24.32,3.33
				c-18.61,1.22-23.34-0.71-23.34-0.71c-0.22-1.28-0.42-2.53-0.61-3.76c0.58,0.03,1.23,0.06,1.94,0.09
				c-0.94-7.91-3.68-34.84,0.45-49.62c0,0-0.97-0.95-2.04-2.4c1.09-4,2.37-6.97,3.53-9.12l0.23-2.24c1.18,0.09,2.04,0.3,2.04,0.3
				v0.95c0,0-4.91,17.51-4.91,34.85c0,12.98,1.38,23.08,2.07,27.34c9.09,0.32,26.37,0.49,44.64-1.61L365.58,292.76z"/>
			<g style="opacity:0.3;enable-background:new    ;">
				<polygon style="fill:#FFFFFF;" points="335.64,231 320.608,229.81 320.809,225.258 335.975,226.847 				"/>
				<polygon style="fill:#FFFFFF;" points="350.689,232.192 336.724,231.086 337.057,226.961 350.993,228.421 				"/>
				<polygon style="fill:#FFFFFF;" points="352.075,228.534 355.622,228.906 355.169,232.546 351.773,232.277 				"/>
			</g>
		</g>
		<path style="fill:#EBB376;" d="M298.883,191.596l-1.744,2.524c0,0,9.495,14.637,16.477,13.319
			c6.982-1.319,16.484-15.429,17.802-19.648s2.676-9.198-2.552-8.489c-5.228,0.709-11.683,19.316-16.305,21.412
			C307.938,202.811,298.883,191.596,298.883,191.596z"/>
	</g>
</g>
<g id="Character_1">
	<g id="_x3C_Group_x3E__33_">
		<g>
			<path style="fill:#407BFF;" d="M113.589,146.943c0,0,15.762,0.147,20.248,2.37s-9.59,17.225-14.15,14.637
				C115.127,161.363,109.19,153.201,113.589,146.943z"/>
			<path style="opacity:0.2;enable-background:new    ;" d="M113.589,146.943c0,0,15.762,0.147,20.248,2.37
				s-9.59,17.225-14.15,14.637C115.127,161.363,109.19,153.201,113.589,146.943z"/>
		</g>
		<path style="fill:#407BFF;" d="M113.514,403.859h-10.135c-0.342,0.002-0.637,0.24-0.711,0.573l-1.645,7.429
			c-0.141,0.665,0.284,1.318,0.95,1.459c0.089,0.019,0.18,0.028,0.271,0.027c3.279-0.053,5.667-0.255,9.785-0.255
			c2.536,0,10.188,0.265,13.691,0.265c3.502,0,3.959-3.46,2.526-3.778c-6.432-1.401-11.271-3.343-13.33-5.19
			C114.533,404.04,114.032,403.85,113.514,403.859z"/>
		<path style="fill:#407BFF;" d="M156.496,403.594h-10.135c-0.342,0.002-0.637,0.24-0.711,0.573l-1.645,7.429
			c-0.141,0.665,0.284,1.318,0.95,1.459c0.089,0.019,0.18,0.028,0.271,0.027c3.279-0.053,5.667-0.255,9.785-0.255
			c2.536,0,10.188,0.265,13.691,0.265c3.502,0,3.959-3.46,2.526-3.778c-6.431-1.401-11.271-3.343-13.33-5.19
			C157.516,403.775,157.014,403.584,156.496,403.594z"/>
		<path style="fill:#263238;" d="M108.139,215.983h44.281c4.211,22.991,17.389,116.35,7.934,188.84h-14.991
			c0,0,1.388-110.094-11.848-145.671c-1.522,19.04-16.998,145.596-16.998,145.596h-15.261c0,0,2.279-47.608,4.563-92.578
			C107.258,283.854,108.078,221.796,108.139,215.983z"/>
		<path style="opacity:0.2;enable-background:new    ;" d="M133.519,259.156c1.953,5.243,3.577,11.791,4.946,19.156
			c1.238-16.943-3.715-34.913-3.715-34.913L133.519,259.156z"/>
		<g>
			<path style="fill:#407BFF;" d="M100.183,152.417c0,0,21.205-2.551,43.174,0.216c0,0,7.376,33.742,8.111,66.032h-44.582
				C106.886,218.665,106.85,173.1,100.183,152.417z"/>
			<path style="opacity:0.6;fill:#FFFFFF;enable-background:new    ;" d="M100.183,152.417c0,0,21.205-2.551,43.174,0.216
				c0,0,7.376,33.742,8.111,66.032h-44.582C106.886,218.665,106.85,173.1,100.183,152.417z"/>
		</g>
		<path style="fill:#E4897B;" d="M115.857,153.312c3.83,3.48,13.213,2.193,13.213,2.193s5.857-1.603,4.627-3.433
			c-3.45-0.57-5.12-2.18-5.81-4.24c-0.4-1.2-0.46-2.55-0.35-3.94c0.05-0.73,0.16-1.47,0.29-2.2l-11.6-8.59
			C117.746,138.772,119.607,149.202,115.857,153.312z"/>
		<path style="opacity:0.2;enable-background:new    ;" d="M118.906,138.562c0.46,6.96,6.18,8.88,8.98,9.27
			c-0.4-1.2-0.46-2.55-0.35-3.94L118.906,138.562z"/>
		<g>
			<path style="fill:#263238;" d="M140.007,116.99c0,0,1.733,11.169-4.185,15.484c-5.918,4.316-5.98-16.485-5.98-16.485
				L140.007,116.99z"/>
			<path style="fill:#E4897B;" d="M118.631,141.407c2.89,4.127,7.586,5.196,11.656,3.895c2.617-0.833,4.974-2.656,6.431-5.27
				c0.195-0.341,0.369-0.702,0.533-1.074c2.898-6.837,3.79-18.783-3.443-23.238c-5.136-3.213-11.918-1.656-15.131,3.491
				c-0.924,1.457-1.476,3.119-1.636,4.842C116.179,132.039,115.296,136.693,118.631,141.407z"/>
			<path style="fill:#263238;" d="M128.692,128.283c-0.152,0.632,0.141,1.222,0.57,1.293c0.428,0.071,0.85-0.4,0.961-1.042
				c0.112-0.641-0.151-1.224-0.57-1.293C129.235,127.173,128.807,127.632,128.692,128.283z"/>
			<path style="fill:#263238;" d="M135.984,129.505c-0.152,0.632,0.151,1.224,0.57,1.293c0.418,0.069,0.849-0.4,0.961-1.042
				c0.112-0.641-0.151-1.224-0.57-1.293C136.526,128.395,136.088,128.894,135.984,129.505z"/>
			<path style="fill:#DE5753;" d="M133.614,129.434c0.437,2.101,1.163,4.132,2.156,6.034c-1.004,0.491-2.175,0.512-3.197,0.059
				L133.614,129.434z"/>
			<path style="fill:#263238;" d="M139.209,126.844c-0.135,0.048-0.285,0.02-0.395-0.073c-0.716-0.664-1.703-0.951-2.664-0.774
				c-0.203,0.057-0.413-0.062-0.47-0.265c-0.056-0.203,0.062-0.413,0.266-0.47c0,0,0.001,0,0.002,0
				c1.208-0.254,2.465,0.093,3.37,0.932c0.162,0.135,0.184,0.376,0.049,0.537c-0.002,0.002-0.004,0.005-0.006,0.007
				C139.316,126.781,139.265,126.817,139.209,126.844z"/>
			<path style="fill:#263238;" d="M127.739,125.126c-0.076-0.015-0.145-0.054-0.198-0.11c-0.111-0.179-0.056-0.414,0.123-0.525
				c0.002-0.002,0.005-0.003,0.007-0.004c1.047-0.661,2.351-0.772,3.495-0.296c0.189,0.092,0.268,0.321,0.176,0.51l0,0.001
				c-0.096,0.186-0.321,0.263-0.511,0.176l0,0c-0.913-0.35-1.939-0.246-2.764,0.278
				C127.958,125.193,127.838,125.182,127.739,125.126z"/>
			<path style="fill:#263238;" d="M124.51,115.146l0.011,3.566c-1.226,0.477-2.076,1.695-1.709,3.143
				c0.783,3.092-1.44,7.478-3.926,9.037c0,0,0.082-1.29-1.035-1.114c-1.117,0.175-1.612,6.881,0.117,10.314
				c0,0-2.846-3.257-3.814-10.475c-0.895-6.675-0.46-12.097,1.17-14.444L124.51,115.146z"/>
			<path style="fill:#E4897B;" d="M112.493,129.967c0.578,1.939,1.902,3.571,3.681,4.535c2.364,1.261,4.123-0.718,3.955-3.253
				c-0.17-2.252-1.581-5.691-4.197-5.881C113.316,125.179,111.813,127.578,112.493,129.967z"/>
			<g>
				<path style="fill:#263238;" d="M131.736,137.487c-0.658,0.899-1.486,2.665-1.486,2.665c-0.174-0.046-0.347-0.092-0.518-0.148
					c-2.338-0.686-3.196-1.776-3.438-2.777c-0.13-0.548-0.07-1.074,0.034-1.487c0.115-0.479,0.306-0.794,0.306-0.794
					c1.022,1.104,3.152,1.911,4.308,2.295C131.424,137.407,131.736,137.487,131.736,137.487z"/>
				<path style="fill:#FFFFFF;" d="M130.942,137.241l-0.458,0.774c-2.2-0.652-3.662-1.405-4.155-2.275
					c0.115-0.479,0.306-0.794,0.306-0.794C127.656,136.05,129.786,136.858,130.942,137.241z"/>
				<path style="fill:#DE5753;" d="M129.732,140.004c-2.338-0.686-3.196-1.776-3.438-2.777c0.788,0.264,1.708,0.671,2.445,1.276
					C129.304,138.964,129.587,139.501,129.732,140.004z"/>
			</g>
			<path style="fill:#263238;" d="M124.521,118.713c0,0,17.773,6.065,15.723-5.916c0,0-9.587-5.652-17.95-4.069
				c-8.364,1.582-7.704,10.245-7.704,10.245L124.521,118.713z"/>
		</g>
		<g>
			<path style="fill:#407BFF;" d="M113.535,149.902c0,0,1.195,40.764-7.727,79.243l-5.625-4.85c0,0,2.702-48.494,0-71.878
				L113.535,149.902z"/>
			<path style="fill:#407BFF;" d="M133.837,150.559c0,0,11.626,19.333,16.781,77.282l4.56-2.252c0,0-5.202-55.534-11.821-72.956
				L133.837,150.559z"/>
			<path style="opacity:0.2;fill:#FFFFFF;enable-background:new    ;" d="M105.81,229.14l-5.63-4.84c0,0,1.16-20.84,1.2-41.78
				c0.01-3.8-0.02-7.61-0.11-11.29c-0.15-6.99-0.48-13.54-1.09-18.81l13.36-2.52C113.54,149.9,114.73,190.67,105.81,229.14z"/>
			<path style="opacity:0.2;fill:#FFFFFF;enable-background:new    ;" d="M133.837,150.559c0,0,11.626,19.333,16.781,77.282
				l4.56-2.252c0,0-5.202-55.534-11.821-72.956L133.837,150.559z"/>
		</g>
		<path style="fill:#407BFF;" d="M113.589,146.943c0,0,1.042,3.384,3.124,4.814l-3.164,8.236v-4.551l-0.896,1.972l-3.943-6.603
			L113.589,146.943z"/>
		<path style="fill:#407BFF;" d="M130.734,148.358c0,0,3.583,1.058,6.535,9.962v-3.662l3.137,1.554c0,0-4.515-6.063-5.628-6.789
			C133.665,148.698,130.734,148.358,130.734,148.358z"/>
		<g>
			<path style="fill:#407BFF;" d="M137.769,176.88c0.031,0.399-0.27,0.748-0.679,0.779l-19.346,1.166
				c-0.389,0.031-0.738-0.28-0.759-0.68l-0.397-6.872l-0.396-6.842c-0.021-0.41,0.3-0.749,0.7-0.759l19.063-0.518
				c0.38-0.01,0.708,0.271,0.738,0.66l0.55,6.638L137.769,176.88z"/>
			<path style="opacity:0.4;fill:#FFFFFF;enable-background:new    ;" d="M137.769,176.88c0.031,0.399-0.27,0.748-0.679,0.779
				l-19.346,1.166c-0.389,0.031-0.738-0.28-0.759-0.68l-0.397-6.872l-0.396-6.842c-0.021-0.41,0.3-0.749,0.7-0.759l19.063-0.518
				c0.38-0.01,0.708,0.271,0.738,0.66l0.55,6.638L137.769,176.88z"/>
			<path style="opacity:0.2;enable-background:new    ;" d="M137.769,176.88c0.031,0.399-0.27,0.748-0.679,0.779l-19.346,1.166
				c-0.389,0.031-0.738-0.28-0.759-0.68l-0.397-6.872c1.25-2.605,2.922-5.501,4.083-5.463c2.113,0.073,1.112,6.692,2.187,7.593
				c1.085,0.891,4.298-5.289,4.664-4.688c0.376,0.59,0.264,2.704,0.428,3.229c0.12,0.367,5.981-0.803,9.293-1.493L137.769,176.88z"
				/>
		</g>
		<path style="opacity:0.3;enable-background:new    ;" d="M101.38,182.52c0.01-3.8-0.02-7.61-0.11-11.29
			c0.74-1.62,1.25-2.68,1.25-2.68S105.3,175.58,101.38,182.52z"/>
		<path style="fill:#407BFF;" d="M93.182,164.783c0,0-10.727,25.462-12.827,25.229c-2.1-0.233-4.566-6.447-4.566-6.447l-5.101,2.404
			c0,0,3.833,9.757,9.667,12.392c5.834,2.635,17.914-22.552,17.914-22.552L93.182,164.783z"/>
		<path style="opacity:0.6;fill:#FFFFFF;enable-background:new    ;" d="M93.182,164.783c0,0-10.727,25.462-12.827,25.229
			c-2.1-0.233-4.566-6.447-4.566-6.447l-5.101,2.404c0,0,3.833,9.757,9.667,12.392c5.834,2.635,17.914-22.552,17.914-22.552
			L93.182,164.783z"/>
		<path style="fill:#407BFF;" d="M100.183,152.417c-2.681,1.209-15.705,25.313-15.705,25.313l11.132,7.856l5.436-7.856
			c0,0,1.302-0.625,1.302-9.13C102.349,160.095,100.183,152.417,100.183,152.417z"/>
		<g>
			<path style="fill:#263238;" d="M203.612,258.008l0.125-0.176c0.22-0.311,0.655-0.384,0.965-0.164l4.522,3.208
				c0.311,0.22,0.384,0.655,0.164,0.965l-0.125,0.176c-0.22,0.311-0.655,0.384-0.965,0.164l-4.522-3.208
				C203.465,258.753,203.391,258.319,203.612,258.008z"/>
			<path style="fill:#263238;" d="M58.542,156.462l1.38-1.945c1.348-1.901,3.982-2.349,5.883-1l6.132,4.351l-6.263,8.828
				l-6.133-4.351C57.641,160.997,57.193,158.363,58.542,156.462z"/>
			<path style="fill:#263238;" d="M186.596,261.159l20.093,0.269l1.248-1.758l-6.892-18.876v0c-5.923-1.11-11.79-3.616-16.949-7.217
				l-113.962-79.55c-0.607-0.423-1.442-0.278-1.87,0.325l-7.122,10.038c-0.428,0.604-0.289,1.439,0.311,1.872l112.732,81.283
				C179.287,251.225,183.591,255.936,186.596,261.159L186.596,261.159z"/>
			<path style="opacity:0.3;fill:#FFFFFF;" d="M186.593,261.158c-2.995-5.229-7.301-9.929-12.407-13.622l-27.178-19.594
				l-0.936-0.678l-0.936-0.678l-74.921-54.019l-0.936-0.678l-0.943-0.669l-6.881-4.967c-0.603-0.428-0.736-1.26-0.308-1.863
				l7.125-10.042c0.428-0.603,1.257-0.752,1.86-0.324l6.961,4.854l0.943,0.669l0.95,0.66l75.737,52.868l1.899,1.319l27.472,19.179
				c2.587,1.807,5.334,3.331,8.186,4.546c2.852,1.215,5.809,2.122,8.763,2.673l0.306,0.827l0.481,1.32l6.109,16.723l-1.251,1.763
				l-17.809-0.232l-1.404-0.018L186.593,261.158z"/>
			<path style="fill:#263238;" d="M157.571,225.549l0.274-0.386c0.485-0.683,1.431-0.844,2.114-0.359l23.762,16.859
				c0.683,0.485,0.844,1.431,0.359,2.114l-0.274,0.386c-0.485,0.683-1.431,0.844-2.114,0.359l-23.762-16.858
				C157.247,227.179,157.087,226.232,157.571,225.549z"/>
			<g style="opacity:0.2;enable-background:new    ;">
				<polygon points="187.474,261.174 201.349,241.618 201.83,242.938 188.879,261.192 				"/>
			</g>
			<g style="opacity:0.2;enable-background:new    ;">
				<g>
					<path d="M156.618,214.397l-1.899-1.319l-9.586,13.512l0.936,0.678l0.936,0.678L156.618,214.397z"/>
				</g>
			</g>
			<g style="opacity:0.2;enable-background:new    ;">
				<g>
					<path d="M78.982,160.21l-0.95-0.66l-0.943-0.669l-8.757,12.342l0.943,0.669l0.936,0.679L78.982,160.21z"/>
				</g>
			</g>
		</g>
		<path style="fill:#E4897B;" d="M157.248,209.831l-0.942,1.712c0,0-1.917-0.285-3.487,1.142c0,0,0.659,3.919,0.895,4.419
			c0.519,1.101,6.168,3.791,7.524,3.786c0.427-0.002,0.836-2.866,0.571-3.786c-0.279-0.968-2.274-3.329-2.274-3.329l0.775-1.518
			L157.248,209.831z"/>
		<g>
			<path style="fill:#407BFF;" d="M145.844,161.405c0,0,17.308,12.496,22.262,26.144c3.725,10.262-7.41,26.295-7.41,26.295
				l-4.657-3.473c0,0,7.816-15.103,5.817-21.41c-1.999-6.308-11.55-12.573-11.55-12.573L145.844,161.405z"/>
			<path style="opacity:0.6;fill:#FFFFFF;enable-background:new    ;" d="M145.844,161.405c0,0,17.308,12.496,22.262,26.144
				c3.725,10.262-7.41,26.295-7.41,26.295l-4.657-3.473c0,0,7.816-15.103,5.817-21.41c-1.999-6.308-11.55-12.573-11.55-12.573
				L145.844,161.405z"/>
		</g>
		<path style="fill:#407BFF;" d="M162.795,174.976l-5.573,9.566l-2.749-1.19l-4.642-2.013l-2.684-11.892l-3.787-16.816
			C147.992,154.859,162.795,174.976,162.795,174.976z"/>
		<path style="fill:#E4897B;" d="M75.232,183.826l-1.155-3.663c0,0,1.706-0.355,1.71-1.857c0.004-1.502-0.146-5.174-0.855-5.907
			c-0.708-0.732-4.663-3.35-5.542-3.799c-0.879-0.449-1.829,2.92-1.867,4.385s3.164,6.299,3.164,6.299l1.279,6.081L75.232,183.826z"
			/>
		<path style="opacity:0.2;enable-background:new    ;" d="M154.473,183.351l-4.642-2.013l-2.684-11.892
			C149.95,172.574,154.3,178.071,154.473,183.351z"/>
	</g>
</g>
</svg>
