<svg xmlns="http://www.w3.org/2000/svg" viewBox="0 0 750 500"><g id="freepik--background-complete--inject-4"><rect x="621.18" y="178.53" width="52.7" height="34.65" transform="translate(1295.06 391.7) rotate(180)" style="fill:#e0e0e0"></rect><rect x="623.04" y="180.08" width="49.01" height="31.68" transform="translate(1295.09 391.84) rotate(180)" style="fill:#fafafa"></rect><rect x="639.55" y="191.49" width="15.99" height="8.72" transform="translate(1295.09 391.7) rotate(180)" style="fill:#e0e0e0"></rect><rect x="534.03" y="319.73" width="58.55" height="2.85" style="fill:#ebebeb"></rect><polygon points="524.96 322.57 513.98 281.42 559.69 281.42 569.63 322.57 524.96 322.57" style="fill:#ebebeb"></polygon><polygon points="566.9 319.46 526.06 319.46 516.55 283.32 557.6 283.32 566.9 319.46" style="fill:#e0e0e0"></polygon><rect x="502.38" y="331.01" width="2.96" height="141.17" style="fill:#f5f5f5"></rect><rect x="505.33" y="331.41" width="2.96" height="140.76" style="fill:#ebebeb"></rect><rect x="684.54" y="331.01" width="2.96" height="141.17" style="fill:#ebebeb"></rect><rect x="687.49" y="331.41" width="2.96" height="140.76" style="fill:#e0e0e0"></rect><rect x="489.61" y="322.8" width="224.59" height="11.58" style="fill:#e0e0e0"></rect><rect x="587.15" y="334.38" width="98.87" height="19.16" style="fill:#ebebeb"></rect><path d="M641,342.64a2.21,2.21,0,1,1-2.21-2.2A2.2,2.2,0,0,1,641,342.64Z" style="fill:#e0e0e0"></path><path d="M626.46,391.3H587.62a4.94,4.94,0,0,1-4.94-4.95v-12a8.33,8.33,0,0,1,8.33-8.34h35.74Z" style="fill:#ebebeb"></path><path d="M588.27,398.83h76.37a3.77,3.77,0,0,0,3.76-3.77h0a3.77,3.77,0,0,0-3.76-3.76H588.27a3.77,3.77,0,0,0-3.76,3.76h0A3.77,3.77,0,0,0,588.27,398.83Z" style="fill:#ebebeb"></path><path d="M680.2,291.05l-42-.75L611.52,391.08l56.88.57,21.44-88.35A9.92,9.92,0,0,0,680.2,291.05Z" style="fill:#e0e0e0"></path><polygon points="659.27 398.83 671.84 471.87 668.4 471.87 651.87 398.83 659.27 398.83" style="fill:#ebebeb"></polygon><polygon points="629.64 398.83 643 471.87 639.55 471.87 622.24 398.83 629.64 398.83" style="fill:#e0e0e0"></polygon><polygon points="596.87 398.83 581.96 471.87 585.41 471.87 604.26 398.83 596.87 398.83" style="fill:#ebebeb"></polygon><path d="M643,290.3,622.21,391.19h-16L622.93,302a14.36,14.36,0,0,1,14.12-11.74Z" style="fill:#ebebeb"></path><path d="M567.22,50.23a12.33,12.33,0,0,1,2.34-2.39L569,44.79l4.72-2,1.81,2.51a12.51,12.51,0,0,1,3.35,0l1.76-2.55,4.76,1.91-.49,3.06A12.87,12.87,0,0,1,587.29,50l3.05-.55,2,4.71L589.84,56a12.44,12.44,0,0,1,0,3.34l2.55,1.76-1.91,4.76-3.06-.49a12.63,12.63,0,0,1-2.34,2.39l.56,3-4.72,2-1.82-2.51a12.44,12.44,0,0,1-3.34,0L574,72.89,569.28,71l.49-3.06a12.05,12.05,0,0,1-2.39-2.34l-3,.56-2-4.72,2.51-1.81a12.87,12.87,0,0,1,0-3.34l-2.54-1.77,1.91-4.76,3.06.5Zm5.1,5.3a5.5,5.5,0,1,0,7.16-3.06A5.49,5.49,0,0,0,572.32,55.53Z" style="fill:#f5f5f5;fill-rule:evenodd"></path><path d="M600.31,82.36A44,44,0,0,1,608.52,74l-1.95-10.7,16.54-7.06L629.49,65a43.83,43.83,0,0,1,11.73-.13L647.4,56l16.69,6.7-1.72,10.74a43.77,43.77,0,0,1,8.38,8.21l10.69-2,7.07,16.55-8.82,6.37a43.84,43.84,0,0,1,.13,11.73l8.95,6.18-6.71,16.7-10.73-1.73a44.07,44.07,0,0,1-8.21,8.38l2,10.7-16.55,7.06-6.37-8.81a44.25,44.25,0,0,1-11.73.13l-6.18,8.94-16.7-6.71,1.73-10.73a44.07,44.07,0,0,1-8.38-8.21l-10.7,2-7.06-16.55,8.81-6.38a44.18,44.18,0,0,1-.13-11.72l-8.94-6.18,6.71-16.7,10.73,1.72Zm17.9,18.6a19.3,19.3,0,1,0,25.11-10.71A19.3,19.3,0,0,0,618.21,101Z" style="fill:#ebebeb;fill-rule:evenodd"></path><path d="M531.65,114.63a21.33,21.33,0,0,1,4-4.12l-1-5.27,8.15-3.47L546,106.1a21.91,21.91,0,0,1,5.78-.06l3-4.4,8.22,3.3-.85,5.28a21.62,21.62,0,0,1,4.12,4l5.27-1,3.47,8.15-4.33,3.13a21.92,21.92,0,0,1,.06,5.78l4.4,3-3.3,8.22-5.28-.85a21.62,21.62,0,0,1-4,4.12l1,5.27-8.15,3.48-3.14-4.34a21.84,21.84,0,0,1-5.77.06l-3,4.4-8.22-3.3.85-5.28a21.33,21.33,0,0,1-4.12-4l-5.27,1L523.19,134l4.34-3.13a21.91,21.91,0,0,1-.06-5.78l-4.4-3,3.3-8.22,5.28.85Zm8.81,9.15a9.5,9.5,0,1,0,12.36-5.27A9.51,9.51,0,0,0,540.46,123.78Z" style="fill:#e0e0e0"></path><path d="M540.46,123.78a7.28,7.28,0,0,1,1.06-2.1,9.45,9.45,0,0,1,5.19-3.69,9.62,9.62,0,0,1,4.47-.2,9.79,9.79,0,0,1,4.6,2.28,9.34,9.34,0,0,1,1.8,2.14,9.23,9.23,0,0,1,1.15,2.69,9.7,9.7,0,0,1-4.3,10.72,9.25,9.25,0,0,1-2.7,1.14,8.82,8.82,0,0,1-2.78.3,9.69,9.69,0,0,1-4.9-1.54,9.57,9.57,0,0,1-4.28-9.49,7.34,7.34,0,0,1,.69-2.25c.07,0-.29.8-.48,2.28a9.48,9.48,0,0,0,1.31,6,9.26,9.26,0,0,0,3,3,9.4,9.4,0,0,0,4.67,1.42,9.21,9.21,0,0,0,5.18-1.4A9.19,9.19,0,0,0,558.21,125a8.73,8.73,0,0,0-1.07-2.55,8.87,8.87,0,0,0-1.7-2,9.32,9.32,0,0,0-8.63-2.08,9.45,9.45,0,0,0-5.12,3.45C540.8,123,540.52,123.81,540.46,123.78Z" style="fill:#e0e0e0"></path><path d="M531.65,114.63a1.38,1.38,0,0,1-.33,0l-1-.14-4-.59.1-.05c-.84,2.1-1.93,4.88-3.26,8.23l-.05-.16,4.42,3,.08.06v.09a21.25,21.25,0,0,0,.08,5.73v.11l-.08.06-4.33,3.15.06-.23,3.5,8.14-.24-.13,5.26-1,.14,0,.08.11a21.87,21.87,0,0,0,4.09,4l.11.09,0,.14c-.26,1.63-.55,3.44-.84,5.28l-.15-.26,8.22,3.29-.3.09,3-4.41.09-.12h.15a21.48,21.48,0,0,0,5.71-.06l.15,0,.1.13,3.14,4.34-.32-.09,8.14-3.48-.16.3c-.3-1.66-.63-3.46-1-5.27l0-.16.13-.1a21.42,21.42,0,0,0,4-4.07h0l.1-.14.16,0,5.28.85-.29.17c1.11-2.78,2.22-5.52,3.3-8.22l.1.32-4.4-3-.14-.09,0-.17a21.32,21.32,0,0,0,0-5.7l0-.16.13-.09,4.34-3.13-.08.31-3.47-8.15.27.15-5.26,1-.15,0-.09-.12a21.68,21.68,0,0,0-4.07-4l-.12-.08,0-.15c.3-1.81.58-3.56.86-5.28l.14.25-8.21-3.32.25-.07-3,4.39-.07.1-.12,0a21.79,21.79,0,0,0-5.72,0l-.11,0-.06-.09-3.13-4.35.2,0-8.16,3.44.07-.13c.37,2.11.67,3.83.93,5.27v.05l0,0a23,23,0,0,0-3.16,3l-.7.82a2,2,0,0,1-.23.27l.2-.3c.14-.19.35-.48.66-.85a21.33,21.33,0,0,1,3.13-3l0,.08c-.27-1.43-.59-3.16-1-5.26l0-.09.09,0,8.13-3.51.12-.05.08.1c1,1.34,2,2.76,3.15,4.33l-.17-.07a21.65,21.65,0,0,1,5.82-.08l-.19.08,3-4.41.09-.14.16.06,8.22,3.29.17.07,0,.18-.84,5.28-.09-.23a21.74,21.74,0,0,1,4.17,4.08l-.23-.09,5.26-1,.2,0,.08.18,3.48,8.15.08.19-.16.12-4.34,3.14.11-.25a21.53,21.53,0,0,1,.06,5.84l-.11-.25,4.4,3,.18.12-.08.2-3.3,8.22-.08.2-.21,0-5.29-.85.26-.11h0a21.88,21.88,0,0,1-4.09,4.17l.1-.26c.33,1.8.66,3.6,1,5.26l0,.21-.2.09-8.14,3.47-.2.09-.12-.18L552,149.45l.25.11a22,22,0,0,1-5.84.06l.24-.11-3,4.4-.12.16-.19-.07-8.21-3.31-.18-.08,0-.19c.3-1.84.59-3.64.86-5.28l.09.23a22.14,22.14,0,0,1-4.16-4.09l.22.08-5.27.95-.17,0-.07-.16L523,134l-.06-.14.13-.09,4.35-3.13-.08.17a21.86,21.86,0,0,1,0-5.82l.07.16L523,122.11l-.09-.06,0-.1c1.36-3.34,2.49-6.1,3.35-8.2l0-.06h.07l3.91.67,1,.19Z" style="fill:#e0e0e0"></path><rect x="62.08" y="111.09" width="33.29" height="65.99" style="fill:#f5f5f5"></rect><rect x="96.65" y="111.09" width="35.97" height="65.99" style="fill:#f5f5f5"></rect><rect x="96.65" y="181.7" width="35.97" height="63.76" style="fill:#f5f5f5"></rect><polygon points="137.24 109.95 175.12 109.95 175.12 51.41 176.4 51.41 176.4 109.95 207.23 109.95 207.23 50.11 137.24 50.11 137.24 109.95" style="fill:#f5f5f5"></polygon><rect x="176.4" y="111.09" width="30.83" height="65.99" style="fill:#f5f5f5"></rect><rect x="176.4" y="181.7" width="30.83" height="63.76" style="fill:#f5f5f5"></rect><rect x="62.08" y="181.7" width="33.29" height="63.76" style="fill:#f5f5f5"></rect><rect x="137.24" y="181.7" width="37.88" height="63.76" style="fill:#f5f5f5"></rect><rect x="62.08" y="246.6" width="33.29" height="57.46" style="fill:#f5f5f5"></rect><rect x="176.4" y="246.6" width="30.83" height="57.46" style="fill:#f5f5f5"></rect><polygon points="95.37 109.95 95.37 51.41 96.65 51.41 96.65 109.95 132.63 109.95 132.63 50.11 62.08 50.11 62.08 109.95 95.37 109.95" style="fill:#f5f5f5"></polygon><rect x="137.24" y="246.6" width="37.88" height="57.46" style="fill:#f5f5f5"></rect><rect x="96.65" y="246.6" width="35.97" height="57.46" style="fill:#f5f5f5"></rect><rect x="137.24" y="111.09" width="37.88" height="65.99" style="fill:#f5f5f5"></rect><path d="M222.22,355.61s-4.2-.31-3.81,9.12a110,110,0,0,0,1.35,14.46s-.13,2.09-1.75,1.68-4.66-2.45-6.17-.93-1,4,1.07,6.85,6.37,9.26,6.76,9.84.53,1.64-.61,1.54-8.9-2.73-9.93,1,6.05,10.74,6.81,11.52.79,1.28.49,1.75-2.83-.66-5.07-1.32-4.94-1-5.35,1.19,2.71,8.69,14.37,15.5l5.61,2.8,5.31-3.38c10.92-7.94,13.37-14.7,12.74-16.86s-3.28-1.53-5.44-.65-4.55,2.25-4.9,1.81-.37-.93.31-1.78,7-8.52,5.62-12.15-8.85-.24-10,0-1.09-.86-.76-1.47,4-7.43,5.74-10.47,2.08-5.5.37-6.92-4.47,1-6,1.54-1.91-1.5-1.91-1.5a108.28,108.28,0,0,0-.1-14.51c-.56-9.43-4.81-8.66-4.81-8.66" style="fill:#ebebeb"></path><path d="M222.56,364.05s0,.07,0,.2,0,.33,0,.58c0,.52.09,1.26.16,2.22.12,1.94.29,4.74.48,8.2.39,6.92.83,16.48,1.3,27.05s.88,20.13,1.23,27.06c.17,3.45.32,6.25.42,8.19,0,1,.08,1.71.11,2.23,0,.25,0,.44,0,.58v.2s0-.07,0-.2l0-.58c0-.51-.08-1.26-.15-2.22-.13-1.94-.29-4.74-.48-8.2-.39-6.92-.84-16.48-1.3-27.05s-.89-20.13-1.23-27.05c-.18-3.46-.32-6.26-.42-8.2-.05-1-.08-1.71-.11-2.23,0-.25,0-.44,0-.58A1,1,0,0,1,222.56,364.05Z" style="fill:#e0e0e0"></path><path d="M216,383a1.57,1.57,0,0,1,.35.29c.22.2.52.49.89.86.74.73,1.74,1.77,2.81,2.94l2.75,3,.83.91a2.11,2.11,0,0,1,.3.34s-.14-.09-.36-.29-.52-.49-.88-.86c-.74-.74-1.72-1.79-2.79-3s-2-2.18-2.77-3l-.84-.9A1.9,1.9,0,0,1,216,383Z" style="fill:#e0e0e0"></path><path d="M224.47,391.12s2-2.19,4.58-4.8,4.7-4.69,4.74-4.65-2,2.19-4.58,4.8S224.51,391.16,224.47,391.12Z" style="fill:#e0e0e0"></path><path d="M224.45,407.38s.13-.1.39-.25l1.1-.62c.92-.52,2.2-1.24,3.58-2.09s2.61-1.65,3.49-2.24l1.05-.7a2.83,2.83,0,0,1,.39-.24,1.79,1.79,0,0,1-.35.31c-.23.18-.57.44-1,.75-.87.63-2.08,1.46-3.47,2.3s-2.67,1.56-3.62,2c-.48.24-.86.43-1.13.55A2,2,0,0,1,224.45,407.38Z" style="fill:#e0e0e0"></path><path d="M215.15,401.69s.15.05.39.18l1,.56c.85.49,2,1.17,3.31,1.94s2.45,1.47,3.29,2l1,.62c.23.15.35.24.34.26l-.38-.19-1-.56c-.86-.49-2-1.17-3.32-1.94s-2.44-1.47-3.28-2c-.42-.25-.75-.47-1-.62A2.44,2.44,0,0,1,215.15,401.69Z" style="fill:#e0e0e0"></path><path d="M213.31,416a2,2,0,0,1,.49.24l1.31.72c1.1.61,2.61,1.48,4.27,2.44s3.15,1.86,4.23,2.5l1.27.78a2.61,2.61,0,0,1,.46.32,3.43,3.43,0,0,1-.5-.24l-1.3-.72c-1.1-.62-2.61-1.48-4.27-2.45s-3.16-1.85-4.24-2.5l-1.27-.78A2.74,2.74,0,0,1,213.31,416Z" style="fill:#e0e0e0"></path><path d="M225.1,422.79a2.26,2.26,0,0,1,.48-.33l1.37-.83c1.15-.7,2.73-1.68,4.46-2.8s3.25-2.17,4.36-2.95l1.31-.91a3.11,3.11,0,0,1,.5-.31,2.79,2.79,0,0,1-.45.38c-.29.24-.73.57-1.27,1-1.09.8-2.61,1.88-4.34,3s-3.32,2.08-4.5,2.75c-.58.33-1.06.6-1.4.77A3.83,3.83,0,0,1,225.1,422.79Z" style="fill:#e0e0e0"></path><polygon points="233.53 432.47 218.01 432.47 223.07 470.82 228.46 470.82 233.53 432.47" style="fill:#e0e0e0"></polygon><path d="M218.81,437.18a.42.42,0,0,0,.08.14,1,1,0,0,0,.38.27,1.9,1.9,0,0,0,1.64-.2,11.87,11.87,0,0,1,2-1.33,4.37,4.37,0,0,1,2.85.06,12,12,0,0,1,2.66,1.29,19,19,0,0,0,2.16,1.16,6.1,6.1,0,0,0,1.6.46l.45,0c.1,0,.16,0,.16,0a8,8,0,0,1-2.13-.64,20.41,20.41,0,0,1-2.12-1.19,11.92,11.92,0,0,0-2.7-1.33,4.58,4.58,0,0,0-3,0,3.94,3.94,0,0,0-1.14.71,9.16,9.16,0,0,1-.88.68,1.84,1.84,0,0,1-1.52.27A1.66,1.66,0,0,1,218.81,437.18Z" style="fill:#f5f5f5"></path><path d="M219.38,444.25s.12-.16.36-.41a3.44,3.44,0,0,1,1.24-.79,5.64,5.64,0,0,1,2.16-.33,24.43,24.43,0,0,1,2.7.37,9.36,9.36,0,0,0,2.77.12,7.77,7.77,0,0,0,2.17-.62,7.1,7.1,0,0,0,1.31-.78,1.82,1.82,0,0,0,.42-.38,13.1,13.1,0,0,1-1.8,1,8.12,8.12,0,0,1-2.13.56,9.67,9.67,0,0,1-2.7-.14,21.49,21.49,0,0,0-2.73-.35,5.53,5.53,0,0,0-2.23.39,3.19,3.19,0,0,0-1.25.89,2.25,2.25,0,0,0-.23.34C219.39,444.2,219.37,444.24,219.38,444.25Z" style="fill:#f5f5f5"></path><path d="M231.77,448a1.26,1.26,0,0,0-.43-.22,4.55,4.55,0,0,0-1.28-.28,8.43,8.43,0,0,0-1.95.11c-.72.12-1.5.32-2.31.49a9.7,9.7,0,0,1-2.32.26,5.06,5.06,0,0,1-1.83-.39,4.08,4.08,0,0,1-1.39-1,1.14,1.14,0,0,0,.26.41,3.46,3.46,0,0,0,1,.79,5,5,0,0,0,1.9.47,9.55,9.55,0,0,0,2.38-.25c.82-.18,1.59-.38,2.3-.51a8.89,8.89,0,0,1,1.9-.16A7.72,7.72,0,0,1,231.77,448Z" style="fill:#f5f5f5"></path><path d="M220.75,453.35a2.46,2.46,0,0,1,1.51-.15,7.32,7.32,0,0,1,1.57.58,5.9,5.9,0,0,0,2,.57,6.21,6.21,0,0,0,3.71-.86,5.89,5.89,0,0,0,.93-.71,1.36,1.36,0,0,0,.27-.33,13.07,13.07,0,0,1-1.29.88,6.36,6.36,0,0,1-3.6.77c-1.47-.09-2.6-1-3.61-1.08a2.33,2.33,0,0,0-1.18.1C220.85,453.22,220.74,453.34,220.75,453.35Z" style="fill:#f5f5f5"></path><path d="M221.61,460.71a3.08,3.08,0,0,0,1.3-.26c.78-.26,1.74-.86,2.87-1.31a4.87,4.87,0,0,1,1.65-.34,3.07,3.07,0,0,1,1.33.3,3,3,0,0,1,1,.83s0-.13-.15-.33a2.19,2.19,0,0,0-.73-.66,3,3,0,0,0-1.41-.37,4.45,4.45,0,0,0-1.74.34c-1.17.46-2.1,1.08-2.85,1.37S221.61,460.67,221.61,460.71Z" style="fill:#f5f5f5"></path><path d="M222.37,464.13a3.78,3.78,0,0,0,1,.32,17.26,17.26,0,0,0,2.45.42,18.56,18.56,0,0,0,2.49.07,3.84,3.84,0,0,0,1-.12c0-.08-1.57,0-3.49-.21S222.39,464.06,222.37,464.13Z" style="fill:#f5f5f5"></path></g><g id="freepik--Floor--inject-4"><path d="M683.88,472.17c0,.15-138.3.26-308.87.26s-308.89-.11-308.89-.26,138.27-.26,308.89-.26S683.88,472,683.88,472.17Z" style="fill:#263238"></path></g><g id="freepik--Whiteboard--inject-4"><rect x="370.85" y="326.06" width="7.97" height="146.11" style="fill:#263238"></rect><polygon points="317.12 472.17 372.74 418.68 376.73 422.24 324.91 472.17 317.12 472.17" style="fill:#263238"></polygon><polygon points="432.27 472.05 376.76 418.68 372.78 422.24 424.59 472.17 432.27 472.05" style="fill:#263238"></polygon><rect x="196.37" y="89.2" width="359.06" height="261.72" style="fill:#fff"></rect><path d="M555.43,350.91c0-1.75-.09-103-.22-261.71l.22.21-359,0h0l.26-.26c0,93.88,0,182.88,0,261.71l-.24-.23,359.06.23-359.06.24h-.24v-.24c0-78.83,0-167.83,0-261.71v-.26h.29l359,0h.21v.21C555.51,247.88,555.43,349.17,555.43,350.91Z" style="fill:#263238"></path><path d="M242.25,116.51h-3v-.79h7v.79h-3v7.86h-.91Z" style="fill:#263238"></path><path d="M246.77,120a4.54,4.54,0,1,1,4.54,4.4A4.35,4.35,0,0,1,246.77,120Zm8.16,0a3.63,3.63,0,1,0-3.62,3.58A3.51,3.51,0,0,0,254.93,120Z" style="fill:#263238"></path><path d="M261.13,115.72h3.52c2.76,0,4.63,1.78,4.63,4.32s-1.87,4.33-4.63,4.33h-3.52Zm3.47,7.86a3.54,3.54,0,1,0,0-7.07H262v7.07Z" style="fill:#263238"></path><path d="M270.57,120a4.54,4.54,0,1,1,4.54,4.4A4.35,4.35,0,0,1,270.57,120Zm8.16,0a3.63,3.63,0,1,0-3.62,3.58A3.51,3.51,0,0,0,278.73,120Z" style="fill:#263238"></path><path d="M369,115.72l-2.91,8.65h-1L362.56,117,360,124.37h-.95l-2.91-8.65h.94l2.49,7.44,2.58-7.44H363l2.55,7.47,2.53-7.47Z" style="fill:#263238"></path><path d="M369.8,120a4.54,4.54,0,1,1,4.54,4.4A4.35,4.35,0,0,1,369.8,120Zm8.16,0a3.63,3.63,0,1,0-3.62,3.58A3.5,3.5,0,0,0,378,120Z" style="fill:#263238"></path><path d="M386.83,124.37l-2-2.78c-.22,0-.44,0-.69,0h-2.32v2.75h-.91v-8.65h3.23c2.2,0,3.53,1.11,3.53,3a2.68,2.68,0,0,1-2,2.71l2.11,3Zm-.05-5.68c0-1.39-.92-2.18-2.64-2.18h-2.3v4.34h2.3C385.86,120.85,386.78,120,386.78,118.69Z" style="fill:#263238"></path><path d="M392.53,120.3l-1.76,1.79v2.28h-.91v-8.65h.91V121l5.07-5.23h1.05l-3.74,3.92,4,4.73h-1.08Z" style="fill:#263238"></path><path d="M465.11,115.72h3.52c2.77,0,4.63,1.78,4.63,4.32s-1.86,4.33-4.63,4.33h-3.52Zm3.47,7.86a3.54,3.54,0,1,0,0-7.07H466v7.07Z" style="fill:#263238"></path><path d="M474.55,120a4.54,4.54,0,1,1,4.54,4.4A4.35,4.35,0,0,1,474.55,120Zm8.16,0a3.63,3.63,0,1,0-3.62,3.58A3.5,3.5,0,0,0,482.71,120Z" style="fill:#263238"></path><path d="M492.9,115.72v8.65h-.75l-5.56-7v7h-.91v-8.65h.75l5.57,7v-7Z" style="fill:#263238"></path><path d="M501.83,123.58v.79h-6.11v-8.65h5.93v.79h-5v3.08h4.47v.78h-4.47v3.21Z" style="fill:#263238"></path><path d="M542,148.54c0,.14-72.67.26-162.29.26s-162.3-.12-162.3-.26,72.65-.26,162.3-.26S542,148.4,542,148.54Z" style="fill:#263238"></path><path d="M318,350.91c-.14,0-.26-56.2-.26-125.51s.12-125.53.26-125.53.26,56.19.26,125.53S318.14,350.91,318,350.91Z" style="fill:#263238"></path><path d="M437.1,350.91c-.15,0-.26-56.2-.26-125.51s.11-125.53.26-125.53.26,56.19.26,125.53S437.24,350.91,437.1,350.91Z" style="fill:#263238"></path><path d="M258.94,158.42s-2.51,22.89.71,35.42l30.58-1.34s-6.55-22.57-2.53-32.57Z" style="fill:#e0e0e0"></path><path d="M218.54,171s-2.5,22.89.72,35.42l30.57-1.34s-6.55-22.58-2.52-32.58Z" style="fill:#e0e0e0"></path><path d="M258.94,158.42s.21,24.71,1.46,32.25l31-1.47s-2.72-24.29-1.67-30.78Z" style="fill:#455a64"></path><path d="M274.2,161.92h.12l.33,0a7.22,7.22,0,0,1,1.29.07,7,7,0,0,1,2,.58,6.5,6.5,0,0,1,2.15,1.7,7.52,7.52,0,0,1,1.48,3,7.16,7.16,0,0,1-.32,3.83,11.71,11.71,0,0,1-.87,1.92,19.49,19.49,0,0,0-1,1.93,16.57,16.57,0,0,0-1.25,4.4v.1H278l-3.06,0-3.21.05h-.12v-.11a9.11,9.11,0,0,0-1.49-4.24c-.37-.63-.78-1.23-1.16-1.83a19.28,19.28,0,0,1-1.09-1.78,6,6,0,0,1-.48-3.77,8,8,0,0,1,1.19-3.09,5.86,5.86,0,0,1,2-1.81,7.14,7.14,0,0,1,1.9-.74,9.58,9.58,0,0,1,1.27-.21h.33l-.33,0a8.66,8.66,0,0,0-1.25.24,8.11,8.11,0,0,0-1.86.76,5.86,5.86,0,0,0-1.95,1.8,7.88,7.88,0,0,0-1.14,3,5.75,5.75,0,0,0,.49,3.65,18.41,18.41,0,0,0,1.08,1.75c.38.6.79,1.2,1.17,1.84a9.3,9.3,0,0,1,1.53,4.34l-.12-.11,3.21-.05,3.06-.05-.11.1a16.45,16.45,0,0,1,1.28-4.46,18.82,18.82,0,0,1,1-1.95A11.19,11.19,0,0,0,281,171a7,7,0,0,0,.34-3.73,7.2,7.2,0,0,0-1.43-2.92,6.25,6.25,0,0,0-2.07-1.69,7.39,7.39,0,0,0-1.93-.61,7.73,7.73,0,0,0-1.28-.1h-.45Z" style="fill:#fff"></path><path d="M275.79,179.13a.65.65,0,0,1,0-.1l0-.28c0-.26-.1-.63-.17-1.11-.14-1-.35-2.35-.49-4.09,0-.43-.06-.89-.08-1.36s0-1,0-1.48a4.3,4.3,0,0,1,.35-1.55,2.32,2.32,0,0,1,1.19-1.18,1.55,1.55,0,0,1,1.68.32,1.14,1.14,0,0,1,.36.84,1.5,1.5,0,0,1-.31.89,2,2,0,0,1-.75.6,3.7,3.7,0,0,1-.92.31,11.42,11.42,0,0,1-2,.23,11.6,11.6,0,0,1-2-.1,3.48,3.48,0,0,1-.94-.27,2.51,2.51,0,0,1-.78-.55,1.93,1.93,0,0,1-.45-.83,1.45,1.45,0,0,1,.11-.92,1.25,1.25,0,0,1,.65-.63,1.12,1.12,0,0,1,.88,0,1.72,1.72,0,0,1,.66.56,2.17,2.17,0,0,1,.33.77,9.84,9.84,0,0,1,.16,1.58c.05,1,.1,2,.15,2.84.08,1.73.15,3.14.2,4.11,0,.48,0,.86.05,1.12s0,.22,0,.29v.1a.36.36,0,0,1,0-.1l0-.29c0-.26,0-.63-.07-1.12-.06-1-.14-2.37-.24-4.1-.05-.87-.1-1.82-.16-2.84a10.72,10.72,0,0,0-.16-1.57,2.22,2.22,0,0,0-.32-.74,1.67,1.67,0,0,0-.62-.53,1.08,1.08,0,0,0-.81,0,1.15,1.15,0,0,0-.6.59,1.34,1.34,0,0,0-.11.86,1.72,1.72,0,0,0,.43.78,2.8,2.8,0,0,0,1.66.8,11.44,11.44,0,0,0,1.95.09,11.3,11.3,0,0,0,1.94-.22,4,4,0,0,0,.9-.3,2,2,0,0,0,.71-.57,1.46,1.46,0,0,0,.3-.84,1.11,1.11,0,0,0-.33-.78,1.51,1.51,0,0,0-1.59-.3,2.26,2.26,0,0,0-1.14,1.14,4.05,4.05,0,0,0-.35,1.51c0,.51,0,1,0,1.48s0,.92.07,1.36c.13,1.73.33,3.12.45,4.09.07.47.12.85.16,1.1l0,.29A.82.82,0,0,1,275.79,179.13Z" style="fill:#fff"></path><path d="M271.71,179.29a10.12,10.12,0,0,1,.08,1c0,.75.09,1.65.14,2.69l0-.07,2.08,2.41-.11,0,2.42-.13-.11.05c.39-.48.79-1,1.21-1.47l.6-.73,0,.09c0-1.41-.07-2.75-.1-4l.14.12-4.51.05h-1.3a2.86,2.86,0,0,1-.49,0,2.55,2.55,0,0,1,.43,0l1.27-.06L278,179h.13v.13c0,1.22.08,2.56.12,4v.06l0,0-.6.73-1.21,1.47,0,0h-.06l-2.41.12h-.07l0,0-2.05-2.44,0,0v0q0-1.61,0-2.76C271.69,179.62,271.7,179.28,271.71,179.29Z" style="fill:#fff"></path><path d="M277.94,182.79l-.23-.1a5.87,5.87,0,0,0-.63-.25,6.25,6.25,0,0,0-2.18-.33,6,6,0,0,0-2.15.46,6.12,6.12,0,0,0-.61.29l-.22.11s.07-.06.2-.14a5.05,5.05,0,0,1,.6-.32,5.84,5.84,0,0,1,2.18-.5,5.91,5.91,0,0,1,2.21.37c.26.1.47.2.62.27A.87.87,0,0,1,277.94,182.79Z" style="fill:#fff"></path><path d="M277.94,181.82s-.09,0-.23-.1-.36-.15-.63-.24a6,6,0,0,0-4.33.13l-.61.28-.22.11.2-.14a5.26,5.26,0,0,1,.6-.31,5.65,5.65,0,0,1,2.18-.5,5.83,5.83,0,0,1,2.2.36,4.29,4.29,0,0,1,.62.28Z" style="fill:#fff"></path><path d="M277.88,180.9l-.23-.09a5.56,5.56,0,0,0-.62-.25,6.18,6.18,0,0,0-4.95.42l-.22.11.2-.15a6.58,6.58,0,0,1,.61-.31,5.78,5.78,0,0,1,2.17-.5,5.93,5.93,0,0,1,2.21.36c.27.11.48.21.62.28Z" style="fill:#fff"></path><path d="M218.31,171s.21,24.71,1.46,32.25l31-1.47S248,177.53,249.09,171Z" style="fill:#407BFF"></path><path d="M244.42,181.42c0,.14-4.64.54-10.38.88s-10.41.51-10.42.37,4.64-.54,10.39-.89S244.41,181.28,244.42,181.42Z" style="fill:#fff"></path><path d="M244.43,186.65a102.8,102.8,0,0,1-10.38.89,103.09,103.09,0,0,1-10.42.36c0-.14,4.64-.54,10.38-.88S244.42,186.51,244.43,186.65Z" style="fill:#fff"></path><path d="M239.16,191.79a34.65,34.65,0,0,1-5.91.62,33.68,33.68,0,0,1-5.94.09,34.1,34.1,0,0,1,5.91-.61A34.33,34.33,0,0,1,239.16,191.79Z" style="fill:#fff"></path><path d="M275.94,197.75s-2.5,22.89.72,35.42l30.58-1.34s-6.56-22.58-2.53-32.58Z" style="fill:#ebebeb"></path><path d="M276.06,197s.21,24.71,1.47,32.25l31-1.46s-2.72-24.29-1.67-30.79Z" style="fill:#407BFF"></path><path d="M302.17,207.39a102.8,102.8,0,0,1-10.38.89,102.87,102.87,0,0,1-10.41.36c0-.14,4.64-.54,10.38-.88S302.17,207.25,302.17,207.39Z" style="fill:#fff"></path><path d="M302.18,212.63c0,.14-4.64.54-10.38.88s-10.4.51-10.41.37a102.8,102.8,0,0,1,10.38-.89A102.87,102.87,0,0,1,302.18,212.63Z" style="fill:#fff"></path><path d="M296.92,217.77a35.49,35.49,0,0,1-5.91.61,34.31,34.31,0,0,1-5.94.1,33.32,33.32,0,0,1,5.91-.62A32.57,32.57,0,0,1,296.92,217.77Z" style="fill:#fff"></path><path d="M269.6,293.66s-2.51,22.89.71,35.42l30.58-1.34s-6.55-22.57-2.53-32.57Z" style="fill:#ebebeb"></path><path d="M269.72,292.93s.21,24.71,1.47,32.24l31-1.46s-2.73-24.29-1.68-30.78Z" style="fill:#407BFF"></path><path d="M295.83,303.31c0,.14-4.64.54-10.38.88s-10.41.51-10.42.37a103.2,103.2,0,0,1,10.39-.89A102.87,102.87,0,0,1,295.83,303.31Z" style="fill:#fff"></path><path d="M295.84,308.54c0,.14-4.64.54-10.38.89s-10.41.5-10.42.36,4.64-.54,10.39-.88S295.83,308.4,295.84,308.54Z" style="fill:#fff"></path><path d="M290.57,313.68a34.1,34.1,0,0,1-5.91.61,34.33,34.33,0,0,1-5.94.1,34.65,34.65,0,0,1,5.91-.62A33.68,33.68,0,0,1,290.57,313.68Z" style="fill:#fff"></path><path d="M226.61,275.15s-2.5,22.89.72,35.42l30.58-1.34s-6.55-22.57-2.53-32.57Z" style="fill:#ebebeb"></path><path d="M226.74,274.42s.21,24.71,1.46,32.25l31-1.47s-2.72-24.29-1.67-30.78Z" style="fill:#407BFF"></path><path d="M252.85,284.8c0,.14-4.64.54-10.39.88s-10.4.51-10.41.37a102.8,102.8,0,0,1,10.38-.89A103.09,103.09,0,0,1,252.85,284.8Z" style="fill:#fff"></path><path d="M252.86,290c0,.14-4.65.54-10.39.89a102.87,102.87,0,0,1-10.41.36c0-.14,4.64-.54,10.38-.88S252.85,289.89,252.86,290Z" style="fill:#fff"></path><path d="M247.59,295.17a34.65,34.65,0,0,1-5.91.62,33.68,33.68,0,0,1-5.94.09,34.1,34.1,0,0,1,5.91-.61A34.33,34.33,0,0,1,247.59,295.17Z" style="fill:#fff"></path><path d="M386.06,278.56s-2.5,22.89.72,35.42l30.57-1.34s-6.55-22.57-2.52-32.58Z" style="fill:#ebebeb"></path><path d="M386.18,277.83s.21,24.7,1.47,32.24l31-1.46s-2.72-24.29-1.68-30.78Z" style="fill:#407BFF"></path><path d="M412.29,288.2a102.8,102.8,0,0,1-10.38.89c-5.74.35-10.4.51-10.41.37a102.8,102.8,0,0,1,10.38-.89C407.62,288.22,412.28,288.06,412.29,288.2Z" style="fill:#fff"></path><path d="M412.3,293.44c0,.14-4.64.54-10.38.88s-10.41.51-10.42.37,4.64-.54,10.39-.89A102.87,102.87,0,0,1,412.3,293.44Z" style="fill:#fff"></path><path d="M407,298.58a33.93,33.93,0,0,1-5.91.61,34.33,34.33,0,0,1-5.94.1,34.82,34.82,0,0,1,5.91-.62A33.66,33.66,0,0,1,407,298.58Z" style="fill:#fff"></path><path d="M270.23,221.91s-3.12,22.82-9.27,34.19l-29.35-8.7s11.83-20.32,10.34-31Z" style="fill:#ebebeb"></path><path d="M270.29,221.17s-6.19,23.92-9.23,30.93l-29.72-8.92s8.53-22.91,9.08-29.46Z" style="fill:#455a64"></path><path d="M242.44,224.92a103.88,103.88,0,0,1,10,2.87,102.68,102.68,0,0,1,9.86,3.38c0,.13-4.52-1.15-10-2.88A102.35,102.35,0,0,1,242.44,224.92Z" style="fill:#fff"></path><path d="M241.16,230c.05-.13,4.53,1.15,10,2.88s9.9,3.24,9.86,3.37-4.53-1.15-10-2.87S241.12,230.13,241.16,230Z" style="fill:#fff"></path><path d="M245,236.26a33,33,0,0,1,5.74,1.53,32.79,32.79,0,0,1,5.58,2,34.81,34.81,0,0,1-5.74-1.54A35.33,35.33,0,0,1,245,236.26Z" style="fill:#fff"></path><path d="M302.31,246s2.51,22.89-.71,35.42L271,280s6.55-22.58,2.53-32.58Z" style="fill:#ebebeb"></path><path d="M271,240.6s-2.09,27.42-3.77,32.66l27.85,2.93,4.19-4s2.72-20.1,2.3-26.59Z" style="fill:#455a64"></path><polygon points="295.73 272 295.1 276.19 299.29 272.21 295.73 272" style="fill:#263238"></polygon><path d="M296,255.18a21.79,21.79,0,0,1-3.12-.36l-7.5-1.06-7.51-.94a21.24,21.24,0,0,1-3.11-.46,17.59,17.59,0,0,1,3.15.1c1.93.14,4.61.4,7.54.79s5.59.83,7.49,1.2A16.93,16.93,0,0,1,296,255.18Z" style="fill:#fff"></path><path d="M294.83,260.9a16.07,16.07,0,0,1-3-.1c-1.86-.13-4.42-.38-7.23-.73s-5.36-.76-7.19-1.09a17.83,17.83,0,0,1-2.94-.65,16.78,16.78,0,0,1,3,.29l7.19.93,7.2.89A17.61,17.61,0,0,1,294.83,260.9Z" style="fill:#fff"></path><path d="M293.09,266.16a82.85,82.85,0,0,1-9.36-1,85.42,85.42,0,0,1-9.3-1.51,86,86,0,0,1,9.37,1A88.51,88.51,0,0,1,293.09,266.16Z" style="fill:#fff"></path><path d="M528.09,275s2.51,22.88-.71,35.42l-30.58-1.34s6.55-22.58,2.53-32.58Z" style="fill:#ebebeb"></path><path d="M496.8,269.65s-2.09,27.42-3.77,32.65l27.85,2.93,4.19-4s2.72-20.11,2.3-26.6Z" style="fill:#455a64"></path><polygon points="521.51 301.05 520.88 305.24 525.07 301.26 521.51 301.05" style="fill:#263238"></polygon><path d="M521.82,284.23a21.12,21.12,0,0,1-3.12-.37l-7.49-1.05-7.52-.94a18.32,18.32,0,0,1-3.1-.47,17.46,17.46,0,0,1,3.14.1c1.94.14,4.61.4,7.54.79s5.59.84,7.49,1.21A16.63,16.63,0,0,1,521.82,284.23Z" style="fill:#fff"></path><path d="M520.61,290a16.06,16.06,0,0,1-3-.1c-1.86-.14-4.41-.38-7.23-.74s-5.35-.75-7.19-1.08a16,16,0,0,1-2.94-.66,19.41,19.41,0,0,1,3,.29l7.2.94,7.2.88A16.86,16.86,0,0,1,520.61,290Z" style="fill:#fff"></path><path d="M518.87,295.21a169.44,169.44,0,0,1-18.66-2.5,83.13,83.13,0,0,1,9.37,1A85.48,85.48,0,0,1,518.87,295.21Z" style="fill:#fff"></path><path d="M491.52,158.37s2.5,22.88-.72,35.41l-30.58-1.33s6.55-22.58,2.53-32.58Z" style="fill:#ebebeb"></path><path d="M460.22,153s-2.09,27.43-3.76,32.66l27.84,2.93,4.19-4s2.72-20.1,2.31-26.59Z" style="fill:#455a64"></path><polygon points="484.93 184.41 484.31 188.6 488.49 184.62 484.93 184.41" style="fill:#263238"></polygon><path d="M485.25,167.59a18.62,18.62,0,0,1-3.13-.36l-7.49-1-7.51-.94a19.71,19.71,0,0,1-3.11-.47,17.47,17.47,0,0,1,3.14.1c1.94.14,4.61.4,7.55.79s5.58.84,7.49,1.21A19.16,19.16,0,0,1,485.25,167.59Z" style="fill:#fff"></path><path d="M484,173.31a16.47,16.47,0,0,1-3-.09c-1.85-.14-4.41-.39-7.23-.74s-5.35-.75-7.18-1.08a15.73,15.73,0,0,1-2.94-.66,19.44,19.44,0,0,1,3,.29l7.2.93,7.2.89A19,19,0,0,1,484,173.31Z" style="fill:#fff"></path><path d="M482.29,178.58a84.67,84.67,0,0,1-9.36-1,82.65,82.65,0,0,1-9.29-1.51,87.69,87.69,0,0,1,9.36,1A85.48,85.48,0,0,1,482.29,178.58Z" style="fill:#fff"></path><path d="M373.83,168.34s2.5,22.89-.72,35.42l-30.58-1.34s6.55-22.58,2.53-32.58Z" style="fill:#ebebeb"></path><path d="M342.53,163s-2.09,27.42-3.76,32.65l27.84,2.94,4.19-4s2.73-20.1,2.31-26.6Z" style="fill:#455a64"></path><polygon points="367.24 194.39 366.62 198.58 370.8 194.6 367.24 194.39" style="fill:#263238"></polygon><path d="M367.56,177.57a21.69,21.69,0,0,1-3.13-.36l-7.49-1.06-7.51-.94a20.64,20.64,0,0,1-3.11-.46,16.37,16.37,0,0,1,3.14.1c1.94.14,4.61.4,7.55.79s5.58.83,7.49,1.2A17.23,17.23,0,0,1,367.56,177.57Z" style="fill:#fff"></path><path d="M366.34,183.29a16,16,0,0,1-3-.1c-1.85-.13-4.41-.38-7.23-.74s-5.35-.75-7.18-1.08a15.73,15.73,0,0,1-2.94-.66,18.86,18.86,0,0,1,3,.3l7.2.93,7.2.88A16.86,16.86,0,0,1,366.34,183.29Z" style="fill:#fff"></path><path d="M364.6,188.55a83.08,83.08,0,0,1-9.36-1,85.48,85.48,0,0,1-9.29-1.51,86,86,0,0,1,9.36,1A85.48,85.48,0,0,1,364.6,188.55Z" style="fill:#fff"></path><polygon points="332.79 213.54 335.2 269.5 405.05 270.34 401.92 214.28 332.79 213.54" style="fill:#ebebeb"></polygon><rect x="331.98" y="213.14" width="69.39" height="52.4" style="fill:#fff"></rect><path d="M401.37,265.53s0-.33,0-1,0-1.58,0-2.8c0-2.46,0-6-.05-10.6,0-9.14-.07-22.21-.11-38l.21.21L332,213.4h0l.26-.26c0,18.84,0,36.68,0,52.39l-.24-.23,50,.12,14.23.06,3.79,0h1.32a1.77,1.77,0,0,1-.31,0h-1l-3.74,0-14.18.06-50.2.12h-.23v-.24c0-15.71,0-33.55,0-52.39v-.26H332l69.38,0h.21v.22c0,15.87-.08,29-.11,38.15,0,4.55,0,8.11-.05,10.56q0,1.78,0,2.76C401.39,265.23,401.37,265.53,401.37,265.53Z" style="fill:#263238"></path><rect x="340.35" y="224.24" width="28.13" height="35.4" style="fill:#fff"></rect><path d="M368.48,259.64a1.62,1.62,0,0,1,0-.18c0-.14,0-.3,0-.51,0-.47,0-1.11,0-1.93,0-1.72,0-4.17-.07-7.27,0-6.23-.07-15.05-.11-25.51l.23.23-28.13,0,.26-.26h0v9.63c0,3.14,0,6.21,0,9.18,0,5.95,0,11.52,0,16.58l-.22-.22,20.36.12,5.72,0,1.51,0a3.36,3.36,0,0,1,.54,0,2.46,2.46,0,0,1-.49,0l-1.48,0-5.66.05-20.5.12h-.21v-.22c0-5.06,0-10.63,0-16.58,0-3,0-6,0-9.18v-9.63h0l.26-.26,28.13,0h.23v.23c0,10.53-.08,19.39-.11,25.66,0,3.08-.05,5.51-.07,7.22,0,.8,0,1.43,0,1.89A4.8,4.8,0,0,1,368.48,259.64Z" style="fill:#263238"></path><rect x="341.43" y="216.14" width="53.91" height="5.1" style="fill:#fff"></rect><path d="M395.34,221.24a1.5,1.5,0,0,1,0-.35q0-.37,0-1c0-.89,0-2.15-.06-3.76l.11.1c-9.1.09-29.82.16-53.91.16h0l.26-.26h0v5.08l-.26-.26,38.2.11,11.47.08,3.13,0,.82,0,.29,0-.26,0h-.78l-3.07,0-11.41.08-38.39.11h-.26v-5.34h0c.11-.12-.26.26.26-.26h0c24.09,0,44.81.06,53.91.15h.1v.11c0,1.64,0,2.91-.06,3.82l0,1C395.35,221.14,395.34,221.25,395.34,221.24Z" style="fill:#263238"></path><rect x="371.92" y="224.24" width="23.41" height="21.34" style="fill:#fff"></rect><path d="M395.34,245.57a2.18,2.18,0,0,1,0-.41c0-.3,0-.68,0-1.16,0-1.05,0-2.51-.06-4.35,0-3.76-.07-9.06-.12-15.41l.23.22-23.41,0c-.06.05.49-.49.25-.26h0v11.21c0,3.58,0,7,0,10.1l-.23-.22,16.89.11,4.79.06,1.28,0,.46,0a2,2,0,0,1-.41,0l-1.24,0-4.74.06-17,.11h-.22v-.23c0-3.13,0-6.52,0-10.1V230c0-.94,0-1.89,0-2.84v-2.87h0c-.23.23.32-.32.27-.26l23.41,0h.22v.22c-.05,6.41-.09,11.76-.12,15.55,0,1.82,0,3.26-.05,4.3,0,.46,0,.83,0,1.12S395.34,245.58,395.34,245.57Z" style="fill:#263238"></path><rect x="371.92" y="248.92" width="23.41" height="10.72" style="fill:#fff"></rect><path d="M395.34,259.64a4.53,4.53,0,0,1,0-.78c0-.55,0-1.26-.05-2.16,0-1.89-.06-4.54-.1-7.78l.19.19-23.41.07c-.24.23.31-.32.25-.26h0v5.51c0,1.79,0,3.53,0,5.19l-.25-.25,16.74.12,4.88.07,1.32,0,.48,0a2.11,2.11,0,0,1-.42,0l-1.27,0-4.82.07-16.91.12h-.24v-.25c0-1.66,0-3.4,0-5.19,0-.9,0-1.81,0-2.73v-2.78h0c-.05.06.5-.49.27-.26l23.41.07h.19v.19c0,3.29-.08,6-.11,7.9,0,.87,0,1.58,0,2.11A7,7,0,0,1,395.34,259.64Z" style="fill:#263238"></path><path d="M367.78,224.3c-8.7,12-18.72,23.31-27.43,35.34" style="fill:#fff"></path><path d="M340.35,259.64a10.6,10.6,0,0,1,1-1.48c.64-.93,1.6-2.26,2.81-3.89,2.41-3.25,5.87-7.65,9.74-12.46s7.38-9.18,9.86-12.37l2.94-3.78a11.74,11.74,0,0,1,1.12-1.36,11,11,0,0,1-.95,1.48c-.65.93-1.61,2.26-2.81,3.89-2.42,3.25-5.88,7.65-9.75,12.46s-7.37,9.17-9.86,12.37l-2.94,3.78A10.57,10.57,0,0,1,340.35,259.64Z" style="fill:#263238"></path><line x1="340.35" y1="224.24" x2="368.48" y2="259.64" style="fill:#fff"></line><path d="M368.48,259.64c-.11.09-6.5-7.76-14.27-17.54s-14-17.77-13.86-17.86,6.5,7.76,14.27,17.54S368.59,259.55,368.48,259.64Z" style="fill:#263238"></path><circle cx="330.8" cy="224.31" r="4.4" style="fill:#407BFF"></circle><path d="M330.8,228.74a4.43,4.43,0,1,1,4.42-4.43A4.44,4.44,0,0,1,330.8,228.74Zm0-8.8a4.38,4.38,0,1,0,4.37,4.37A4.38,4.38,0,0,0,330.8,219.94Z" style="fill:#263238"></path><circle cx="402.77" cy="213.63" r="4.4" style="fill:#407BFF"></circle><path d="M402.77,218.06a4.43,4.43,0,1,1,4.43-4.43A4.43,4.43,0,0,1,402.77,218.06Zm0-8.8a4.38,4.38,0,1,0,4.38,4.37A4.37,4.37,0,0,0,402.77,209.26Z" style="fill:#263238"></path><polygon points="427.26 193.1 406.54 203.76 396.53 202.34 401.89 192.84 423.74 185.14 427.26 193.1" style="fill:#ebebeb"></polygon><polygon points="395.67 200.38 400.74 192.21 423.19 184.06 427.7 192.93 405.94 201.62 395.67 200.38" style="fill:#455a64"></polygon><path d="M420.66,189.33a12.71,12.71,0,0,1-2.17,1c-1.37.55-3.26,1.3-5.36,2.1l-5.39,2c-1.37.5-2.27.8-2.22.77-.17-.21,3.24-1.67,7.42-3.27S420.61,189.17,420.66,189.33Z" style="fill:#fff"></path><path d="M417.16,193.35a19.9,19.9,0,0,1-4.83,2.29,19.64,19.64,0,0,1-5.16,1.43,218.73,218.73,0,0,1,10-3.72Z" style="fill:#fff"></path><polygon points="457.69 201.25 465.27 241.28 540.95 226.95 527.8 187.97 457.69 201.25" style="fill:#ebebeb"></polygon><rect x="458.83" y="194.44" width="72.96" height="36.1" transform="translate(-30.88 95.84) rotate(-10.72)" style="fill:#fff"></rect><path d="M534.51,223.44l-.14-.64c-.09-.44-.21-1.06-.37-1.85-.32-1.64-.79-4-1.39-7.08-1.18-6.13-2.89-15-5-25.86l.23.15L456.17,201.8h0l.21-.31C458.73,214,461,226,463.07,237l-.29-.2,51.48-9.62,14.87-2.75,4-.73,1-.18.36-.05-.32.08-1,.2-3.92.78-14.79,2.87-51.6,9.88-.24.05,0-.24-6.73-35.47-.05-.25.26-.05h0l71.69-13.51.19,0,0,.19c2,10.95,3.68,19.84,4.82,26,.55,3.05,1,5.42,1.29,7.05.14.79.24,1.4.32,1.83S534.51,223.44,534.51,223.44Z" style="fill:#263238"></path><rect x="466.43" y="205.96" width="20.17" height="20.17" transform="translate(-31.87 92.41) rotate(-10.72)" style="fill:#fff"></rect><path d="M488.3,224.08a2.58,2.58,0,0,1-.1-.38c-.06-.28-.13-.64-.23-1.08-.2-1-.47-2.34-.82-4l-2.82-14.27.26.18-19.81,3.78c0,.07.39-.57.21-.3h0v.06l0,.09,0,.17.06.34.13.67c.09.45.17.9.26,1.35.16.89.33,1.77.5,2.65.32,1.74.65,3.46,1,5.12.62,3.33,1.21,6.47,1.74,9.35l-.26-.17,14.32-2.6,4.06-.71,1.09-.18.39,0a1.15,1.15,0,0,1-.33.09l-1,.23-4,.81-14.42,2.85-.22,0,0-.22c-.55-2.88-1.16-6-1.79-9.35q-.48-2.49-1-5.12c-.17-.87-.34-1.76-.5-2.65-.09-.44-.17-.89-.26-1.34l-.13-.68-.06-.34,0-.17,0-.08v-.07h0l.21-.31L484.51,204l.22,0,0,.22c1.08,5.95,2,10.92,2.62,14.46.3,1.69.53,3,.7,4,.07.42.13.77.17,1A1.3,1.3,0,0,1,488.3,224.08Z" style="fill:#263238"></path><path d="M488.3,224.08s-.11-.51-.39-1.41a7,7,0,0,0-2.1-3.33h0a7.4,7.4,0,0,0-2.45-1.49,7.58,7.58,0,0,0-3.33-.38l-.47,0,.25-.4a5,5,0,0,0,.18-4.74,4.42,4.42,0,0,0-1.75-2,4.74,4.74,0,0,0-2.68-.63,5,5,0,0,0-2.9,1.08,4.34,4.34,0,0,0-1.54,2.49,5.08,5.08,0,0,0,1.63,4.94l.25.2-.27.17a8.57,8.57,0,0,0-3,3,9.26,9.26,0,0,0-1.15,3.11,13.08,13.08,0,0,0-.08,2.92,2.9,2.9,0,0,1-.17-.75,7.93,7.93,0,0,1,0-2.2,9,9,0,0,1,1.09-3.26,8.79,8.79,0,0,1,3.07-3.24l0,.36a5.47,5.47,0,0,1-1.84-5.39,4.76,4.76,0,0,1,1.7-2.79,5.51,5.51,0,0,1,3.19-1.2,5.18,5.18,0,0,1,3,.7,5.07,5.07,0,0,1,1.95,2.19,5.5,5.5,0,0,1-.25,5.21L480,217a8,8,0,0,1,3.52.45,7.65,7.65,0,0,1,2.54,1.62h0a6.79,6.79,0,0,1,2.08,3.55,8.49,8.49,0,0,1,.21,1.08C488.31,224,488.32,224.08,488.3,224.08Z" style="fill:#263238"></path><path d="M492.11,203.57l17.19-3.26" style="fill:#fff"></path><path d="M509.3,200.31a70.84,70.84,0,0,1-8.55,1.89,73.17,73.17,0,0,1-8.64,1.37,73.82,73.82,0,0,1,8.55-1.89A75.75,75.75,0,0,1,509.3,200.31Z" style="fill:#263238"></path><path d="M492.87,207.56l3.47-.66" style="fill:#fff"></path><path d="M496.34,206.9c0,.14-.73.41-1.69.59s-1.75.21-1.78.07.73-.4,1.69-.58S496.31,206.76,496.34,206.9Z" style="fill:#263238"></path><path d="M524.91,208.69c0,.14-6.83,1.56-15.31,3.16s-15.39,2.8-15.42,2.65S501,213,509.5,211.34,524.88,208.55,524.91,208.69Z" style="fill:#263238"></path><path d="M525.74,212.13c0,.14-6.87,1.56-15.4,3.18s-15.47,2.81-15.5,2.67,6.87-1.57,15.4-3.18S525.71,212,525.74,212.13Z" style="fill:#263238"></path><path d="M526,216.22a6.09,6.09,0,0,1-1.18.32l-3.24.7c-2.74.57-6.53,1.32-10.72,2.11s-8,1.48-10.76,2l-3.27.53a5.74,5.74,0,0,1-1.21.13,5.12,5.12,0,0,1,1.17-.33L500,221c2.74-.57,6.53-1.32,10.73-2.11s8-1.49,10.75-2l3.27-.54A5.25,5.25,0,0,1,526,216.22Z" style="fill:#263238"></path><path d="M494.73,199.67a6.94,6.94,0,0,1,.76-.41,21,21,0,0,1,2.32-.93,21.3,21.3,0,0,1,9.1-.85,19.36,19.36,0,0,1,6.11,1.75,8.51,8.51,0,0,1,2.82,2.22,4.29,4.29,0,0,1,.86,3.71,6.32,6.32,0,0,1-2.36,3.24,19.76,19.76,0,0,1-3.56,2.11,33.46,33.46,0,0,1-8.18,2.8,19.65,19.65,0,0,1-8.64-.12,12.86,12.86,0,0,1-3.84-1.58,6.35,6.35,0,0,1-2.62-3,4.48,4.48,0,0,1,.42-3.79,9.3,9.3,0,0,1,2.44-2.62,24.34,24.34,0,0,1,5.59-3,24.7,24.7,0,0,1,9-1.6,22.48,22.48,0,0,1,2.48.19,5.47,5.47,0,0,1,.86.16,5.16,5.16,0,0,1-.87-.05c-.56,0-1.4-.1-2.47-.09a25.05,25.05,0,0,0-8.88,1.74,23.65,23.65,0,0,0-5.45,3,9,9,0,0,0-2.31,2.51,4.05,4.05,0,0,0-.37,3.4,5.89,5.89,0,0,0,2.44,2.78,12.41,12.41,0,0,0,3.69,1.51,19.61,19.61,0,0,0,8.43.1,33.24,33.24,0,0,0,8.05-2.75,19.07,19.07,0,0,0,3.47-2,5.75,5.75,0,0,0,2.2-3,3.78,3.78,0,0,0-.75-3.31,8.08,8.08,0,0,0-2.66-2.11,19.4,19.4,0,0,0-6-1.78,21.68,21.68,0,0,0-9,.68c-1,.32-1.81.61-2.33.83A4.28,4.28,0,0,1,494.73,199.67Z" style="fill:#407BFF"></path><path d="M515.29,199.15a43.73,43.73,0,0,1,5.08-4.46,44.61,44.61,0,0,1,5.41-4.07,44.31,44.31,0,0,1-5.08,4.47A43.84,43.84,0,0,1,515.29,199.15Z" style="fill:#407BFF"></path><path d="M521.72,198.29a37.29,37.29,0,0,1-6,1.48l-.71.15-.4.08.09-.39a12.51,12.51,0,0,1,2.17-5c.13.06-1,2.15-1.67,5.08l-.3-.32.72-.15A35.84,35.84,0,0,1,521.72,198.29Z" style="fill:#407BFF"></path><path d="M511,202.62a88.41,88.41,0,0,1-9.43,1.71,90.63,90.63,0,0,1-9.52,1.2,88.32,88.32,0,0,1,9.44-1.71A87.21,87.21,0,0,1,511,202.62Z" style="fill:#407BFF"></path><path d="M489.54,195a4.4,4.4,0,1,1-5.14-3.5A4.4,4.4,0,0,1,489.54,195Z" style="fill:#407BFF"></path><path d="M485.21,200.25a4.43,4.43,0,1,1,.83-.08A4.76,4.76,0,0,1,485.21,200.25Zm0-8.81a4.65,4.65,0,0,0-.82.08,4.38,4.38,0,1,0,5.11,3.49,4.39,4.39,0,0,0-4.29-3.57Z" style="fill:#263238"></path><polygon points="196.77 90.11 554.75 99.87 554.97 89.2 196.77 90.11" style="fill:#e0e0e0"></polygon><rect x="193.14" y="82.15" width="369.5" height="7.96" style="fill:#455a64"></rect></g><g id="freepik--character-2--inject-4"><path d="M574.6,186a10.47,10.47,0,0,1,16.34,9.9c-.26,2.08-1.14,4.17-.6,6.19,1,3.8,6.35,5.28,7,9.14a10.35,10.35,0,0,1-.67,4.54c-.41,1.49-.67,3.18.1,4.52a13.2,13.2,0,0,0,2.42,2.42c2.6,2.6,2.56,7.17.37,10.14a11.62,11.62,0,0,1-9.72,4.27,21.54,21.54,0,0,1-10.34-3.53" style="fill:#263238"></path><path d="M577.18,188.38a10.8,10.8,0,0,0-7.9-7c-3.59-.87-8-2-11.34-.36a9.47,9.47,0,0,0-4.84,4.73c-1,2.57.51,7.36,1.25,10s1.29,5.65-.17,8-4.29,3.14-6.08,5.11a7.13,7.13,0,0,0,.74,9.89c-3.18-.19-5.86,3.05-5.75,6.24s2.44,6,5.28,7.41a20.34,20.34,0,0,0,9.3,1.75,56,56,0,0,0,11.76-1.22c3.18-.67,6.5-1.74,8.57-4.25,1.91-2.31,2.43-5.46,2.44-8.45,0-10.58-5.54-21.07-3.13-31.38" style="fill:#263238"></path><path d="M561.21,301.35s-20.69,67.14-19.38,88.83,17.06,75.64,17.06,75.64Z" style="fill:#eb996e"></path><path d="M590.42,289.91c.46-.12,9.54,13.21,9.84,24.67a27.43,27.43,0,0,1-.13,3.37,42.12,42.12,0,0,1-2.85,11.68C589.61,349,581.7,372,581.57,377.21c-.41,16.12-7.38,88.51-7.38,88.51l-15.3.4-4.58-88.47,7.58-88.47Z" style="fill:#ffbe9d"></path><path d="M472.62,243.06c1.57-1.64,8.69,4.54,9.33,5s1.35-.44.75-.84c-.86-.57-9.81-6.85-8.29-8.47.84-.9,2.32.77,2.32.77s7.93,6.48,8.62,5.7-3.83-4.77-5.45-6-1.68-2.47-.55-2.73c.77-.18,5.83,3.46,7.4,4.72s5.84,4.76,5.15,1.32.07-6.34.83-7,1.92.18,1.67,1.24a12.74,12.74,0,0,0,0,3.54,8.46,8.46,0,0,0,.78,2.73c.48,1,.93,1.83,1.33,2.52,4.76,2.88,18.47,10.49,32.44,12.11,2.52.29,12.28-15,12.28-15l15.21,12.37s.12,1-10.83,14.49c-14.89,18.39-58.25-13-58.25-13l0-.05a104.4,104.4,0,0,1-10.15-5c-4.45-2.74-4.21-3.15-3.8-3.61,1.09-1.24,8,4.53,7.24,2.43S471.43,244.31,472.62,243.06Z" style="fill:#ffbe9d"></path><path d="M460.51,232.07s-2.51,22.88.71,35.41l30.58-1.33s-6.55-22.58-2.53-32.58Z" style="fill:#ebebeb"></path><path d="M460.63,231.33s.21,24.71,1.46,32.25l31-1.47s-2.72-24.29-1.67-30.78Z" style="fill:#407BFF"></path><path d="M486.74,241.71a102.8,102.8,0,0,1-10.38.89,103.09,103.09,0,0,1-10.42.36c0-.14,4.64-.54,10.38-.88S486.73,241.57,486.74,241.71Z" style="fill:#fff"></path><path d="M486.75,247c0,.14-4.64.54-10.39.88s-10.4.51-10.41.37a102.8,102.8,0,0,1,10.38-.89A103,103,0,0,1,486.75,247Z" style="fill:#fff"></path><path d="M481.48,252.08a33.48,33.48,0,0,1-5.91.62,34.33,34.33,0,0,1-5.94.1,33.48,33.48,0,0,1,5.91-.62A34.33,34.33,0,0,1,481.48,252.08Z" style="fill:#fff"></path><path d="M605.9,365.27s3-64.16-6.24-69.76-51.93,3.42-51.93,3.42S534.44,359.5,535,360C539.42,363.84,605.9,365.27,605.9,365.27Z" style="fill:#455a64"></path><path d="M606.15,359.66a59,59,0,0,1-7.7-.13,55.9,55.9,0,0,1-7.67-.66,58,58,0,0,1,7.7.14A56.72,56.72,0,0,1,606.15,359.66Z" style="fill:#263238"></path><path d="M601.44,365.25a7.14,7.14,0,0,1-.12-2.64,7,7,0,0,1,.4-2.61,6.67,6.67,0,0,1,.12,2.64A6.59,6.59,0,0,1,601.44,365.25Z" style="fill:#263238"></path><path d="M593.58,365.26a9.06,9.06,0,0,1-.49-3,8.57,8.57,0,0,1,0-3,9.06,9.06,0,0,1,.49,3A8.6,8.6,0,0,1,593.58,365.26Z" style="fill:#263238"></path><path d="M558.56,467.58l0-2,15.79-.3,0,6.16-1,.07c-4.34.24-22.09.93-25,.06C545.19,470.6,558.56,467.58,558.56,467.58Z" style="fill:#407BFF"></path><g style="opacity:0.6000000000000001"><path d="M568.71,471.53a5.45,5.45,0,0,1,2-3.35,5.35,5.35,0,0,1,3.68-1.15v4.4Z" style="fill:#fff"></path></g><g style="opacity:0.6000000000000001"><path d="M552.05,469.27s-4.69,1.36-4.1,2.13,18.55.75,26.47,0l0-.35-20.95.21S553,469.31,552.05,469.27Z" style="fill:#fff"></path></g><path d="M574.51,471l-.27,0-.78.05-2.86.12c-2.41.09-5.75.17-9.44.18s-7-.06-9.44-.14l-2.86-.11-.78-.05a.94.94,0,0,1-.27,0h1.05l2.86.06c2.42,0,5.75.09,9.44.08s7-.07,9.44-.12l2.86-.07h.78A1.17,1.17,0,0,1,574.51,471Z" style="fill:#263238"></path><path d="M553.44,471.6a6.58,6.58,0,0,0-.53-1.36,6.33,6.33,0,0,0-1-1.1,2.16,2.16,0,0,1,1.14,1A2.08,2.08,0,0,1,553.44,471.6Z" style="fill:#263238"></path><path d="M558.38,468.87s-.26-.24-.49-.6a1.75,1.75,0,0,1-.34-.71s.27.25.5.61S558.43,468.84,558.38,468.87Z" style="fill:#263238"></path><path d="M559.66,468.2s-.29-.13-.56-.37-.46-.47-.43-.51.29.12.56.37S559.69,468.16,559.66,468.2Z" style="fill:#263238"></path><path d="M560.46,466.71a2,2,0,0,1-.82.11,2,2,0,0,1-.83-.09,1.89,1.89,0,0,1,.83-.1A1.86,1.86,0,0,1,560.46,466.71Z" style="fill:#263238"></path><path d="M560.73,465.66a1.54,1.54,0,0,1-.91.27,1.64,1.64,0,0,1-1-.12,4.34,4.34,0,0,1,.93-.07A5.19,5.19,0,0,1,560.73,465.66Z" style="fill:#263238"></path><path d="M557.85,467.5a3,3,0,0,1-1,0,5.78,5.78,0,0,1-1.08-.24,3.1,3.1,0,0,1-.62-.25.55.55,0,0,1-.25-.32.4.4,0,0,1,.15-.4,1.86,1.86,0,0,1,2.3.54,1.7,1.7,0,0,1,.33.67.62.62,0,0,1,0,.27,3.14,3.14,0,0,0-.47-.86,1.82,1.82,0,0,0-.86-.56,1.59,1.59,0,0,0-1.21.09c-.16.12-.09.3.09.41a2.78,2.78,0,0,0,.56.24,6.79,6.79,0,0,0,1.05.27C557.46,467.47,557.85,467.47,557.85,467.5Z" style="fill:#263238"></path><path d="M557.58,467.55a1,1,0,0,1-.11-.7,1.6,1.6,0,0,1,.27-.74,1.05,1.05,0,0,1,.84-.52.41.41,0,0,1,.32.47,1,1,0,0,1-.18.45,3.23,3.23,0,0,1-.47.61,1.48,1.48,0,0,1-.58.41s.2-.18.48-.5a3.3,3.3,0,0,0,.42-.6c.14-.22.23-.6,0-.65s-.51.23-.66.43a1.71,1.71,0,0,0-.29.66A4.41,4.41,0,0,0,557.58,467.55Z" style="fill:#263238"></path><path d="M574.61,467s-.45,0-1.16.05a5,5,0,0,0-2.54,1,5.15,5.15,0,0,0-1.58,2.25,10,10,0,0,0-.29,1.12s0-.11,0-.32a5,5,0,0,1,.17-.85,4.79,4.79,0,0,1,4.24-3.38,4.52,4.52,0,0,1,.86,0A1.07,1.07,0,0,1,574.61,467Z" style="fill:#263238"></path><path d="M567,469.48a8.81,8.81,0,0,1-2.3.23,8.72,8.72,0,0,1-2.3-.18s1,0,2.3,0S567,469.43,567,469.48Z" style="fill:#263238"></path><path d="M570.11,469.47s-.08.22-.19.46-.16.44-.21.44-.08-.25,0-.52S570.08,469.44,570.11,469.47Z" style="fill:#263238"></path><path d="M571.27,468s-.06.2-.22.36-.33.27-.37.24.07-.21.23-.37S571.24,468,571.27,468Z" style="fill:#263238"></path><path d="M572.94,467.36c0,.06-.22.06-.46.14s-.39.2-.43.17.09-.26.37-.35S573,467.32,572.94,467.36Z" style="fill:#263238"></path><path d="M574.12,467.05c0,.05-.07.13-.2.18s-.26,0-.27,0,.07-.13.2-.18S574.1,467,574.12,467.05Z" style="fill:#263238"></path><path d="M531.65,255.81l17.61,9.9,1.22-1.24,1.3,2.44-1.2,32.81,47.77-9-3.9-5.61c-3.75-5.18-2.91-12.45-1.37-18.66l.53-2.12,10.08.16s1-5.68,0-18.32c0-.19,0-.37,0-.56a21.7,21.7,0,0,0-23.11-19.64l-17.41,1.18s-13.85-2.85-23.3,13.43Z" style="fill:#407BFF"></path><path d="M552.88,250.49a13.57,13.57,0,0,1-.63,2.47c-.52,1.67-1.14,3.64-1.82,5.83a7.62,7.62,0,0,0,.31,5.81,23.59,23.59,0,0,1,1,2.31,8.5,8.5,0,0,1-1.37-2.16,8.21,8.21,0,0,1-.85-2.68,8.87,8.87,0,0,1,.36-3.42c.71-2.31,1.45-4.33,2-5.81A12.26,12.26,0,0,1,552.88,250.49Z" style="fill:#263238"></path><path d="M603.69,264.08a7.21,7.21,0,0,1-1.37,0l-3.71-.24c-3.12-.22-7.44-.56-12.21-1l-2.27-.19-.25,0v-.25c.27-4.23.26-8,.43-10.69.07-1.35.17-2.44.25-3.18a5.32,5.32,0,0,1,.19-1.14,4.92,4.92,0,0,1,0,1.16c0,.84-.06,1.9-.1,3.17-.08,2.69,0,6.45-.25,10.72l-.24-.28,2.28.2c4.76.41,9.08.81,12.2,1.13l3.69.4A6.82,6.82,0,0,1,603.69,264.08Z" style="fill:#263238"></path><path d="M603.43,245.28a2.87,2.87,0,0,1-.67-.12l-1.92-.43a59.9,59.9,0,0,0-7.11-1.25,26.14,26.14,0,0,0-5,0,24.39,24.39,0,0,0-5.54,1.19c-3.84,1.2-7.81,3.28-12.4,4.39a20.7,20.7,0,0,1-3.46.53,17.46,17.46,0,0,1-3.4-.19,21.24,21.24,0,0,1-6-2.16c-3.6-1.88-6.63-3.92-9.53-4.85a13.67,13.67,0,0,0-7-.78,15.33,15.33,0,0,0-2.5.8,6.84,6.84,0,0,1,2.46-1,13.52,13.52,0,0,1,7.2.63c3,.91,6.06,2.94,9.63,4.77a20.53,20.53,0,0,0,5.88,2.08,16.52,16.52,0,0,0,6.65-.33c4.5-1.09,8.48-3.16,12.37-4.35a24.47,24.47,0,0,1,5.66-1.16,25.73,25.73,0,0,1,5,.12,52.1,52.1,0,0,1,7.12,1.41l1.89.53A3.23,3.23,0,0,1,603.43,245.28Z" style="fill:#fafafa"></path><path d="M583.09,272.36a10.74,10.74,0,0,1-1.31.08,22.34,22.34,0,0,0-3.53.52,50.49,50.49,0,0,0-5.07,1.51c-1.89.66-4,1.42-6.22,2a18.69,18.69,0,0,1-6.55.57,11.87,11.87,0,0,1-5.06-1.81,8.55,8.55,0,0,1-2.54-2.59,5.23,5.23,0,0,1-.43-.88c-.09-.21-.12-.32-.1-.33s.22.42.7,1.1a8.89,8.89,0,0,0,2.57,2.39,11.85,11.85,0,0,0,4.91,1.64,18.74,18.74,0,0,0,6.37-.6c2.23-.55,4.29-1.3,6.2-1.93a41,41,0,0,1,5.15-1.42,17.51,17.51,0,0,1,3.59-.36A4.69,4.69,0,0,1,583.09,272.36Z" style="fill:#fafafa"></path><g style="opacity:0.30000000000000004"><path d="M584.55,248c-2.15,5.32-2.41,11.18-3.15,16.87s-2.15,11.6-6,15.82-10,6.18-15.66,7.83l24.87-2.17Z"></path></g><path d="M583.2,389.34s8.93-38,16.91-61.14c8-23.36-3.49-38.19-3.49-38.19l-45.2,5.28-8.7,33.42s-6.91,35.69-4.14,62Z" style="fill:#407BFF"></path><path d="M596.22,336.92a19,19,0,0,0-1.18-1.87,11.91,11.91,0,0,0-4.72-3.61,17.63,17.63,0,0,0-8.71-1.32,78.1,78.1,0,0,0-10.81,2,30.68,30.68,0,0,1-11,.75,23.67,23.67,0,0,1-8.37-3.39,53.76,53.76,0,0,0-5.33-2.88c-1.31-.57-2.08-.78-2.06-.83a2,2,0,0,1,.56.12,14.44,14.44,0,0,1,1.58.53,44.33,44.33,0,0,1,5.43,2.74,24,24,0,0,0,8.26,3.24,31.25,31.25,0,0,0,10.86-.79,75.35,75.35,0,0,1,10.89-1.95,17.76,17.76,0,0,1,8.9,1.47,11.69,11.69,0,0,1,4.73,3.82,6,6,0,0,1,.5.81,6.29,6.29,0,0,1,.32.63A2.32,2.32,0,0,1,596.22,336.92Z" style="fill:#fafafa"></path><path d="M585.56,375a15.2,15.2,0,0,0-1.4-1.46,10.2,10.2,0,0,0-5-2.22,16.55,16.55,0,0,0-8,.95c-2.94,1-6,2.58-9.38,3.83a20.77,20.77,0,0,1-10.07,1.22,21.31,21.31,0,0,1-7.87-2.65,19.41,19.41,0,0,1-4.42-3.43,13.17,13.17,0,0,1-1-1.15,2,2,0,0,1-.31-.44s.5.54,1.45,1.44a20.4,20.4,0,0,0,4.46,3.26,21.62,21.62,0,0,0,7.75,2.49,20.6,20.6,0,0,0,9.84-1.23c3.35-1.22,6.4-2.83,9.39-3.79a16.59,16.59,0,0,1,8.25-.86,10.08,10.08,0,0,1,5,2.42,7.21,7.21,0,0,1,1,1.16C585.49,374.87,585.58,375,585.56,375Z" style="fill:#fafafa"></path><g style="opacity:0.2"><path d="M546,348.74a12.38,12.38,0,0,0-.34,5.5c.44,1.8,2,3.47,3.83,3.42,1,0,2-.5,2.87,0a3.33,3.33,0,0,1,1.09,2.08,10.56,10.56,0,0,0,18.43,3.76c2.46-3.08,3-7.32,2.48-11.23S572.29,344.68,571,341a144.37,144.37,0,0,1-5.81-23.57,8.22,8.22,0,0,1,.18-4.77c1.13-2.45,4.2-3.16,6.85-3.62a253.24,253.24,0,0,0,29.9-7.1c-5.57-1.23-11.38-.38-17,.65q-9.35,1.71-18.56,4.06a9.06,9.06,0,0,0-4.3,2,9.5,9.5,0,0,0-2,4.43,148.57,148.57,0,0,1-15.1,36.82"></path></g><path d="M559.67,308.14l43.29-7a52.76,52.76,0,0,0-2-6.14c-.87-2.18-3.28-3.88-4.38-5-2.57-2.6-38.66,13.32-38.66,13.32Z" style="fill:#455a64"></path><polygon points="559.67 308.13 547.73 304.16 549.51 294.29 561.21 303.42 559.67 308.13" style="fill:#455a64"></polygon><path d="M559.83,308.13s-3.31,11.9-3.21,19.77.41,24.31,1.5,30.11,16.84-.83,13.8-6.22-8.42-24.72-8.56-29.27.28-15.88.28-15.88Z" style="fill:#455a64"></path><path d="M571,350.14a5.69,5.69,0,0,1-1.17,1.89,13.93,13.93,0,0,1-9.27,5,5.81,5.81,0,0,1-2.23-.06,21.92,21.92,0,0,1,2.18-.31A16,16,0,0,0,565.4,355a15.85,15.85,0,0,0,4.11-3.2C570.42,350.8,570.89,350.1,571,350.14Z" style="fill:#263238"></path><path d="M562.57,360.28c-.13.05-.53-.68-.89-1.63s-.55-1.76-.41-1.81.53.67.89,1.62S562.71,360.23,562.57,360.28Z" style="fill:#263238"></path><path d="M567.48,358.43c-.13.06-.61-.63-1.06-1.54s-.73-1.71-.6-1.77.6.62,1.06,1.54S567.61,358.36,567.48,358.43Z" style="fill:#263238"></path><path d="M571.58,355.35c-.12.07-.64-.61-1.16-1.52s-.84-1.7-.71-1.77.64.6,1.16,1.52S571.71,355.28,571.58,355.35Z" style="fill:#263238"></path><path d="M557,305.93c-4.16,7.6-2.38,17.59-7.25,24.74-1.94,2.86-4.87,5.12-6,8.38a8,8,0,0,0,1.38,7.75,6.8,6.8,0,0,0,7.49,1.86,8.22,8.22,0,0,0,4.11-4.37,24.61,24.61,0,0,0,1.54-5.94q2.31-13.44,4.61-26.89c.3-1.79.59-3.74-.29-5.33s-3.45-2.29-4.5-.8" style="fill:#455a64"></path><path d="M557,348.2a11.47,11.47,0,0,1-.2-1.6c-.1-1-.22-2.54-.32-4.39-.22-3.71-.36-8.85-.23-14.52s.51-10.8.89-14.5c.19-1.85.37-3.34.52-4.37a10.7,10.7,0,0,1,.28-1.59,8.87,8.87,0,0,1-.07,1.61c-.1,1.13-.22,2.6-.36,4.38-.29,3.7-.61,8.82-.74,14.48s0,10.78.08,14.49c.06,1.79.11,3.26.15,4.39A8.42,8.42,0,0,1,557,348.2Z" style="fill:#263238"></path><path d="M554.22,347.37a5.22,5.22,0,0,1-2-.23,12.79,12.79,0,0,1-7.65-5.5,4.73,4.73,0,0,1-.84-1.79,16.24,16.24,0,0,0,10.46,7.52Z" style="fill:#263238"></path><path d="M549.13,345.6c.09.12-.47.69-1.24,1.28s-1.46,1-1.55.87.47-.69,1.24-1.28S549,345.49,549.13,345.6Z" style="fill:#263238"></path><path d="M545.21,342.52c.07.12-.29.46-.67.9s-.69.83-.82.77,0-.61.43-1.11S545.14,342.39,545.21,342.52Z" style="fill:#263238"></path><path d="M564,302.34s.18.19.33.62a4.38,4.38,0,0,1,.14,1.91,4.71,4.71,0,0,1-1.25,2.57,4.65,4.65,0,0,1-6.48-.05,4.61,4.61,0,0,1-1.22-2.58,4.29,4.29,0,0,1,.17-1.91,1.4,1.4,0,0,1,.33-.62,6.49,6.49,0,0,0-.14,2.47,4.54,4.54,0,0,0,1.2,2.31,4.29,4.29,0,0,0,5.8,0,4.44,4.44,0,0,0,1.23-2.29A6.16,6.16,0,0,0,564,302.34Z" style="fill:#263238"></path><path d="M561.68,308a26.88,26.88,0,0,0-1-3,25.07,25.07,0,0,0-1.84-2.53,5.42,5.42,0,0,1,2.88,5.49Z" style="fill:#263238"></path><path d="M526.25,298.58c.45-2.22,9.77-.77,10.57-.7s.91-1.09.19-1.11c-1,0-12-.59-11.52-2.77.23-1.21,2.36-.58,2.36-.58s10.17,1.28,10.34.24-5.78-2-7.8-2.18-2.74-1.21-1.92-2c.56-.56,6.78-.15,8.78.07s7.48.94,5.06-1.61-3.3-5.41-3-6.36a1.1,1.1,0,0,1,2.07.16,13.17,13.17,0,0,0,1.9,3,8.35,8.35,0,0,0,2.11,1.91c.94.59,1.76,1,2.47,1.43,5.56-.1,21.22-.93,33.91-7,2.29-1.09,2.46-18.53,2.46-18.53l19.47,1.73s0,5-1.48,18c-2.73,23.51-56.27,19.92-56.27,19.92v0a104.53,104.53,0,0,1-11.25,1.17c-5.22,0-5.23-.43-5.13-1,.27-1.64,9.19-.41,7.42-1.79S525.9,300.27,526.25,298.58Z" style="fill:#ffbe9d"></path><g style="opacity:0.30000000000000004"><path d="M544,263.06a42.92,42.92,0,0,0,8.82-12.41c-1.42,3.78-2.86,7.69-2.75,11.73,0,1.19.13,2.57-.75,3.38a19.38,19.38,0,0,0-5.22-2.67"></path></g><path d="M582.33,190.2l-.05,2.52-.5,37.67a8.09,8.09,0,0,1-8.55,7.71h0c-4.73-.1-8.57-3.76-8.59-8.18,0-4.64-.11-9.52-.11-9.52s-6-1-7.21-8.79c-.62-3.88-.42-10.24-.1-15.43a8.24,8.24,0,0,1,9.08-7.68Z" style="fill:#ffbe9d"></path><path d="M559,201a1,1,0,0,0,1,1,1,1,0,0,0,1-.9,1,1,0,0,0-1-1A1,1,0,0,0,559,201Z" style="fill:#263238"></path><path d="M558.6,199.49c.13.13.88-.43,2-.43s1.86.54,2,.41-.07-.3-.41-.55a2.78,2.78,0,0,0-1.59-.49,2.65,2.65,0,0,0-1.56.51C558.65,199.19,558.54,199.43,558.6,199.49Z" style="fill:#263238"></path><path d="M569.16,201a1,1,0,0,0,1,1,1,1,0,0,0,1-.9,1,1,0,0,0-1-1A1,1,0,0,0,569.16,201Z" style="fill:#263238"></path><path d="M569.18,199.69c.12.13.88-.43,2-.43s1.86.54,2,.41-.07-.3-.42-.55a2.76,2.76,0,0,0-3.14,0C569.23,199.39,569.12,199.63,569.18,199.69Z" style="fill:#263238"></path><path d="M565.27,207.66a7.32,7.32,0,0,0-1.74-.31c-.28,0-.54-.08-.59-.27a1.5,1.5,0,0,1,.19-.82c.26-.66.53-1.36.81-2.09a36,36,0,0,0,1.83-5.47A35.78,35.78,0,0,0,563.5,204c-.27.74-.53,1.44-.77,2.11a1.55,1.55,0,0,0-.15,1.08.73.73,0,0,0,.46.4,2.08,2.08,0,0,0,.46.06A6.36,6.36,0,0,0,565.27,207.66Z" style="fill:#263238"></path><path d="M564.53,220.4A19.89,19.89,0,0,0,575,217.61s-2.53,5.36-10.33,4.63Z" style="fill:#eb996e"></path><path d="M565.73,210.26a2,2,0,0,1,1.74-.72,1.77,1.77,0,0,1,1.22.65,1.13,1.13,0,0,1,.08,1.29,1.3,1.3,0,0,1-1.41.35A3.94,3.94,0,0,1,566,211a1,1,0,0,1-.31-.32.36.36,0,0,1,0-.4" style="fill:#407BFF"></path><path d="M568.44,208.41c-.18,0-.18,1.16-1.18,2s-2.24.7-2.25.86.28.23.8.24a2.92,2.92,0,0,0,1.88-.65,2.56,2.56,0,0,0,.92-1.67C568.65,208.69,568.52,208.4,568.44,208.41Z" style="fill:#263238"></path><path d="M583.65,225.94c-2.3-.8-5-1.61-5.89-3.89a11.62,11.62,0,0,1-.17-7.19c.31-1.08.75-2.27.27-3.29a6.28,6.28,0,0,0-1.7-1.75,7.21,7.21,0,0,1-2.21-4.91,12.66,12.66,0,0,1,1-5.39,4.28,4.28,0,0,0,.47-2.94,4.61,4.61,0,0,0-1.35-1.64,12.82,12.82,0,0,1-2.71-3.62,3.63,3.63,0,0,1-.37-3.09c.56-1.17,2-1.54,3.33-1.64,3.09-.23,6.5.45,8.46,2.84,1.77,2.14,2,5.13,2.09,7.9.4,8.74.78,17.55-.73,26.16" style="fill:#263238"></path><path d="M554.27,189.33a11.38,11.38,0,0,0,1.33.72,9.09,9.09,0,0,1,1.13,1c.2.2.42.41.61.64,0,.05.08.11.14.17l.22.22.54.51a14.11,14.11,0,0,0,1.67,1.32,8.73,8.73,0,0,0,8.82.54,9.23,9.23,0,0,0,3.24-2.6c1.33-1.77,1.53-3.2.92-4s-2.15-.67-3.87-.24a23.35,23.35,0,0,1-2.55.5,6.24,6.24,0,0,1-2-.05,5.38,5.38,0,0,1-.94-.34c-.43-.19-1-.49-1.61-.78-.31-.15-.65-.3-1-.44l-.55-.2-.61-.18a6.82,6.82,0,0,0-2.34-.19,4.2,4.2,0,0,0-3.19,1.66A1.27,1.27,0,0,0,554.27,189.33Z" style="fill:#263238"></path><path d="M568.9,195.47c.11.29,1.18.15,2.44.31s2.29.49,2.45.23-.1-.4-.51-.68a4,4,0,0,0-1.82-.64,4.24,4.24,0,0,0-1.91.22C569.09,195.1,568.85,195.33,568.9,195.47Z" style="fill:#263238"></path><path d="M559,196.37c.19.25.93,0,1.82,0s1.65.16,1.82-.09,0-.37-.37-.6a2.65,2.65,0,0,0-2.94.09C559,196,558.91,196.25,559,196.37Z" style="fill:#263238"></path></g><g id="freepik--character-1--inject-4"><polygon points="111.41 461.27 109.15 470.42 124.72 472.17 125.28 463.1 111.41 461.27" style="fill:#455a64"></polygon><path d="M118.44,461.72a37.81,37.81,0,0,1-1.49,8.33,37.81,37.81,0,0,1,1.49-8.33Z" style="fill:#263238"></path><path d="M124.78,471.17a12.6,12.6,0,0,1-2.25-.25l-5.4-.8c-2.11-.32-4-.64-5.39-.92a10.21,10.21,0,0,1-2.19-.56,13.37,13.37,0,0,1,2.25.26l5.4.8c2.11.32,4,.64,5.39.92A11.55,11.55,0,0,1,124.78,471.17Z" style="fill:#263238"></path><path d="M182.6,467.4l-.16-5.68H165.58l.11,10.24,1,0c4.67.16,23.75.46,26.85-.56C197,470.31,182.6,467.4,182.6,467.4Z" style="fill:#455a64"></path><path d="M165.44,471.58l.29,0,.83,0,3.08.07c2.59,0,6.18,0,10.14-.05s7.55-.23,10.14-.38l3.07-.2.83-.06.29,0a1.07,1.07,0,0,0-.29,0l-.84,0-3.07.13c-2.59.11-6.17.25-10.13.33s-7.55.1-10.14.1h-3.91A.94.94,0,0,0,165.44,471.58Z" style="fill:#263238"></path><path d="M188.21,471.54a7.22,7.22,0,0,1,.54-1.48,7.55,7.55,0,0,1,1-1.19,2.19,2.19,0,0,0-1.19,1.09A2.28,2.28,0,0,0,188.21,471.54Z" style="fill:#263238"></path><path d="M183.17,469.12c.05,0,.28-.26.52-.66s.39-.73.34-.76-.28.26-.52.66S183.12,469.09,183.17,469.12Z" style="fill:#263238"></path><path d="M181.79,468.43s.3-.14.58-.41.49-.52.45-.56-.3.14-.59.41S181.75,468.39,181.79,468.43Z" style="fill:#263238"></path><path d="M180.89,466.85a3.58,3.58,0,0,0,1.76,0,3.92,3.92,0,0,0-1.76,0Z" style="fill:#263238"></path><path d="M180.56,465.74a1.79,1.79,0,0,0,1,.26,1.77,1.77,0,0,0,1-.16,5.52,5.52,0,0,0-1,0A4.94,4.94,0,0,0,180.56,465.74Z" style="fill:#263238"></path><path d="M183.71,467.64a3.43,3.43,0,0,0,1.09,0,7.29,7.29,0,0,0,1.15-.28,3.33,3.33,0,0,0,.65-.29.6.6,0,0,0,.26-.35.44.44,0,0,0-.17-.43,2,2,0,0,0-2.45.64,1.91,1.91,0,0,0-.34.73.63.63,0,0,0,0,.3,3,3,0,0,1,.47-.94,2,2,0,0,1,.92-.62,1.65,1.65,0,0,1,1.29.06c.18.12.12.32-.07.44a3.37,3.37,0,0,1-.61.28,6.78,6.78,0,0,1-1.11.31C184.12,467.59,183.71,467.6,183.71,467.64Z" style="fill:#263238"></path><path d="M184,467.68a1,1,0,0,0,.11-.75,1.76,1.76,0,0,0-.31-.79,1.08,1.08,0,0,0-.92-.53.42.42,0,0,0-.32.51,1.15,1.15,0,0,0,.19.48,3.6,3.6,0,0,0,.53.64,1.58,1.58,0,0,0,.63.43s-.22-.19-.53-.53a3.41,3.41,0,0,1-.46-.64c-.16-.23-.27-.64,0-.69s.56.23.73.44a2,2,0,0,1,.32.7A3.39,3.39,0,0,1,184,467.68Z" style="fill:#263238"></path><path d="M165.68,467a12.17,12.17,0,0,1,1.25,0,5.48,5.48,0,0,1,2.75,1.07,5.39,5.39,0,0,1,1.75,2.36c.28.72.31,1.21.35,1.2a.89.89,0,0,0,0-.34,4.49,4.49,0,0,0-.2-.91,5.26,5.26,0,0,0-1.77-2.48,5.19,5.19,0,0,0-2.86-1,5,5,0,0,0-.93,0C165.8,466.9,165.68,466.93,165.68,467Z" style="fill:#263238"></path><path d="M173.9,470a10.26,10.26,0,0,0,2.47.19,9.38,9.38,0,0,0,2.47-.26c0-.06-1.11,0-2.47.05S173.9,469.94,173.9,470Z" style="fill:#263238"></path><path d="M170.59,470.06s.09.23.21.49.18.47.24.46.08-.26-.06-.55S170.62,470,170.59,470.06Z" style="fill:#263238"></path><path d="M169.3,468.54s.08.21.26.38.35.29.39.24-.07-.21-.25-.38S169.34,468.5,169.3,468.54Z" style="fill:#263238"></path><path d="M167.5,467.87c0,.05.24.05.49.13s.43.21.48.17-.11-.27-.42-.37S167.48,467.81,167.5,467.87Z" style="fill:#263238"></path><path d="M166.22,467.56c0,.05.08.14.23.19s.27.05.29,0-.08-.14-.22-.19S166.24,467.51,166.22,467.56Z" style="fill:#263238"></path><path d="M244.38,247.46l-4.8,2.29-4.42-6.93,2.59-5.35c.24-.5.51-1.06.78-1.7a7.29,7.29,0,0,0,.57-2.35,10.93,10.93,0,0,0-.08-3c-.24-.89.71-1.63,1.35-1.1s1.36,3,.88,5.91,3-.18,4.23-1.3,5.36-4.38,6-4.26c1,.19.92,1.26-.38,2.35s-4.95,4.62-4.34,5.27h0a3.61,3.61,0,0,1,3.14,2.8c.32,1.45.59,3.45-.23,4.12A48.14,48.14,0,0,1,244.38,247.46Z" style="fill:#b78876"></path><path d="M151.33,182.82l-.13,41.68,17.88.85.52-10.14s6.35,1.26,8-4.63c1-3.77.79-32.89.79-32.89Z" style="fill:#b78876"></path><path d="M182.41,181.8c-1.2,2.49-6.94,7-6.94,7l-2.59,6.94c-2.25-1.76-5.27-1.66-5.84,2.29-.41,2.86,3.14,3.44,3.14,3.44-2.07,3.52-3.47,6.37-6.48,9.72-3.26,3.62-5.09,4-8.63,4h-3.89s-8-6.66-6.4-24.22,17.36-12.43,21.12-16.82C172,167.1,186.43,173.48,182.41,181.8Z" style="fill:#263238"></path><path d="M145.66,205.74s.18,0,.5,0a8.57,8.57,0,0,0,1.41-.17,10.1,10.1,0,0,0,4.58-2.43,25.47,25.47,0,0,0,4.63-6.21c1.51-2.49,3.17-5.41,6-7.38a14.49,14.49,0,0,1,4.56-2c1.56-.4,3.08-.65,4.52-.93a17.06,17.06,0,0,0,7.22-2.69,7.84,7.84,0,0,0,2.92-4.21,6.41,6.41,0,0,0,.16-1.91s0,.17.06.49a5.53,5.53,0,0,1-.14,1.43,7.78,7.78,0,0,1-2.91,4.31,16.9,16.9,0,0,1-7.27,2.77c-2.85.58-6.18,1-9,2.86s-4.45,4.83-6,7.31a25.17,25.17,0,0,1-4.71,6.22,10,10,0,0,1-4.65,2.4A5.6,5.6,0,0,1,145.66,205.74Z" style="fill:#455a64"></path><path d="M144.74,191.46s.28-.11.83-.29a11.68,11.68,0,0,1,2.45-.59,5.53,5.53,0,0,1,3.84.83,3.23,3.23,0,0,1,1.38,2.05,2.9,2.9,0,0,1-.79,2.62,2.27,2.27,0,0,1-1.41.57,2.89,2.89,0,0,1-1.54-.41,4.6,4.6,0,0,1-2.05-2.6,6.42,6.42,0,0,1,1.77-6.8,6.5,6.5,0,0,1,3.62-1.62,11.19,11.19,0,0,1,4.12.53,28.53,28.53,0,0,0,4.15,1,16.9,16.9,0,0,0,4.38,0,14.6,14.6,0,0,0,4.21-1.16,5,5,0,0,0,2.81-2.95,3.83,3.83,0,0,0-.93-3.73,3.26,3.26,0,0,0-3.59-.53,2.68,2.68,0,0,0-1.33,1.24,3,3,0,0,0-.28,1.75,4.08,4.08,0,0,0,1.81,2.85,5.91,5.91,0,0,0,3.12.88,9.14,9.14,0,0,0,3-.45,10.79,10.79,0,0,0,4.44-2.7,11.65,11.65,0,0,0,3.13-5.57c.11-.56.18-.85.18-.85s0,.29-.14.86a11.51,11.51,0,0,1-3.09,5.65,11,11,0,0,1-4.47,2.75,9.2,9.2,0,0,1-3,.47,6.06,6.06,0,0,1-3.2-.89,4.25,4.25,0,0,1-1.9-3,3.11,3.11,0,0,1,.3-1.86,2.9,2.9,0,0,1,1.41-1.33,3.48,3.48,0,0,1,3.81.56,4,4,0,0,1,1,3.93,5.13,5.13,0,0,1-2.92,3.08,14.78,14.78,0,0,1-4.28,1.19,16.84,16.84,0,0,1-4.43,0,28.31,28.31,0,0,1-4.18-1,10.86,10.86,0,0,0-4-.53,6.22,6.22,0,0,0-5.25,8.17,4.49,4.49,0,0,0,2,2.51,2.81,2.81,0,0,0,1.45.4,2.16,2.16,0,0,0,1.32-.53,2.76,2.76,0,0,0,.76-2.49,3.09,3.09,0,0,0-1.31-2,5.5,5.5,0,0,0-3.77-.84,11.64,11.64,0,0,0-2.45.55Z" style="fill:#455a64"></path><polygon points="132.95 304.92 109.15 461.27 128.92 463.78 156.82 332.64 163.84 464.66 185.27 464.29 181.62 300.89 132.95 304.92" style="fill:#263238"></polygon><path d="M163.37,465.17l0-.48-6.82-128.24L129.31,464.33l-20.73-2.63,23.94-157.24.39,0,49.2-4.08v.53l3.66,163.9Zm-6.26-136.33,7.2,135.31,20.45-.36-3.63-162.36-47.74,4L109.72,460.84l18.81,2.39Z" style="fill:#263238"></path><path d="M178.9,464c-.14,0-.26-31.33-.26-70s.12-70,.26-70,.26,31.32.26,70S179,464,178.9,464Z" style="fill:#455a64"></path><path d="M124.57,463.47a2.17,2.17,0,0,1,0-.35c0-.25.11-.57.18-1l.72-3.8c.67-3.33,1.62-8.09,2.79-14,2.39-11.78,5.79-28,9.69-45.95s7.58-34.12,10.31-45.82c1.37-5.83,2.49-10.55,3.27-13.86.4-1.6.7-2.86.92-3.75.11-.41.19-.73.26-1a1.89,1.89,0,0,1,.1-.33,1.63,1.63,0,0,1,0,.34c-.05.25-.12.58-.2,1-.2.9-.48,2.16-.83,3.78-.74,3.31-1.8,8-3.11,13.89-2.64,11.73-6.25,27.93-10.16,45.85s-7.35,34.16-9.84,45.92c-1.24,5.85-2.24,10.6-3,13.92-.35,1.62-.62,2.89-.82,3.78l-.22,1A1.87,1.87,0,0,1,124.57,463.47Z" style="fill:#455a64"></path><path d="M163.84,332.5a21.12,21.12,0,0,1-3.37.33c-2.09.15-5,.3-8.14.61s-6,.73-8.09,1a20.57,20.57,0,0,1-3.38.33,22.66,22.66,0,0,1,3.32-.7c2.06-.35,4.92-.83,8.1-1.15s6.08-.4,8.17-.45A21.8,21.8,0,0,1,163.84,332.5Z" style="fill:#455a64"></path><path d="M182.13,322.35a5.28,5.28,0,0,1-2.34.27,10,10,0,0,1-8.86-6.37,5,5,0,0,1-.49-2.3c.09,0,.24.87.83,2.16a10.85,10.85,0,0,0,3.45,4.22,10.74,10.74,0,0,0,5.1,1.92C181.23,322.4,182.12,322.26,182.13,322.35Z" style="fill:#455a64"></path><path d="M130.59,313.77h52.08l-2-42.1c-.34-8.27-.29-9.26-.49-16.89,0,0,7.77,9.4,13.89,16a12.45,12.45,0,0,0,14.46,2.77l32-22.32-6-15.33-29.08,17.8c-1.33-.82-12.66-17-20.48-24.86a27.73,27.73,0,0,0-18.86-8.16,140.48,140.48,0,0,0-17.67.71A18.49,18.49,0,0,0,132,238.23c-.56,6.76-.11,14.6-.11,27.94Z" style="fill:#407BFF"></path><path d="M139,225.24c-4.91,2.18-25.42,28.46-26.87,45.52-1.08,12.72,23.67,11.34,23.67,11.34s1.68-52.2.95-51.46" style="fill:#407BFF"></path><path d="M134,229.69s0,.19,0,.55-.07.93-.12,1.56c-.1,1.36-.24,3.32-.37,5.75-.28,4.86-.51,11.57-.74,19s-.44,14.15-.69,19c-.12,2.43-.25,4.39-.35,5.75-.05.63-.1,1.14-.13,1.56s-.06.54-.06.54,0-.19,0-.54.05-.94.09-1.57c.07-1.43.17-3.38.28-5.75.21-4.86.4-11.58.63-19s.49-14.14.8-19c.15-2.43.31-4.39.44-5.75.06-.62.12-1.14.16-1.55S134,229.69,134,229.69Z" style="fill:#263238"></path><path d="M131.93,263.18a5.89,5.89,0,0,1-.7,1c-.46.59-1.11,1.38-1.87,2.22s-1.48,1.57-2,2.09a6.44,6.44,0,0,1-.91.79,7.52,7.52,0,0,1,.8-.9c.51-.54,1.22-1.28,2-2.12s1.43-1.61,1.92-2.17A6.66,6.66,0,0,1,131.93,263.18Z" style="fill:#263238"></path><path d="M204.25,258.87a15.45,15.45,0,0,1,.49-2.56,18.08,18.08,0,0,1,.69-2.51,15.26,15.26,0,0,1-.49,2.56A15.66,15.66,0,0,1,204.25,258.87Z" style="fill:#263238"></path><path d="M207.17,259.32a21.18,21.18,0,0,1-.77-2.88,23.7,23.7,0,0,1-.56-2.92,20.76,20.76,0,0,1,.77,2.87A23.66,23.66,0,0,1,207.17,259.32Z" style="fill:#263238"></path><path d="M181.52,256.14s-.11-.09-.3-.28-.52-.49-.84-.81c-.72-.7-1.77-1.73-3-3.05-2.44-2.62-5.88-6.46-7.81-11.7a19.25,19.25,0,0,1-1.23-7.67,15.93,15.93,0,0,1,1.39-6.2,9,9,0,0,1,2.7-3.3,8.59,8.59,0,0,1,1-.64l.36-.2s-.49.28-1.28.9a9.19,9.19,0,0,0-2.62,3.31,15.82,15.82,0,0,0-1.32,6.13,19,19,0,0,0,1.22,7.59c1.92,5.2,5.32,9,7.73,11.68,1.22,1.33,2.25,2.37,3,3.1l.81.83Z" style="fill:#263238"></path><path d="M145.92,241.26c-.11.09-1-.8-1.92-2a7.24,7.24,0,0,1-1.51-2.33,7.84,7.84,0,0,1,1.92,2A7.7,7.7,0,0,1,145.92,241.26Z" style="fill:#fafafa"></path><path d="M158.37,255.39a28.83,28.83,0,0,1-5.49,5.47,15,15,0,0,1,2.56-2.92A14.27,14.27,0,0,1,158.37,255.39Z" style="fill:#fafafa"></path><path d="M170.41,275.66a23.54,23.54,0,0,1-1.41-2.55,23.17,23.17,0,0,1-1.53-2.48,5.29,5.29,0,0,1,2,2.22A5.36,5.36,0,0,1,170.41,275.66Z" style="fill:#fafafa"></path><path d="M139.18,273.37a14.34,14.34,0,0,1-1.44-8.21c.16,0,.22,1.87.62,4.12S139.33,273.31,139.18,273.37Z" style="fill:#fafafa"></path><path d="M155.77,282.29a6.7,6.7,0,0,1-1-3.37,6.94,6.94,0,0,1,.34-3.49c.16,0,0,1.57.18,3.45S155.91,282.24,155.77,282.29Z" style="fill:#fafafa"></path><path d="M149.21,295.26a17.55,17.55,0,0,1-3.79-2.06,17.8,17.8,0,0,1-3.51-2.5,18.38,18.38,0,0,1,3.79,2.06A18.19,18.19,0,0,1,149.21,295.26Z" style="fill:#fafafa"></path><path d="M175,291.43a44.81,44.81,0,0,1-3.92,2.44,45.56,45.56,0,0,1-3.9,2.49,13.51,13.51,0,0,1,3.62-2.93A13.19,13.19,0,0,1,175,291.43Z" style="fill:#fafafa"></path><path d="M142.56,306.09a16.11,16.11,0,0,1-4-.54,16.18,16.18,0,0,1-4-1.06,16.53,16.53,0,0,1,4.05.55A16.28,16.28,0,0,1,142.56,306.09Z" style="fill:#fafafa"></path><path d="M161.52,308.75a9.46,9.46,0,0,1-3-5.48A19.53,19.53,0,0,1,160,306,19.16,19.16,0,0,1,161.52,308.75Z" style="fill:#fafafa"></path><path d="M179.3,304.63c.11.09-.43.92-1.2,1.85s-1.5,1.6-1.61,1.51.43-.92,1.21-1.85S179.19,304.54,179.3,304.63Z" style="fill:#fafafa"></path><path d="M143.72,249.65c.08.12-.62.72-1.56,1.36s-1.78,1-1.86.92.62-.73,1.57-1.36S143.64,249.53,143.72,249.65Z" style="fill:#fafafa"></path><path d="M157.22,234.57a15.19,15.19,0,0,1-1.49-4.1,14.84,14.84,0,0,1-.76-4.3,24,24,0,0,1,1.26,4.16A23.32,23.32,0,0,1,157.22,234.57Z" style="fill:#fafafa"></path><path d="M170.18,248.3a20,20,0,0,1-2.72-.57,18.46,18.46,0,0,1-2.75-.48,7.15,7.15,0,0,1,5.47,1.05Z" style="fill:#fafafa"></path><path d="M179.09,236.63a7.54,7.54,0,0,1-5.93-.91,28.77,28.77,0,0,1,3,.55C177.73,236.53,179.08,236.48,179.09,236.63Z" style="fill:#fafafa"></path><path d="M188.21,249.64a12.21,12.21,0,0,1,.17-4.42,12.38,12.38,0,0,1,1.23-4.24,38.9,38.9,0,0,1-.72,4.33A39.87,39.87,0,0,1,188.21,249.64Z" style="fill:#fafafa"></path><path d="M198.92,265a29.17,29.17,0,0,1-5.39-5.56,29.17,29.17,0,0,1,5.39,5.56Z" style="fill:#fafafa"></path><path d="M207.83,263.78a8.51,8.51,0,0,1-1.39,2.65,8.94,8.94,0,0,1-1.83,2.36,8.77,8.77,0,0,1,1.39-2.65A8.94,8.94,0,0,1,207.83,263.78Z" style="fill:#fafafa"></path><path d="M218.17,258.75a12.33,12.33,0,0,1-1.77-3.06,12,12,0,0,1-1.3-3.28,23.64,23.64,0,0,1,3.07,6.34Z" style="fill:#fafafa"></path><path d="M232.25,252.92a13.26,13.26,0,0,1-3.68-.39,13.49,13.49,0,0,1-3.59-.9,12.82,12.82,0,0,1,3.68.39A13.05,13.05,0,0,1,232.25,252.92Z" style="fill:#fafafa"></path><path d="M120.43,267.9a29.65,29.65,0,0,1,3.35-7.11,30.14,30.14,0,0,1-3.35,7.11Z" style="fill:#fafafa"></path><path d="M127.9,254.73a11,11,0,0,1-2.47-2.35,11.27,11.27,0,0,1-2.07-2.69,11,11,0,0,1,2.46,2.34A12,12,0,0,1,127.9,254.73Z" style="fill:#fafafa"></path><path d="M127.28,275.88c.09.11-.45.71-1.21,1.34s-1.44,1-1.53.93.44-.71,1.2-1.34S127.19,275.77,127.28,275.88Z" style="fill:#fafafa"></path><path d="M129.8,240.74c.11.09-.21.68-.71,1.31s-1,1.06-1.12,1,.21-.67.71-1.3S129.69,240.65,129.8,240.74Z" style="fill:#fafafa"></path><g style="opacity:0.30000000000000004"><path d="M171.6,244.38c3.38,10.63,6,21.79,9.38,32.41l-.81-22A52.49,52.49,0,0,1,171.6,244.38Z"></path></g><g style="opacity:0.30000000000000004"><path d="M131.33,282.14c-2.53-11.75-2.23-24,2-35.26Z"></path></g></g></svg>