<svg xmlns="http://www.w3.org/2000/svg" width="1665" height="269" viewBox="0 0 1665 269" fill="none">
  <path d="M0 0L7.16875 17.9053C14.2219 36.1469 28.9062 71.4531 42.7812 107.6C56.8875 143.747 71.6875 179.053 85.5625 161.4C99.6687 143.747 113.312 71.4531 128.344 53.8C142.334 36.1469 156.094 71.4531 171.125 71.7053C185 71.4531 198.875 36.1469 213.906 22.4447C227.666 9.24688 241.656 17.6531 256.688 31.3553C270.331 44.5531 284.438 63.0469 298.312 80.7C313.112 98.3531 327.219 116.847 341.094 138.955C355.778 161.4 370 188.3 383.875 183.845C398.444 179.053 412.781 143.747 426.656 147.95C441.109 152.153 455.562 197.547 469.438 210.745C483.891 224.447 498.344 205.953 512.219 197.295C526.556 188.3 541.125 188.3 555 161.4C569.222 134.5 583.906 80.7 597.781 53.8C611.888 26.9 626.688 26.9 640.562 44.8053C654.669 63.0469 668.312 98.3531 683.344 112.055C697.334 125.253 711.094 116.847 726.125 125.505C740 134.5 753.875 161.4 768.906 183.845C782.666 205.953 796.656 224.447 811.688 215.2C825.331 205.953 839.438 170.647 853.312 138.955C868.112 107.6 882.219 80.7 896.094 89.6947C910.778 98.3531 925 143.747 938.875 156.945C953.444 170.647 967.781 152.153 981.656 138.955C996.109 125.253 1010.56 116.847 1024.44 103.145C1038.89 89.9469 1053.34 71.4531 1067.22 80.7C1081.56 89.9469 1096.12 125.253 1110 156.945C1124.22 188.3 1138.91 215.2 1152.78 215.2C1166.89 215.2 1181.69 188.3 1195.56 170.395C1209.67 152.153 1223.31 143.747 1238.34 125.505C1252.33 107.6 1266.09 80.7 1281.12 98.6053C1295 116.847 1308.88 179.053 1323.91 206.205C1337.67 232.853 1351.66 224.447 1366.69 228.65C1380.33 232.853 1394.44 251.347 1408.31 233.105C1423.11 215.2 1437.22 161.4 1451.09 147.95C1465.78 134.5 1480 161.4 1493.88 161.4C1508.44 161.4 1522.78 134.5 1536.66 125.505C1551.11 116.847 1565.56 125.253 1579.44 143.495C1593.89 161.4 1608.34 188.3 1622.22 165.855C1636.56 143.747 1651.12 71.4531 1658.06 35.8947L1665 0V269H1657.83C1650.78 269 1636.09 269 1622.22 269C1608.11 269 1593.31 269 1579.44 269C1565.33 269 1551.69 269 1536.66 269C1522.67 269 1508.91 269 1493.88 269C1480 269 1466.12 269 1451.09 269C1437.33 269 1423.34 269 1408.31 269C1394.67 269 1380.56 269 1366.69 269C1351.89 269 1337.78 269 1323.91 269C1309.22 269 1295 269 1281.12 269C1266.56 269 1252.22 269 1238.34 269C1223.89 269 1209.44 269 1195.56 269C1181.11 269 1166.66 269 1152.78 269C1138.44 269 1123.88 269 1110 269C1095.78 269 1081.09 269 1067.22 269C1053.11 269 1038.31 269 1024.44 269C1010.33 269 996.688 269 981.656 269C967.666 269 953.906 269 938.875 269C925 269 911.125 269 896.094 269C882.334 269 868.344 269 853.312 269C839.669 269 825.562 269 811.688 269C796.888 269 782.781 269 768.906 269C754.222 269 740 269 726.125 269C711.556 269 697.219 269 683.344 269C668.891 269 654.438 269 640.562 269C626.109 269 611.656 269 597.781 269C583.444 269 568.875 269 555 269C540.778 269 526.094 269 512.219 269C498.112 269 483.312 269 469.438 269C455.331 269 441.688 269 426.656 269C412.666 269 398.906 269 383.875 269C370 269 356.125 269 341.094 269C327.334 269 313.344 269 298.312 269C284.669 269 270.562 269 256.688 269C241.887 269 227.781 269 213.906 269C199.222 269 185 269 171.125 269C156.556 269 142.219 269 128.344 269C113.891 269 99.4375 269 85.5625 269C71.1094 269 56.6562 269 42.7812 269C28.4438 269 13.875 269 6.9375 269H0V0Z" fill="url(#paint0_linear_92_352)"/>
  <defs>
    <linearGradient id="paint0_linear_92_352" x1="832.5" y1="0" x2="832.5" y2="269" gradientUnits="userSpaceOnUse">
      <stop stop-color="#407BFF"/>
      <stop offset="1" stop-color="#64B7FF"/>
    </linearGradient>
  </defs>
</svg>